STARTFONT 2.1
COMMENT
COMMENT Converted from OpenType font "ipaexg.ttf" by "..\otf2bdf.exe 3.0".
COMMENT
FONT -FreeType-IPAexGothic-Medium-R-Normal--24-240-72-72-P-209-ISO10646-1
SIZE 24 72 72
FONTBOUNDINGBOX 31 29 -6 -7
STARTPROPERTIES 19
FOUNDRY "FreeType"
FAMILY_NAME "IPAexGothic"
WEIGHT_NAME "Medium"
SLANT "R"
SETWIDTH_NAME "Normal"
ADD_STYLE_NAME ""
PIXEL_SIZE 24
POINT_SIZE 240
RESOLUTION_X 72
RESOLUTION_Y 72
SPACING "P"
AVERAGE_WIDTH 209
CHARSET_REGISTRY "ISO10646"
CHARSET_ENCODING "1"
FONT_ASCENT 21
FONT_DESCENT 2
COPYRIGHT "Copyright(c) Information-technology Promotion Agency, Japan (IPA), 2003-2019. You must accept "https://opensource.org/licenses/IPA/" to use this product."
_OTF_FONTFILE "ipaexg.ttf"
_OTF_PSNAME "IPAexGothic"
ENDPROPERTIES
CHARS 11691
STARTCHAR 0020
ENCODING 32
SWIDTH 250 0
DWIDTH 6 0
BBX 0 0 0 0
BITMAP
ENDCHAR
STARTCHAR 0021
ENCODING 33
SWIDTH 291 0
DWIDTH 7 0
BBX 2 17 2 0
BITMAP
C0
C0
C0
C0
C0
C0
C0
C0
C0
C0
C0
C0
C0
00
00
C0
C0
ENDCHAR
STARTCHAR 0022
ENCODING 34
SWIDTH 333 0
DWIDTH 8 0
BBX 6 6 1 11
BITMAP
CC
CC
CC
CC
CC
48
ENDCHAR
STARTCHAR 0023
ENCODING 35
SWIDTH 625 0
DWIDTH 15 0
BBX 13 17 1 0
BITMAP
0420
0460
0C60
0C40
7FF8
0840
08C0
18C0
18C0
FFF8
1080
1080
1180
3180
3180
3100
2100
ENDCHAR
STARTCHAR 0024
ENCODING 36
SWIDTH 625 0
DWIDTH 15 0
BBX 11 21 2 -1
BITMAP
0400
0400
3F80
61C0
C060
C040
C000
E000
7800
3E00
0F80
01C0
00E0
0060
0060
C060
F0C0
3F80
0E00
0400
0400
ENDCHAR
STARTCHAR 0025
ENCODING 37
SWIDTH 833 0
DWIDTH 20 0
BBX 18 18 1 0
BITMAP
000100
3C0300
660600
C30400
C30C00
C31800
C33000
E72000
7E6000
3CC700
008D80
0198C0
0318C0
0618C0
0418C0
0C1DC0
180F80
100700
ENDCHAR
STARTCHAR 0026
ENCODING 38
SWIDTH 708 0
DWIDTH 17 0
BBX 15 17 1 -1
BITMAP
0F80
1FC0
38E0
3060
3060
18E0
19C0
0F00
1E00
730C
618C
C0D8
C078
C038
E0FC
7FCE
1F06
ENDCHAR
STARTCHAR 0027
ENCODING 39
SWIDTH 208 0
DWIDTH 5 0
BBX 2 6 1 11
BITMAP
C0
C0
C0
C0
C0
40
ENDCHAR
STARTCHAR 0028
ENCODING 40
SWIDTH 333 0
DWIDTH 8 0
BBX 5 23 2 -4
BITMAP
18
10
30
20
60
60
40
C0
C0
C0
C0
C0
C0
C0
C0
C0
60
60
60
30
30
18
08
ENDCHAR
STARTCHAR 0029
ENCODING 41
SWIDTH 333 0
DWIDTH 8 0
BBX 5 23 1 -4
BITMAP
80
40
60
20
30
30
30
18
18
18
18
18
18
18
18
18
30
30
30
60
60
C0
80
ENDCHAR
STARTCHAR 002A
ENCODING 42
SWIDTH 375 0
DWIDTH 9 0
BBX 7 7 1 11
BITMAP
10
D6
7C
38
DE
10
10
ENDCHAR
STARTCHAR 002B
ENCODING 43
SWIDTH 666 0
DWIDTH 16 0
BBX 13 13 1 0
BITMAP
0200
0200
0200
0200
0200
0200
FFF8
0200
0200
0200
0200
0200
0200
ENDCHAR
STARTCHAR 002C
ENCODING 44
SWIDTH 250 0
DWIDTH 6 0
BBX 3 7 1 -4
BITMAP
60
60
60
60
C0
C0
80
ENDCHAR
STARTCHAR 002D
ENCODING 45
SWIDTH 375 0
DWIDTH 9 0
BBX 6 2 1 6
BITMAP
FC
FC
ENDCHAR
STARTCHAR 002E
ENCODING 46
SWIDTH 250 0
DWIDTH 6 0
BBX 3 3 2 0
BITMAP
E0
E0
E0
ENDCHAR
STARTCHAR 002F
ENCODING 47
SWIDTH 500 0
DWIDTH 12 0
BBX 9 21 1 -3
BITMAP
0080
0180
0100
0100
0300
0200
0200
0600
0400
0C00
0800
0800
1800
1000
1000
3000
2000
6000
4000
4000
C000
ENDCHAR
STARTCHAR 0030
ENCODING 48
SWIDTH 625 0
DWIDTH 15 0
BBX 13 17 1 0
BITMAP
0F80
3FE0
38E0
6030
6030
C018
C018
C018
C018
C018
C018
C018
6030
6030
30E0
3FE0
0F80
ENDCHAR
STARTCHAR 0031
ENCODING 49
SWIDTH 625 0
DWIDTH 15 0
BBX 6 17 3 0
BITMAP
0C
7C
EC
0C
0C
0C
0C
0C
0C
0C
0C
0C
0C
0C
0C
0C
0C
ENDCHAR
STARTCHAR 0032
ENCODING 50
SWIDTH 625 0
DWIDTH 15 0
BBX 12 17 2 0
BITMAP
1F00
7FC0
E0E0
C060
0060
0060
00E0
01C0
0380
0600
1C00
3000
6000
C000
C000
FFF0
FFF0
ENDCHAR
STARTCHAR 0033
ENCODING 51
SWIDTH 625 0
DWIDTH 15 0
BBX 12 17 1 0
BITMAP
0F80
3FE0
7070
2030
0030
0030
0060
0FC0
0F80
00E0
0070
0030
0030
4030
F060
7FE0
1F80
ENDCHAR
STARTCHAR 0034
ENCODING 52
SWIDTH 625 0
DWIDTH 15 0
BBX 13 17 1 0
BITMAP
00C0
01C0
0340
0240
0640
0C40
1840
3040
3040
6040
C040
FFF8
FFF8
0040
0040
0040
0040
ENDCHAR
STARTCHAR 0035
ENCODING 53
SWIDTH 625 0
DWIDTH 15 0
BBX 12 17 2 0
BITMAP
7FE0
7FE0
6000
6000
6000
6000
4F80
DFC0
F0E0
C070
0030
0030
0030
4070
E0E0
7FC0
1F80
ENDCHAR
STARTCHAR 0036
ENCODING 54
SWIDTH 625 0
DWIDTH 15 0
BBX 12 17 2 0
BITMAP
0F80
1FE0
3860
6000
6000
C000
CF80
DFC0
F0E0
E070
C030
C030
C030
6070
70E0
3FC0
0F80
ENDCHAR
STARTCHAR 0037
ENCODING 55
SWIDTH 625 0
DWIDTH 15 0
BBX 11 17 2 0
BITMAP
FFE0
FFE0
0060
00C0
00C0
0180
0380
0300
0700
0600
0600
0C00
0C00
1C00
1800
1800
3800
ENDCHAR
STARTCHAR 0038
ENCODING 56
SWIDTH 625 0
DWIDTH 15 0
BBX 13 17 1 0
BITMAP
0FC0
3FE0
7070
6030
6030
6030
38E0
1FC0
0F80
38E0
6030
C018
C018
C018
F070
7FF0
1FC0
ENDCHAR
STARTCHAR 0039
ENCODING 57
SWIDTH 625 0
DWIDTH 15 0
BBX 12 17 1 0
BITMAP
1F00
3FC0
70E0
E060
C030
C030
C030
E070
70F0
3FB0
1F30
0030
0060
0060
60C0
7F80
1F00
ENDCHAR
STARTCHAR 003A
ENCODING 58
SWIDTH 333 0
DWIDTH 8 0
BBX 3 12 3 0
BITMAP
E0
E0
E0
00
00
00
00
00
00
E0
E0
E0
ENDCHAR
STARTCHAR 003B
ENCODING 59
SWIDTH 333 0
DWIDTH 8 0
BBX 4 16 2 -5
BITMAP
70
70
70
00
00
00
00
00
00
00
70
60
60
60
C0
C0
ENDCHAR
STARTCHAR 003C
ENCODING 60
SWIDTH 666 0
DWIDTH 16 0
BBX 12 13 2 1
BITMAP
0010
0070
03C0
0F00
3800
E000
C000
7000
1C00
0700
01C0
0070
0010
ENDCHAR
STARTCHAR 003D
ENCODING 61
SWIDTH 666 0
DWIDTH 16 0
BBX 13 6 2 5
BITMAP
FFF8
0000
0000
0000
0000
FFF8
ENDCHAR
STARTCHAR 003E
ENCODING 62
SWIDTH 666 0
DWIDTH 16 0
BBX 13 13 2 1
BITMAP
C000
F000
1C00
0700
01C0
0070
0018
0070
03C0
0E00
3800
E000
8000
ENDCHAR
STARTCHAR 003F
ENCODING 63
SWIDTH 541 0
DWIDTH 13 0
BBX 10 17 1 0
BITMAP
1E00
7F80
E1C0
C0C0
00C0
00C0
01C0
0180
0300
0600
0C00
0C00
0C00
0000
0000
0C00
0C00
ENDCHAR
STARTCHAR 0040
ENCODING 64
SWIDTH 875 0
DWIDTH 21 0
BBX 18 17 2 0
BITMAP
03F800
0E0E00
19E300
333D80
661980
6618C0
CC18C0
CC18C0
CC10C0
CC30C0
CC3180
CE7380
67DF00
739E00
380000
0C0700
03F800
ENDCHAR
STARTCHAR 0041
ENCODING 65
SWIDTH 625 0
DWIDTH 15 0
BBX 15 18 0 0
BITMAP
0100
0380
0380
02C0
06C0
06C0
0C60
0C60
0C70
1830
1830
3FF8
3FF8
3018
700C
600C
600E
C006
ENDCHAR
STARTCHAR 0042
ENCODING 66
SWIDTH 666 0
DWIDTH 16 0
BBX 12 17 2 0
BITMAP
FF00
FFC0
C0E0
C060
C060
C060
C0C0
FF80
FF80
C0E0
C070
C030
C030
C030
C0E0
FFE0
FF80
ENDCHAR
STARTCHAR 0043
ENCODING 67
SWIDTH 708 0
DWIDTH 17 0
BBX 15 17 1 0
BITMAP
07F0
1FFC
3C1E
7004
6000
E000
C000
C000
C000
C000
C000
E000
6004
700E
3C1C
1FF8
07E0
ENDCHAR
STARTCHAR 0044
ENCODING 68
SWIDTH 750 0
DWIDTH 18 0
BBX 14 17 2 0
BITMAP
FF80
FFE0
C0F0
C038
C018
C01C
C00C
C00C
C00C
C00C
C00C
C01C
C018
C038
C0F0
FFE0
FF80
ENDCHAR
STARTCHAR 0045
ENCODING 69
SWIDTH 583 0
DWIDTH 14 0
BBX 11 17 2 0
BITMAP
FFE0
FFE0
C000
C000
C000
C000
C000
FFC0
FFC0
C000
C000
C000
C000
C000
C000
FFE0
FFE0
ENDCHAR
STARTCHAR 0046
ENCODING 70
SWIDTH 583 0
DWIDTH 14 0
BBX 11 17 2 0
BITMAP
FFE0
FFE0
C000
C000
C000
C000
C000
FFC0
FFC0
C000
C000
C000
C000
C000
C000
C000
C000
ENDCHAR
STARTCHAR 0047
ENCODING 71
SWIDTH 750 0
DWIDTH 18 0
BBX 15 17 2 0
BITMAP
07E0
1FF8
381C
700C
6000
E000
C000
C000
C07E
C07E
C006
E006
6006
7006
3C1E
1FF8
07E0
ENDCHAR
STARTCHAR 0048
ENCODING 72
SWIDTH 750 0
DWIDTH 18 0
BBX 14 17 2 0
BITMAP
C00C
C00C
C00C
C00C
C00C
C00C
C00C
FFFC
FFFC
C00C
C00C
C00C
C00C
C00C
C00C
C00C
C00C
ENDCHAR
STARTCHAR 0049
ENCODING 73
SWIDTH 291 0
DWIDTH 7 0
BBX 2 17 2 1
BITMAP
C0
C0
C0
C0
C0
C0
C0
C0
C0
C0
C0
C0
C0
C0
C0
C0
C0
ENDCHAR
STARTCHAR 004A
ENCODING 74
SWIDTH 375 0
DWIDTH 9 0
BBX 7 17 0 1
BITMAP
06
06
06
06
06
06
06
06
06
06
06
06
06
06
0E
FC
F8
ENDCHAR
STARTCHAR 004B
ENCODING 75
SWIDTH 666 0
DWIDTH 16 0
BBX 13 17 2 0
BITMAP
C070
C0E0
C1C0
C380
C700
CE00
DC00
D800
FC00
E600
C700
C380
C1C0
C0C0
C060
C070
C038
ENDCHAR
STARTCHAR 004C
ENCODING 76
SWIDTH 541 0
DWIDTH 13 0
BBX 10 17 2 1
BITMAP
C000
C000
C000
C000
C000
C000
C000
C000
C000
C000
C000
C000
C000
C000
C000
FFC0
FFC0
ENDCHAR
STARTCHAR 004D
ENCODING 77
SWIDTH 916 0
DWIDTH 22 0
BBX 17 17 2 -1
BITMAP
E00380
F00780
F00780
F00580
D80D80
D80D80
CC1980
CC1980
CC1980
C63180
C63180
C36180
C36180
C36180
C1C180
C1C180
C08180
ENDCHAR
STARTCHAR 004E
ENCODING 78
SWIDTH 750 0
DWIDTH 18 0
BBX 14 17 2 -1
BITMAP
E00C
F00C
F80C
D80C
DC0C
CE0C
C60C
C70C
C38C
C18C
C0CC
C0EC
C06C
C03C
C03C
C01C
C00C
ENDCHAR
STARTCHAR 004F
ENCODING 79
SWIDTH 791 0
DWIDTH 19 0
BBX 17 17 1 0
BITMAP
07F000
1FFC00
3C1E00
700700
600300
E00380
C00180
C00180
C00180
C00180
C00180
E00380
600300
700700
3C1E00
1FFC00
07F000
ENDCHAR
STARTCHAR 0050
ENCODING 80
SWIDTH 625 0
DWIDTH 15 0
BBX 11 17 2 -1
BITMAP
FF00
FFC0
C1C0
C060
C060
C060
C060
C1C0
FFC0
FF00
C000
C000
C000
C000
C000
C000
C000
ENDCHAR
STARTCHAR 0051
ENCODING 81
SWIDTH 791 0
DWIDTH 19 0
BBX 17 18 1 -2
BITMAP
07F000
1FFC00
3C1E00
700700
600300
E00380
C00180
C00180
C00180
C00180
C00180
E00180
60E300
707700
3C1E00
1FFE00
07F700
000180
ENDCHAR
STARTCHAR 0052
ENCODING 82
SWIDTH 666 0
DWIDTH 16 0
BBX 13 17 2 0
BITMAP
FF00
FFC0
C0E0
C060
C060
C060
C060
C1C0
FF80
FF00
C380
C1C0
C0C0
C060
C070
C030
C038
ENDCHAR
STARTCHAR 0053
ENCODING 83
SWIDTH 583 0
DWIDTH 14 0
BBX 12 17 1 0
BITMAP
0F80
3FE0
60F0
6000
6000
7000
3800
3F00
0FC0
01E0
0070
0030
0030
4030
F060
7FE0
1F80
ENDCHAR
STARTCHAR 0054
ENCODING 84
SWIDTH 583 0
DWIDTH 14 0
BBX 14 17 0 -1
BITMAP
FFFC
FFFC
0300
0300
0300
0300
0300
0300
0300
0300
0300
0300
0300
0300
0300
0300
0300
ENDCHAR
STARTCHAR 0055
ENCODING 85
SWIDTH 750 0
DWIDTH 18 0
BBX 14 17 2 1
BITMAP
C00C
C00C
C00C
C00C
C00C
C00C
C00C
C00C
C00C
C00C
C00C
C00C
C00C
E01C
7038
3FF0
0FC0
ENDCHAR
STARTCHAR 0056
ENCODING 86
SWIDTH 625 0
DWIDTH 15 0
BBX 15 17 0 -1
BITMAP
E006
600E
600C
700C
301C
3018
1838
1830
1C30
0C60
0C60
0E60
06C0
06C0
0380
0380
0380
ENDCHAR
STARTCHAR 0057
ENCODING 87
SWIDTH 916 0
DWIDTH 22 0
BBX 22 17 0 -1
BITMAP
E0300C
60301C
603818
707818
307818
306C30
30CC30
38CC30
18C660
188660
198660
0D8660
0D83C0
0D03C0
0703C0
070180
060180
ENDCHAR
STARTCHAR 0058
ENCODING 88
SWIDTH 666 0
DWIDTH 16 0
BBX 14 17 1 0
BITMAP
E00C
601C
3038
3830
1C60
0CE0
0EC0
0780
0380
0780
0EC0
0CE0
1860
3830
7038
601C
E00C
ENDCHAR
STARTCHAR 0059
ENCODING 89
SWIDTH 625 0
DWIDTH 15 0
BBX 14 17 0 -1
BITMAP
E01C
6018
7038
3830
1860
1CE0
0CC0
0780
0300
0300
0300
0300
0300
0300
0300
0300
0300
ENDCHAR
STARTCHAR 005A
ENCODING 90
SWIDTH 625 0
DWIDTH 15 0
BBX 14 17 1 0
BITMAP
7FF8
7FF8
0030
0070
00E0
01C0
0180
0380
0700
0E00
0C00
1800
3800
7000
E000
FFFC
FFFC
ENDCHAR
STARTCHAR 005B
ENCODING 91
SWIDTH 291 0
DWIDTH 7 0
BBX 5 22 2 -4
BITMAP
F8
C0
C0
C0
C0
C0
C0
C0
C0
C0
C0
C0
C0
C0
C0
C0
C0
C0
C0
C0
C0
F8
ENDCHAR
STARTCHAR 005C
ENCODING 92
SWIDTH 500 0
DWIDTH 12 0
BBX 9 21 2 -3
BITMAP
8000
C000
4000
4000
6000
2000
2000
1000
1000
1800
0800
0800
0C00
0400
0400
0200
0200
0300
0100
0100
0180
ENDCHAR
STARTCHAR 005D
ENCODING 93
SWIDTH 291 0
DWIDTH 7 0
BBX 5 22 0 -4
BITMAP
F8
18
18
18
18
18
18
18
18
18
18
18
18
18
18
18
18
18
18
18
18
F8
ENDCHAR
STARTCHAR 005E
ENCODING 94
SWIDTH 500 0
DWIDTH 12 0
BBX 10 7 1 9
BITMAP
0C00
1E00
3300
2100
6180
C0C0
8040
ENDCHAR
STARTCHAR 005F
ENCODING 95
SWIDTH 500 0
DWIDTH 12 0
BBX 12 1 0 -3
BITMAP
FFF0
ENDCHAR
STARTCHAR 0060
ENCODING 96
SWIDTH 500 0
DWIDTH 12 0
BBX 3 3 4 15
BITMAP
C0
40
60
ENDCHAR
STARTCHAR 0061
ENCODING 97
SWIDTH 541 0
DWIDTH 13 0
BBX 10 12 1 0
BITMAP
1F00
7F80
61C0
00C0
00C0
3FC0
70C0
C0C0
C0C0
E1C0
7FC0
3E40
ENDCHAR
STARTCHAR 0062
ENCODING 98
SWIDTH 625 0
DWIDTH 15 0
BBX 12 18 2 -1
BITMAP
C000
C000
C000
C000
C000
C000
CF80
FFC0
F0E0
E070
C030
C030
C030
C030
C070
F0E0
FFC0
CF80
ENDCHAR
STARTCHAR 0063
ENCODING 99
SWIDTH 541 0
DWIDTH 13 0
BBX 11 12 1 0
BITMAP
1F80
3FC0
70E0
E000
C000
C000
C000
C000
E000
70E0
3FC0
1F80
ENDCHAR
STARTCHAR 0064
ENCODING 100
SWIDTH 625 0
DWIDTH 15 0
BBX 12 18 1 0
BITMAP
0030
0030
0030
0030
0030
0030
1F30
3FF0
70F0
E030
C030
C030
C030
C030
E070
70F0
3FF0
1F30
ENDCHAR
STARTCHAR 0065
ENCODING 101
SWIDTH 583 0
DWIDTH 14 0
BBX 11 12 1 0
BITMAP
1F80
3FC0
70E0
E060
C060
FFE0
FFE0
C000
E000
7060
3FE0
0F80
ENDCHAR
STARTCHAR 0066
ENCODING 102
SWIDTH 291 0
DWIDTH 7 0
BBX 8 18 0 0
BITMAP
0F
1F
38
30
30
30
FE
FE
30
30
30
30
30
30
30
30
30
30
ENDCHAR
STARTCHAR 0067
ENCODING 103
SWIDTH 541 0
DWIDTH 13 0
BBX 11 18 1 -5
BITMAP
0060
1FE0
3F80
71C0
60C0
60C0
60C0
3180
3F00
6000
6000
3F80
3FC0
60E0
C060
C060
60C0
3F80
ENDCHAR
STARTCHAR 0068
ENCODING 104
SWIDTH 625 0
DWIDTH 15 0
BBX 11 18 2 0
BITMAP
C000
C000
C000
C000
C000
C000
CF80
DFC0
F0E0
E060
C060
C060
C060
C060
C060
C060
C060
C060
ENDCHAR
STARTCHAR 0069
ENCODING 105
SWIDTH 250 0
DWIDTH 6 0
BBX 2 17 2 0
BITMAP
C0
C0
00
00
00
C0
C0
C0
C0
C0
C0
C0
C0
C0
C0
C0
C0
ENDCHAR
STARTCHAR 006A
ENCODING 106
SWIDTH 250 0
DWIDTH 6 0
BBX 5 22 -1 -6
BITMAP
18
18
00
00
00
18
18
18
18
18
18
18
18
18
18
18
18
18
18
38
F0
60
ENDCHAR
STARTCHAR 006B
ENCODING 107
SWIDTH 500 0
DWIDTH 12 0
BBX 10 18 2 0
BITMAP
C000
C000
C000
C000
C000
C000
C180
C300
C600
CC00
D800
F800
EC00
CE00
C600
C300
C380
C1C0
ENDCHAR
STARTCHAR 006C
ENCODING 108
SWIDTH 250 0
DWIDTH 6 0
BBX 2 18 2 0
BITMAP
C0
C0
C0
C0
C0
C0
C0
C0
C0
C0
C0
C0
C0
C0
C0
C0
C0
C0
ENDCHAR
STARTCHAR 006D
ENCODING 109
SWIDTH 875 0
DWIDTH 21 0
BBX 17 12 2 0
BITMAP
DE1E00
FF7F00
E3E380
C18180
C18180
C18180
C18180
C18180
C18180
C18180
C18180
C18180
ENDCHAR
STARTCHAR 006E
ENCODING 110
SWIDTH 625 0
DWIDTH 15 0
BBX 10 12 2 0
BITMAP
CF00
FF80
F1C0
E0C0
C0C0
C0C0
C0C0
C0C0
C0C0
C0C0
C0C0
C0C0
ENDCHAR
STARTCHAR 006F
ENCODING 111
SWIDTH 625 0
DWIDTH 15 0
BBX 12 12 1 0
BITMAP
1F80
3FC0
70E0
E070
C030
C030
C030
C030
E070
70E0
3FC0
1F80
ENDCHAR
STARTCHAR 0070
ENCODING 112
SWIDTH 625 0
DWIDTH 15 0
BBX 12 17 2 -5
BITMAP
CF80
FFC0
F0E0
E070
C030
C030
C030
C030
C070
F0E0
FFC0
CF80
C000
C000
C000
C000
C000
ENDCHAR
STARTCHAR 0071
ENCODING 113
SWIDTH 625 0
DWIDTH 15 0
BBX 12 17 1 -4
BITMAP
1F30
3FF0
70F0
E030
C030
C030
C030
C030
E070
70F0
3FF0
1F30
0030
0030
0030
0030
0030
ENDCHAR
STARTCHAR 0072
ENCODING 114
SWIDTH 375 0
DWIDTH 9 0
BBX 6 12 2 1
BITMAP
CC
DC
F0
E0
C0
C0
C0
C0
C0
C0
C0
C0
ENDCHAR
STARTCHAR 0073
ENCODING 115
SWIDTH 458 0
DWIDTH 11 0
BBX 9 12 1 0
BITMAP
3E00
7F80
C100
C000
E000
3800
0700
0180
0180
4180
FF00
3E00
ENDCHAR
STARTCHAR 0074
ENCODING 116
SWIDTH 333 0
DWIDTH 8 0
BBX 7 15 0 1
BITMAP
30
30
30
FE
FE
30
30
30
30
30
30
30
30
3E
1E
ENDCHAR
STARTCHAR 0075
ENCODING 117
SWIDTH 625 0
DWIDTH 15 0
BBX 10 12 2 0
BITMAP
C0C0
C0C0
C0C0
C0C0
C0C0
C0C0
C0C0
C0C0
C1C0
E3C0
7FC0
3CC0
ENDCHAR
STARTCHAR 0076
ENCODING 118
SWIDTH 500 0
DWIDTH 12 0
BBX 11 12 0 0
BITMAP
E060
6060
60E0
30C0
30C0
3180
1980
1900
0F00
0F00
0600
0600
ENDCHAR
STARTCHAR 0077
ENCODING 119
SWIDTH 750 0
DWIDTH 18 0
BBX 18 12 0 0
BITMAP
C0C0C0
60C180
61E180
61E180
312300
333300
333300
1A1200
1E1E00
1E1E00
0C0C00
0C0C00
ENDCHAR
STARTCHAR 0078
ENCODING 120
SWIDTH 500 0
DWIDTH 12 0
BBX 10 12 1 0
BITMAP
C0C0
E180
6380
3300
1E00
1C00
1C00
3E00
3300
6380
E180
C0C0
ENDCHAR
STARTCHAR 0079
ENCODING 121
SWIDTH 500 0
DWIDTH 12 0
BBX 12 17 0 -5
BITMAP
E070
6060
6060
30C0
30C0
1980
1980
1980
0F00
0F00
0600
0600
0600
0C00
1C00
7800
2000
ENDCHAR
STARTCHAR 007A
ENCODING 122
SWIDTH 458 0
DWIDTH 11 0
BBX 9 12 1 0
BITMAP
FF80
FF80
0300
0300
0600
0C00
1800
3000
7000
6000
FF80
FF80
ENDCHAR
STARTCHAR 007B
ENCODING 123
SWIDTH 333 0
DWIDTH 8 0
BBX 6 22 2 -4
BITMAP
1C
70
60
60
60
60
60
60
60
60
C0
C0
60
60
60
60
60
60
60
60
38
1C
ENDCHAR
STARTCHAR 007C
ENCODING 124
SWIDTH 208 0
DWIDTH 5 0
BBX 1 22 2 -4
BITMAP
80
80
80
80
80
80
80
80
80
80
80
80
80
80
80
80
80
80
80
80
80
80
ENDCHAR
STARTCHAR 007D
ENCODING 125
SWIDTH 333 0
DWIDTH 8 0
BBX 6 22 0 -4
BITMAP
E0
30
18
18
18
18
18
18
18
18
0C
0C
18
18
18
18
18
18
18
18
70
E0
ENDCHAR
STARTCHAR 007E
ENCODING 126
SWIDTH 500 0
DWIDTH 12 0
BBX 8 3 2 14
BITMAP
70
D9
0E
ENDCHAR
STARTCHAR 00A0
ENCODING 160
SWIDTH 250 0
DWIDTH 6 0
BBX 0 0 0 0
BITMAP
ENDCHAR
STARTCHAR 00A1
ENCODING 161
SWIDTH 291 0
DWIDTH 7 0
BBX 2 17 2 0
BITMAP
C0
C0
00
00
C0
C0
C0
C0
C0
C0
C0
C0
C0
C0
C0
C0
C0
ENDCHAR
STARTCHAR 00A2
ENCODING 162
SWIDTH 625 0
DWIDTH 15 0
BBX 11 18 2 0
BITMAP
00C0
0180
0180
1F00
3FC0
73C0
E260
C600
C600
C400
CC00
CC60
78E0
7FC0
3F00
3000
3000
2000
ENDCHAR
STARTCHAR 00A3
ENCODING 163
SWIDTH 833 0
DWIDTH 20 0
BBX 16 18 2 0
BITMAP
03E0
07F8
0E38
0C18
0C00
0400
7FF0
7FF0
0300
0300
0300
7B00
FF02
C703
8383
C7C6
7C7C
3838
ENDCHAR
STARTCHAR 00A4
ENCODING 164
SWIDTH 625 0
DWIDTH 15 0
BBX 11 11 2 2
BITMAP
DF60
60C0
4040
8020
8020
8020
8020
8020
4040
60E0
DF20
ENDCHAR
STARTCHAR 00A5
ENCODING 165
SWIDTH 625 0
DWIDTH 15 0
BBX 14 17 1 0
BITMAP
E01C
6018
3030
1860
1CE0
0CC0
0780
7FF0
0300
0300
0300
7FF0
0300
0300
0300
0300
0300
ENDCHAR
STARTCHAR 00A6
ENCODING 166
SWIDTH 208 0
DWIDTH 5 0
BBX 1 22 2 -4
BITMAP
80
80
80
80
80
80
80
80
80
00
00
00
00
80
80
80
80
80
80
80
80
80
ENDCHAR
STARTCHAR 00A7
ENCODING 167
SWIDTH 583 0
DWIDTH 14 0
BBX 10 22 2 -2
BITMAP
1E00
3F80
7180
60C0
60C0
6000
3000
3C00
6F00
C380
C0C0
C0C0
70C0
3D80
0F00
0380
00C0
C0C0
E0C0
61C0
7F80
1F00
ENDCHAR
STARTCHAR 00A8
ENCODING 168
SWIDTH 500 0
DWIDTH 12 0
BBX 6 2 3 14
BITMAP
CC
CC
ENDCHAR
STARTCHAR 00A9
ENCODING 169
SWIDTH 1000 0
DWIDTH 24 0
BBX 20 20 2 -1
BITMAP
01F800
070600
1C0100
30F880
23FC40
430E20
460620
860010
8C0010
8C0010
8C0010
8C0010
8C0010
460720
470E20
23FC40
30F8C0
180180
060600
01F800
ENDCHAR
STARTCHAR 00AA
ENCODING 170
SWIDTH 458 0
DWIDTH 11 0
BBX 8 10 2 7
BITMAP
7C
46
06
7E
E6
C6
CE
7B
00
FF
ENDCHAR
STARTCHAR 00AB
ENCODING 171
SWIDTH 583 0
DWIDTH 14 0
BBX 9 10 3 2
BITMAP
1180
3100
6300
6600
CE00
CC00
C600
6200
2300
3180
ENDCHAR
STARTCHAR 00AC
ENCODING 172
SWIDTH 666 0
DWIDTH 16 0
BBX 12 5 2 4
BITMAP
FFF0
0010
0010
0010
0010
ENDCHAR
STARTCHAR 00AD
ENCODING 173
SWIDTH 666 0
DWIDTH 16 0
BBX 13 1 2 7
BITMAP
FFF8
ENDCHAR
STARTCHAR 00AE
ENCODING 174
SWIDTH 1000 0
DWIDTH 24 0
BBX 20 19 2 0
BITMAP
01F800
070600
1C0100
380080
73F840
63FC20
C30620
830610
830610
833C10
83F010
831810
830C10
430E20
230660
330740
180180
060600
01F800
ENDCHAR
STARTCHAR 00AF
ENCODING 175
SWIDTH 500 0
DWIDTH 12 0
BBX 6 1 3 15
BITMAP
FC
ENDCHAR
STARTCHAR 00B0
ENCODING 176
SWIDTH 333 0
DWIDTH 8 0
BBX 6 5 1 15
BITMAP
78
CC
84
CC
78
ENDCHAR
STARTCHAR 00B1
ENCODING 177
SWIDTH 666 0
DWIDTH 16 0
BBX 13 14 1 2
BITMAP
0200
0200
0200
0200
0200
FFF8
0200
0200
0200
0200
0200
0200
0000
FFF8
ENDCHAR
STARTCHAR 00B2
ENCODING 178
SWIDTH 416 0
DWIDTH 10 0
BBX 7 8 1 9
BITMAP
3C
46
46
0E
3C
60
40
FE
ENDCHAR
STARTCHAR 00B3
ENCODING 179
SWIDTH 416 0
DWIDTH 10 0
BBX 7 9 1 8
BITMAP
3C
46
06
0E
1C
06
46
C6
7C
ENDCHAR
STARTCHAR 00B4
ENCODING 180
SWIDTH 500 0
DWIDTH 12 0
BBX 3 3 5 15
BITMAP
60
40
C0
ENDCHAR
STARTCHAR 00B6
ENCODING 182
SWIDTH 1000 0
DWIDTH 24 0
BBX 10 21 6 -2
BITMAP
3FC0
7840
F840
F840
F840
F840
7840
3840
0840
0840
0840
0840
0840
0840
0840
0840
0840
0840
0840
0840
0840
ENDCHAR
STARTCHAR 00B7
ENCODING 183
SWIDTH 250 0
DWIDTH 6 0
BBX 3 3 2 6
BITMAP
E0
E0
E0
ENDCHAR
STARTCHAR 00B8
ENCODING 184
SWIDTH 500 0
DWIDTH 12 0
BBX 5 5 4 -5
BITMAP
40
F0
18
18
F0
ENDCHAR
STARTCHAR 00B9
ENCODING 185
SWIDTH 416 0
DWIDTH 10 0
BBX 4 9 2 8
BITMAP
30
F0
B0
30
30
30
30
30
30
ENDCHAR
STARTCHAR 00BA
ENCODING 186
SWIDTH 458 0
DWIDTH 11 0
BBX 8 10 1 7
BITMAP
3C
66
C3
C3
C3
C3
66
3C
00
FF
ENDCHAR
STARTCHAR 00BB
ENCODING 187
SWIDTH 583 0
DWIDTH 14 0
BBX 9 11 3 2
BITMAP
8800
CC00
C600
6300
3300
3180
3300
6600
C600
8C00
8000
ENDCHAR
STARTCHAR 00BC
ENCODING 188
SWIDTH 833 0
DWIDTH 20 0
BBX 17 18 2 -1
BITMAP
300200
F00400
B00C00
300800
301000
303000
306000
304000
308000
318600
030E00
021A00
041200
0C3200
186200
107F80
200200
600200
ENDCHAR
STARTCHAR 00BD
ENCODING 189
SWIDTH 833 0
DWIDTH 20 0
BBX 17 19 2 -1
BITMAP
300200
F00400
B00C00
301800
301000
303000
306000
304000
308000
318F00
031180
023180
040380
0C0700
180E00
101800
203000
603F80
400000
ENDCHAR
STARTCHAR 00BE
ENCODING 190
SWIDTH 833 0
DWIDTH 20 0
BBX 17 18 2 -1
BITMAP
000200
780600
CC0400
0C0800
1C1800
383000
0C2000
0C4000
8CC000
798600
010E00
030A00
061A00
043200
086200
187F80
300200
200200
ENDCHAR
STARTCHAR 00BF
ENCODING 191
SWIDTH 541 0
DWIDTH 13 0
BBX 10 17 2 0
BITMAP
0C00
0C00
0000
0000
0C00
0C00
0800
1800
3000
6000
E000
C000
C0C0
C0C0
E180
7F80
3E00
ENDCHAR
STARTCHAR 00C0
ENCODING 192
SWIDTH 625 0
DWIDTH 15 0
BBX 15 22 0 0
BITMAP
0600
0300
0180
0000
0180
0380
0380
02C0
06C0
06C0
0C60
0C60
0C30
1830
1830
3FF8
3FF8
301C
700C
600C
600E
C006
ENDCHAR
STARTCHAR 00C1
ENCODING 193
SWIDTH 625 0
DWIDTH 15 0
BBX 15 22 0 0
BITMAP
00C0
0180
0180
0000
0180
0380
0380
02C0
06C0
06C0
0C60
0C60
0C30
1830
1830
3FF8
3FF8
301C
700C
600C
600E
C006
ENDCHAR
STARTCHAR 00C2
ENCODING 194
SWIDTH 625 0
DWIDTH 15 0
BBX 15 22 0 0
BITMAP
0180
0380
0640
0C20
0000
0380
0380
02C0
06C0
06C0
0C60
0C60
0C70
1830
1830
1FF8
3FF8
301C
700C
600C
600E
C006
ENDCHAR
STARTCHAR 00C3
ENCODING 195
SWIDTH 625 0
DWIDTH 15 0
BBX 15 21 0 1
BITMAP
0F30
18E0
0000
0000
0380
0380
02C0
06C0
06C0
0C60
0C60
0C70
1830
1830
1FF8
3FF8
301C
700C
600C
600E
C006
ENDCHAR
STARTCHAR 00C4
ENCODING 196
SWIDTH 625 0
DWIDTH 15 0
BBX 15 21 0 1
BITMAP
0C60
0C60
0000
0000
0380
0380
02C0
06C0
06C0
0C60
0C60
0C70
1830
1830
1FF8
3FF8
301C
700C
600C
600E
C006
ENDCHAR
STARTCHAR 00C5
ENCODING 197
SWIDTH 625 0
DWIDTH 15 0
BBX 15 22 0 0
BITMAP
0180
0240
0240
0180
0000
0380
0380
02C0
06C0
06C0
0C60
0C60
0C70
1830
1830
1FF8
3FF8
301C
700C
600C
600E
C006
ENDCHAR
STARTCHAR 00C6
ENCODING 198
SWIDTH 875 0
DWIDTH 21 0
BBX 20 17 0 0
BITMAP
01FFF0
01FFF0
03E000
036000
076000
063000
063000
0C3FE0
0C3FE0
1C3000
1FF000
3FF800
301800
301800
701800
601FF0
E01FF0
ENDCHAR
STARTCHAR 00C7
ENCODING 199
SWIDTH 708 0
DWIDTH 17 0
BBX 15 23 1 -6
BITMAP
07F0
1FFC
3C1E
7004
6000
E000
C000
C000
C000
C000
C000
E000
6006
300E
1C1C
0FF8
01C0
0180
01C0
0060
0060
03C0
0300
ENDCHAR
STARTCHAR 00C8
ENCODING 200
SWIDTH 583 0
DWIDTH 14 0
BBX 11 22 2 0
BITMAP
1800
1C00
0C00
0400
0000
FFE0
FFE0
C000
C000
C000
C000
C000
FFC0
FFC0
C000
C000
C000
C000
C000
C000
FFE0
FFE0
ENDCHAR
STARTCHAR 00C9
ENCODING 201
SWIDTH 583 0
DWIDTH 14 0
BBX 11 22 2 0
BITMAP
0300
0600
0600
0C00
0000
FFE0
FFE0
C000
C000
C000
C000
C000
FFC0
FFC0
C000
C000
C000
C000
C000
C000
FFE0
FFE0
ENDCHAR
STARTCHAR 00CA
ENCODING 202
SWIDTH 583 0
DWIDTH 14 0
BBX 11 21 2 1
BITMAP
0E00
1A00
3100
0000
FFE0
FFE0
C000
C000
C000
C000
C000
FFC0
FFC0
C000
C000
C000
C000
C000
C000
FFE0
FFE0
ENDCHAR
STARTCHAR 00CB
ENCODING 203
SWIDTH 583 0
DWIDTH 14 0
BBX 11 21 2 0
BITMAP
3180
3180
3180
0000
FFE0
FFE0
C000
C000
C000
C000
C000
FFC0
FFC0
C000
C000
C000
C000
C000
C000
FFE0
FFE0
ENDCHAR
STARTCHAR 00CC
ENCODING 204
SWIDTH 291 0
DWIDTH 7 0
BBX 3 22 1 0
BITMAP
C0
C0
60
00
60
60
60
60
60
60
60
60
60
60
60
60
60
60
60
60
60
60
ENDCHAR
STARTCHAR 00CD
ENCODING 205
SWIDTH 291 0
DWIDTH 7 0
BBX 3 22 2 0
BITMAP
60
60
C0
00
C0
C0
C0
C0
C0
C0
C0
C0
C0
C0
C0
C0
C0
C0
C0
C0
C0
C0
ENDCHAR
STARTCHAR 00CE
ENCODING 206
SWIDTH 291 0
DWIDTH 7 0
BBX 6 21 0 1
BITMAP
78
48
84
00
30
30
30
30
30
30
30
30
30
30
30
30
30
30
30
30
30
ENDCHAR
STARTCHAR 00CF
ENCODING 207
SWIDTH 291 0
DWIDTH 7 0
BBX 7 21 -1 0
BITMAP
E6
E6
00
00
18
18
18
18
18
18
18
18
18
18
18
18
18
18
18
18
18
ENDCHAR
STARTCHAR 00D0
ENCODING 208
SWIDTH 750 0
DWIDTH 18 0
BBX 16 17 0 0
BITMAP
3FE0
3FF8
303C
300E
3006
3007
3003
FF03
FF03
3003
3003
3007
3006
300E
303C
3FF8
3FE0
ENDCHAR
STARTCHAR 00D1
ENCODING 209
SWIDTH 750 0
DWIDTH 18 0
BBX 14 21 2 -1
BITMAP
0E20
1320
01C0
0000
E00C
F00C
F80C
D80C
DC0C
CE0C
C60C
C70C
C38C
C18C
C0CC
C0EC
C06C
C03C
C03C
C01C
C00C
ENDCHAR
STARTCHAR 00D2
ENCODING 210
SWIDTH 791 0
DWIDTH 19 0
BBX 17 22 1 0
BITMAP
030000
018000
018000
00C000
000000
07F000
1FFC00
3C1E00
700700
600300
E00380
C00180
C00180
C00180
C00180
C00180
E00380
600300
700700
3C1E00
1FFC00
07F000
ENDCHAR
STARTCHAR 00D3
ENCODING 211
SWIDTH 791 0
DWIDTH 19 0
BBX 17 22 1 0
BITMAP
006000
00C000
00C000
018000
000000
07F000
1FFC00
3C1E00
700700
600300
E00380
C00180
C00180
C00180
C00180
C00180
E00380
600300
700700
3C1E00
1FFC00
07F000
ENDCHAR
STARTCHAR 00D4
ENCODING 212
SWIDTH 791 0
DWIDTH 19 0
BBX 17 21 1 1
BITMAP
01C000
036000
022000
000000
07F000
1FFC00
3C1E00
700700
600300
E00380
C00180
C00180
C00180
C00180
C00180
E00380
600300
700700
3C1E00
1FFC00
07F000
ENDCHAR
STARTCHAR 00D5
ENCODING 213
SWIDTH 791 0
DWIDTH 19 0
BBX 17 21 1 0
BITMAP
070800
049800
047000
000000
07F000
1FFC00
3C1E00
700700
600300
E00380
C00180
C00180
C00180
C00180
C00180
E00380
600300
700700
3C1E00
1FFC00
07F000
ENDCHAR
STARTCHAR 00D6
ENCODING 214
SWIDTH 791 0
DWIDTH 19 0
BBX 17 21 1 0
BITMAP
063000
063000
063000
000000
07F000
1FFC00
3C1E00
700700
600300
E00380
C00180
C00180
C00180
C00180
C00180
E00380
600300
700700
3C1E00
1FFC00
07F000
ENDCHAR
STARTCHAR 00D7
ENCODING 215
SWIDTH 666 0
DWIDTH 16 0
BBX 10 10 3 3
BITMAP
C040
60C0
3180
1B00
0E00
0E00
1B00
3180
60C0
C040
ENDCHAR
STARTCHAR 00D8
ENCODING 216
SWIDTH 791 0
DWIDTH 19 0
BBX 17 18 1 -1
BITMAP
000200
07F200
1FFE00
3C1E00
701F00
601300
E03380
C06180
C0C180
C18180
C10180
C30180
E60380
6C0300
380700
3C1E00
3FFC00
67F000
ENDCHAR
STARTCHAR 00D9
ENCODING 217
SWIDTH 750 0
DWIDTH 18 0
BBX 14 22 2 0
BITMAP
0E00
0600
0300
0000
C00C
C00C
C00C
C00C
C00C
C00C
C00C
C00C
C00C
C00C
C00C
C00C
C00C
C00C
E01C
7038
3FF0
0FC0
ENDCHAR
STARTCHAR 00DA
ENCODING 218
SWIDTH 750 0
DWIDTH 18 0
BBX 14 22 2 0
BITMAP
01C0
0180
0300
0000
C00C
C00C
C00C
C00C
C00C
C00C
C00C
C00C
C00C
C00C
C00C
C00C
C00C
C00C
E01C
7038
3FF0
0FC0
ENDCHAR
STARTCHAR 00DB
ENCODING 219
SWIDTH 750 0
DWIDTH 18 0
BBX 14 21 2 1
BITMAP
0780
0480
0840
0000
C00C
C00C
C00C
C00C
C00C
C00C
C00C
C00C
C00C
C00C
C00C
C00C
C00C
E01C
7038
3FF0
0FC0
ENDCHAR
STARTCHAR 00DC
ENCODING 220
SWIDTH 750 0
DWIDTH 18 0
BBX 14 21 2 0
BITMAP
1CE0
1CE0
0000
0000
C00C
C00C
C00C
C00C
C00C
C00C
C00C
C00C
C00C
C00C
C00C
C00C
C00C
E01C
7038
3FF0
0FC0
ENDCHAR
STARTCHAR 00DD
ENCODING 221
SWIDTH 625 0
DWIDTH 15 0
BBX 14 22 0 -1
BITMAP
01C0
0180
0300
0300
0000
E01C
6018
7038
3830
1860
1CE0
0CC0
0780
0300
0300
0300
0300
0300
0300
0300
0300
0300
ENDCHAR
STARTCHAR 00DE
ENCODING 222
SWIDTH 625 0
DWIDTH 15 0
BBX 11 17 2 -1
BITMAP
C000
C000
C000
FF00
FFC0
C0C0
C060
C060
C060
C060
C1C0
FFC0
FF00
C000
C000
C000
C000
ENDCHAR
STARTCHAR 00DF
ENCODING 223
SWIDTH 583 0
DWIDTH 14 0
BBX 10 17 2 0
BITMAP
1F00
7F80
6380
C180
C180
C180
C300
CE00
CF00
C180
C0C0
C0C0
C0C0
C0C0
C1C0
DF80
DF00
ENDCHAR
STARTCHAR 00E0
ENCODING 224
SWIDTH 541 0
DWIDTH 13 0
BBX 10 17 1 1
BITMAP
1800
0C00
0400
0000
0000
1F00
7F80
61C0
00C0
00C0
3FC0
70C0
C0C0
C0C0
E3C0
7FC0
3E40
ENDCHAR
STARTCHAR 00E1
ENCODING 225
SWIDTH 541 0
DWIDTH 13 0
BBX 10 17 1 1
BITMAP
0300
0600
0400
0000
0000
1F00
7F80
61C0
00C0
00C0
3FC0
70C0
C0C0
C0C0
E3C0
7FC0
3E40
ENDCHAR
STARTCHAR 00E2
ENCODING 226
SWIDTH 541 0
DWIDTH 13 0
BBX 10 17 1 1
BITMAP
0E00
1B00
1100
0000
0000
1F00
7F80
61C0
00C0
00C0
3FC0
70C0
C0C0
C0C0
E3C0
7FC0
3E40
ENDCHAR
STARTCHAR 00E3
ENCODING 227
SWIDTH 541 0
DWIDTH 13 0
BBX 10 17 1 0
BITMAP
3800
2480
2380
0000
0000
1F00
7F80
61C0
00C0
00C0
3FC0
70C0
C0C0
C0C0
E3C0
7FC0
3E40
ENDCHAR
STARTCHAR 00E4
ENCODING 228
SWIDTH 541 0
DWIDTH 13 0
BBX 10 17 1 0
BITMAP
3180
3180
3180
0000
0000
1F00
7F80
61C0
00C0
00C0
3FC0
70C0
C0C0
C0C0
E3C0
7FC0
3E40
ENDCHAR
STARTCHAR 00E5
ENCODING 229
SWIDTH 541 0
DWIDTH 13 0
BBX 10 17 1 0
BITMAP
0600
0900
0E00
0000
0000
1F00
7F80
61C0
00C0
00C0
3FC0
70C0
C0C0
C0C0
E3C0
7FC0
3E40
ENDCHAR
STARTCHAR 00E6
ENCODING 230
SWIDTH 875 0
DWIDTH 21 0
BBX 19 12 1 0
BITMAP
1F1F00
7FFFC0
20E0C0
00C060
1FFFE0
7FFFE0
E0C000
C0C000
C0E000
E1F0E0
7F3FC0
3E0F80
ENDCHAR
STARTCHAR 00E7
ENCODING 231
SWIDTH 541 0
DWIDTH 13 0
BBX 11 18 1 -6
BITMAP
1F80
3FC0
70E0
E000
C000
C000
C000
C000
C000
6060
30C0
1F80
0600
0700
0380
0180
0F80
0C00
ENDCHAR
STARTCHAR 00E8
ENCODING 232
SWIDTH 583 0
DWIDTH 14 0
BBX 11 17 1 1
BITMAP
1C00
0C00
0600
0000
0000
1F00
3FC0
70E0
E060
FFE0
FFE0
C000
E000
E000
7060
3FC0
0F80
ENDCHAR
STARTCHAR 00E9
ENCODING 233
SWIDTH 583 0
DWIDTH 14 0
BBX 11 17 1 1
BITMAP
0300
0600
0600
0000
0000
1F00
3FC0
70E0
E060
FFE0
FFE0
C000
E000
E000
7060
3FC0
0F80
ENDCHAR
STARTCHAR 00EA
ENCODING 234
SWIDTH 583 0
DWIDTH 14 0
BBX 11 17 1 1
BITMAP
0E00
0F00
1980
0000
0000
1F00
3FC0
70E0
E060
FFE0
FFE0
C000
E000
E000
7060
3FC0
0F80
ENDCHAR
STARTCHAR 00EB
ENCODING 235
SWIDTH 583 0
DWIDTH 14 0
BBX 11 17 1 0
BITMAP
3980
3980
3980
0000
0000
1F00
3FC0
70E0
E060
FFE0
FFE0
C000
E000
E000
7060
3FC0
0F80
ENDCHAR
STARTCHAR 00EC
ENCODING 236
SWIDTH 250 0
DWIDTH 6 0
BBX 3 17 1 1
BITMAP
C0
C0
60
00
00
60
60
60
60
60
60
60
60
60
60
60
60
ENDCHAR
STARTCHAR 00ED
ENCODING 237
SWIDTH 250 0
DWIDTH 6 0
BBX 3 17 2 1
BITMAP
60
60
C0
00
00
C0
C0
C0
C0
C0
C0
C0
C0
C0
C0
C0
C0
ENDCHAR
STARTCHAR 00EE
ENCODING 238
SWIDTH 250 0
DWIDTH 6 0
BBX 6 17 0 1
BITMAP
30
78
CC
00
00
30
30
30
30
30
30
30
30
30
30
30
30
ENDCHAR
STARTCHAR 00EF
ENCODING 239
SWIDTH 250 0
DWIDTH 6 0
BBX 6 17 0 0
BITMAP
CC
CC
CC
00
00
30
30
30
30
30
30
30
30
30
30
30
30
ENDCHAR
STARTCHAR 00F0
ENCODING 240
SWIDTH 625 0
DWIDTH 15 0
BBX 12 18 1 0
BITMAP
1800
1FC0
0F00
3980
20C0
0060
1F60
30E0
6070
C030
C030
C030
C030
C030
E060
70E0
3FC0
1F00
ENDCHAR
STARTCHAR 00F1
ENCODING 241
SWIDTH 625 0
DWIDTH 15 0
BBX 10 17 2 0
BITMAP
3800
2C80
0300
0000
0000
CF00
FF80
F1C0
E0C0
C0C0
C0C0
C0C0
C0C0
C0C0
C0C0
C0C0
C0C0
ENDCHAR
STARTCHAR 00F2
ENCODING 242
SWIDTH 625 0
DWIDTH 15 0
BBX 12 17 1 1
BITMAP
0C00
0600
0200
0000
0000
0F80
3FC0
7060
E030
C030
C030
C030
C030
E070
70E0
3FC0
1F80
ENDCHAR
STARTCHAR 00F3
ENCODING 243
SWIDTH 625 0
DWIDTH 15 0
BBX 12 17 1 1
BITMAP
0380
0300
0600
0000
0000
0F80
3FC0
7060
E030
C030
C030
C030
C030
E070
70E0
3FC0
1F80
ENDCHAR
STARTCHAR 00F4
ENCODING 244
SWIDTH 625 0
DWIDTH 15 0
BBX 12 17 1 1
BITMAP
0700
0D00
1980
0000
0000
0F80
3FC0
7060
E030
C030
C030
C030
C030
E070
70E0
3FC0
1F80
ENDCHAR
STARTCHAR 00F5
ENCODING 245
SWIDTH 625 0
DWIDTH 15 0
BBX 12 17 1 0
BITMAP
1C40
1240
0180
0000
0000
0F80
3FC0
7060
E030
C030
C030
C030
C030
E070
70E0
3FC0
1F80
ENDCHAR
STARTCHAR 00F6
ENCODING 246
SWIDTH 625 0
DWIDTH 15 0
BBX 12 17 1 0
BITMAP
18C0
18C0
18C0
0000
0000
0F80
3FC0
7060
E030
C030
C030
C030
C030
E070
70E0
3FC0
1F80
ENDCHAR
STARTCHAR 00F7
ENCODING 247
SWIDTH 666 0
DWIDTH 16 0
BBX 13 11 2 2
BITMAP
0700
0700
0700
0000
0000
FFF8
0000
0000
0700
0700
0700
ENDCHAR
STARTCHAR 00F8
ENCODING 248
SWIDTH 625 0
DWIDTH 15 0
BBX 12 13 1 0
BITMAP
0020
0FB0
3FE0
70E0
61B0
C130
C230
C630
CC30
F870
70E0
3FC0
5F80
ENDCHAR
STARTCHAR 00F9
ENCODING 249
SWIDTH 625 0
DWIDTH 15 0
BBX 10 17 2 1
BITMAP
1800
0800
0C00
0000
0000
C0C0
C0C0
C0C0
C0C0
C0C0
C0C0
C0C0
C0C0
C1C0
E3C0
7FC0
3CC0
ENDCHAR
STARTCHAR 00FA
ENCODING 250
SWIDTH 625 0
DWIDTH 15 0
BBX 10 17 2 1
BITMAP
0600
0600
0C00
0000
0000
C0C0
C0C0
C0C0
C0C0
C0C0
C0C0
C0C0
C0C0
C1C0
E3C0
7FC0
3CC0
ENDCHAR
STARTCHAR 00FB
ENCODING 251
SWIDTH 625 0
DWIDTH 15 0
BBX 10 17 2 1
BITMAP
0C00
1E00
3300
0000
0000
C0C0
C0C0
C0C0
C0C0
C0C0
C0C0
C0C0
C0C0
C1C0
E3C0
7FC0
3CC0
ENDCHAR
STARTCHAR 00FC
ENCODING 252
SWIDTH 625 0
DWIDTH 15 0
BBX 10 17 2 0
BITMAP
3300
3300
3300
0000
0000
C0C0
C0C0
C0C0
C0C0
C0C0
C0C0
C0C0
C0C0
C1C0
E3C0
7FC0
3CC0
ENDCHAR
STARTCHAR 00FD
ENCODING 253
SWIDTH 500 0
DWIDTH 12 0
BBX 12 22 0 -4
BITMAP
0300
0200
0600
0000
0000
E070
6060
6060
30C0
30C0
1980
1980
1980
0F00
0F00
0600
0600
0600
0C00
1C00
7800
3000
ENDCHAR
STARTCHAR 00FE
ENCODING 254
SWIDTH 625 0
DWIDTH 15 0
BBX 12 23 2 -5
BITMAP
C000
C000
C000
C000
C000
C000
CF80
DFC0
F0E0
E070
C030
C030
C030
C030
E070
F0E0
FFC0
CF80
C000
C000
C000
C000
C000
ENDCHAR
STARTCHAR 00FF
ENCODING 255
SWIDTH 500 0
DWIDTH 12 0
BBX 12 22 0 -5
BITMAP
3980
3980
3980
0000
0000
E070
6060
6060
30C0
30C0
1980
1980
1980
0F00
0F00
0600
0600
0600
0C00
1C00
7800
3000
ENDCHAR
STARTCHAR 0100
ENCODING 256
SWIDTH 625 0
DWIDTH 15 0
BBX 15 21 0 0
BITMAP
0FE0
0000
0000
0180
0380
0380
06C0
06C0
06E0
0C60
0C60
0C30
1830
1830
3FF8
3FF8
301C
700C
600C
600E
C006
ENDCHAR
STARTCHAR 0101
ENCODING 257
SWIDTH 541 0
DWIDTH 13 0
BBX 10 16 1 0
BITMAP
3F80
0000
0000
0000
1F00
7F80
61C0
00C0
00C0
3FC0
70C0
C0C0
C0C0
E3C0
7FC0
3E40
ENDCHAR
STARTCHAR 0102
ENCODING 258
SWIDTH 625 0
DWIDTH 15 0
BBX 15 21 0 1
BITMAP
0C60
07C0
0000
0000
0380
0380
02C0
06C0
06C0
0C60
0C60
0C70
1830
1830
3FF8
3FF8
3018
700C
600C
600E
C006
ENDCHAR
STARTCHAR 0103
ENCODING 259
SWIDTH 541 0
DWIDTH 13 0
BBX 10 17 1 0
BITMAP
2080
1180
1F00
0000
0000
1F00
7F80
61C0
00C0
00C0
3FC0
70C0
C0C0
C0C0
E3C0
7FC0
3E40
ENDCHAR
STARTCHAR 0104
ENCODING 260
SWIDTH 625 0
DWIDTH 15 0
BBX 16 23 0 -5
BITMAP
0380
0380
02C0
06C0
06C0
0C60
0C60
0C70
1830
1830
3FF8
3FF8
3018
700C
600C
600E
C006
000C
0018
0030
0030
003F
001E
ENDCHAR
STARTCHAR 0105
ENCODING 261
SWIDTH 541 0
DWIDTH 13 0
BBX 11 18 1 -6
BITMAP
1F00
7F80
61C0
00C0
00C0
3FC0
70C0
C0C0
C0C0
E3C0
7FC0
3E40
00C0
0180
0300
0300
03E0
01C0
ENDCHAR
STARTCHAR 0106
ENCODING 262
SWIDTH 708 0
DWIDTH 17 0
BBX 15 22 1 0
BITMAP
0060
00C0
00C0
0180
0000
07F0
1FFC
3C1E
7004
6000
E000
C000
C000
C000
C000
C000
E000
6004
700E
3C1C
1FF8
07E0
ENDCHAR
STARTCHAR 0107
ENCODING 263
SWIDTH 541 0
DWIDTH 13 0
BBX 11 17 1 1
BITMAP
0300
0300
0600
0000
0000
1F80
3FC0
70E0
E000
C000
C000
C000
C000
E000
70E0
3FC0
1F80
ENDCHAR
STARTCHAR 0108
ENCODING 264
SWIDTH 708 0
DWIDTH 17 0
BBX 15 21 1 1
BITMAP
01C0
0360
0220
0000
07F0
1FFC
3C1E
7004
6000
E000
C000
C000
C000
C000
C000
E000
6004
700E
3C1C
1FF8
07E0
ENDCHAR
STARTCHAR 0109
ENCODING 265
SWIDTH 541 0
DWIDTH 13 0
BBX 11 17 1 1
BITMAP
0700
0F00
1980
0000
0000
1F80
3FC0
70E0
E000
C000
C000
C000
C000
E000
70E0
3FC0
1F80
ENDCHAR
STARTCHAR 010C
ENCODING 268
SWIDTH 708 0
DWIDTH 17 0
BBX 15 21 1 1
BITMAP
0320
0160
01C0
0000
07F0
1FFC
3C1E
7004
6000
E000
C000
C000
C000
C000
C000
E000
6004
700E
3C1C
1FF8
07E0
ENDCHAR
STARTCHAR 010D
ENCODING 269
SWIDTH 541 0
DWIDTH 13 0
BBX 11 17 1 1
BITMAP
1980
0F00
0700
0000
0000
1F80
3FC0
70E0
E000
C000
C000
C000
C000
E000
70E0
3FC0
1F80
ENDCHAR
STARTCHAR 010E
ENCODING 270
SWIDTH 750 0
DWIDTH 18 0
BBX 14 21 2 1
BITMAP
1980
0F00
0600
0000
FF80
FFE0
C0F0
C038
C018
C01C
C00C
C00C
C00C
C00C
C00C
C01C
C018
C038
C0F0
FFE0
FF80
ENDCHAR
STARTCHAR 010F
ENCODING 271
SWIDTH 625 0
DWIDTH 15 0
BBX 16 18 1 0
BITMAP
0033
0033
0032
0036
0034
0030
1F30
3FF0
7070
E030
C030
C030
C030
C030
E070
70F0
3FF0
1F30
ENDCHAR
STARTCHAR 0111
ENCODING 273
SWIDTH 625 0
DWIDTH 15 0
BBX 13 18 1 1
BITMAP
0030
0030
03F8
0030
0030
0030
1F30
3FF0
7070
E030
C030
C030
C030
C030
E070
70F0
3FF0
1F30
ENDCHAR
STARTCHAR 0112
ENCODING 274
SWIDTH 583 0
DWIDTH 14 0
BBX 11 21 2 0
BITMAP
3F00
0000
0000
0000
FFE0
FFE0
C000
C000
C000
C000
C000
FFC0
FFC0
C000
C000
C000
C000
C000
C000
FFE0
FFE0
ENDCHAR
STARTCHAR 0113
ENCODING 275
SWIDTH 583 0
DWIDTH 14 0
BBX 11 16 1 0
BITMAP
1F80
0000
0000
0000
1F00
3FC0
70E0
E060
FFE0
FFE0
C000
E000
E000
7060
3FC0
0F80
ENDCHAR
STARTCHAR 0118
ENCODING 280
SWIDTH 583 0
DWIDTH 14 0
BBX 11 23 2 -6
BITMAP
FFE0
FFE0
C000
C000
C000
C000
C000
FFC0
FFC0
C000
C000
C000
C000
C000
C000
FFE0
FFE0
0C00
1800
3000
3000
3E00
1C00
ENDCHAR
STARTCHAR 0119
ENCODING 281
SWIDTH 583 0
DWIDTH 14 0
BBX 11 17 1 -5
BITMAP
1F00
3FC0
70E0
E060
FFE0
FFE0
C000
E000
E000
7060
3FC0
1F80
0600
0800
1800
1F00
0F00
ENDCHAR
STARTCHAR 011A
ENCODING 282
SWIDTH 583 0
DWIDTH 14 0
BBX 11 21 2 1
BITMAP
1900
0A00
0E00
0000
FFE0
FFE0
C000
C000
C000
C000
C000
FFC0
FFC0
C000
C000
C000
C000
C000
C000
FFE0
FFE0
ENDCHAR
STARTCHAR 011B
ENCODING 283
SWIDTH 583 0
DWIDTH 14 0
BBX 11 17 1 1
BITMAP
1980
0F00
0600
0000
0000
1F00
3FC0
70E0
E060
FFE0
FFE0
C000
E000
E000
7060
3FC0
0F80
ENDCHAR
STARTCHAR 011C
ENCODING 284
SWIDTH 750 0
DWIDTH 18 0
BBX 15 21 1 1
BITMAP
03C0
02C0
0660
0000
07E0
1FF8
381C
700C
6000
E000
C000
C000
C07E
C07E
C006
E006
6006
7006
3C1E
1FF8
07E0
ENDCHAR
STARTCHAR 011D
ENCODING 285
SWIDTH 541 0
DWIDTH 13 0
BBX 11 22 1 -4
BITMAP
0E00
0B00
1180
0000
0060
1FE0
3F80
61C0
60C0
60C0
60C0
3180
3F00
6000
6000
3F80
3FC0
E0E0
C060
C060
60C0
3F00
ENDCHAR
STARTCHAR 0124
ENCODING 292
SWIDTH 750 0
DWIDTH 18 0
BBX 14 22 2 -1
BITMAP
0300
0780
0CC0
0840
0000
C00C
C00C
C00C
C00C
C00C
C00C
C00C
FFFC
FFFC
C00C
C00C
C00C
C00C
C00C
C00C
C00C
C00C
ENDCHAR
STARTCHAR 0125
ENCODING 293
SWIDTH 625 0
DWIDTH 15 0
BBX 13 22 0 0
BITMAP
3000
7800
4C00
8000
3000
3000
3000
3000
3000
3000
33E0
3FF0
3C38
3818
3018
3018
3018
3018
3018
3018
3018
3018
ENDCHAR
STARTCHAR 0127
ENCODING 295
SWIDTH 625 0
DWIDTH 15 0
BBX 12 18 1 1
BITMAP
6000
6000
FE00
6000
6000
6000
67C0
7FE0
7870
7030
6030
6030
6030
6030
6030
6030
6030
6030
ENDCHAR
STARTCHAR 012A
ENCODING 298
SWIDTH 291 0
DWIDTH 7 0
BBX 6 20 0 0
BITMAP
FC
00
00
30
30
30
30
30
30
30
30
30
30
30
30
30
30
30
30
30
ENDCHAR
STARTCHAR 012B
ENCODING 299
SWIDTH 250 0
DWIDTH 6 0
BBX 6 16 0 0
BITMAP
FC
00
00
00
30
30
30
30
30
30
30
30
30
30
30
30
ENDCHAR
STARTCHAR 0134
ENCODING 308
SWIDTH 375 0
DWIDTH 9 0
BBX 9 21 0 1
BITMAP
0F00
0900
1180
0000
0600
0600
0600
0600
0600
0600
0600
0600
0600
0600
0600
0600
0600
0600
0E00
FC00
F800
ENDCHAR
STARTCHAR 0135
ENCODING 309
SWIDTH 250 0
DWIDTH 6 0
BBX 7 22 -1 -6
BITMAP
18
3C
66
00
00
18
18
18
18
18
18
18
18
18
18
18
18
18
18
38
F0
E0
ENDCHAR
STARTCHAR 0139
ENCODING 313
SWIDTH 541 0
DWIDTH 13 0
BBX 10 22 2 0
BITMAP
1800
1800
3000
0000
C000
C000
C000
C000
C000
C000
C000
C000
C000
C000
C000
C000
C000
C000
C000
C000
FFC0
FFC0
ENDCHAR
STARTCHAR 013A
ENCODING 314
SWIDTH 250 0
DWIDTH 6 0
BBX 4 22 2 0
BITMAP
70
60
C0
00
C0
C0
C0
C0
C0
C0
C0
C0
C0
C0
C0
C0
C0
C0
C0
C0
C0
C0
ENDCHAR
STARTCHAR 013D
ENCODING 317
SWIDTH 541 0
DWIDTH 13 0
BBX 10 17 2 1
BITMAP
C300
C200
C600
C600
C400
C000
C000
C000
C000
C000
C000
C000
C000
C000
C000
FFC0
FFC0
ENDCHAR
STARTCHAR 013E
ENCODING 318
SWIDTH 291 0
DWIDTH 7 0
BBX 6 18 2 0
BITMAP
CC
D8
D8
D0
D0
C0
C0
C0
C0
C0
C0
C0
C0
C0
C0
C0
C0
C0
ENDCHAR
STARTCHAR 0141
ENCODING 321
SWIDTH 541 0
DWIDTH 13 0
BBX 12 17 0 1
BITMAP
3000
3000
3000
3000
3300
3700
3C00
3800
F000
B000
3000
3000
3000
3000
3000
3FF0
3FF0
ENDCHAR
STARTCHAR 0142
ENCODING 322
SWIDTH 250 0
DWIDTH 6 0
BBX 6 18 0 0
BITMAP
30
30
30
30
30
34
3C
30
70
F0
30
30
30
30
30
30
30
30
ENDCHAR
STARTCHAR 0143
ENCODING 323
SWIDTH 750 0
DWIDTH 18 0
BBX 14 22 2 -1
BITMAP
00C0
0180
0180
0300
0000
E00C
F00C
F80C
D80C
DC0C
CE0C
C60C
C70C
C38C
C18C
C0CC
C0EC
C06C
C03C
C03C
C01C
C00C
ENDCHAR
STARTCHAR 0144
ENCODING 324
SWIDTH 625 0
DWIDTH 15 0
BBX 10 17 2 1
BITMAP
0300
0600
0400
0000
0000
CF00
FF80
F1C0
E0C0
C0C0
C0C0
C0C0
C0C0
C0C0
C0C0
C0C0
C0C0
ENDCHAR
STARTCHAR 0147
ENCODING 327
SWIDTH 750 0
DWIDTH 18 0
BBX 14 21 2 0
BITMAP
0CC0
0780
0380
0000
E00C
F00C
F80C
D80C
DC0C
CE0C
C60C
C70C
C38C
C18C
C0CC
C0EC
C06C
C03C
C03C
C01C
C00C
ENDCHAR
STARTCHAR 0148
ENCODING 328
SWIDTH 625 0
DWIDTH 15 0
BBX 10 17 2 1
BITMAP
3300
1E00
0C00
0000
0000
CF00
FF80
F1C0
E0C0
C0C0
C0C0
C0C0
C0C0
C0C0
C0C0
C0C0
C0C0
ENDCHAR
STARTCHAR 014B
ENCODING 331
SWIDTH 625 0
DWIDTH 15 0
BBX 10 17 2 -6
BITMAP
CF00
FF80
F1C0
E0C0
C0C0
C0C0
C0C0
C0C0
C0C0
C0C0
C0C0
C0C0
00C0
00C0
01C0
0780
0700
ENDCHAR
STARTCHAR 014C
ENCODING 332
SWIDTH 791 0
DWIDTH 19 0
BBX 17 21 1 0
BITMAP
07F000
000000
000000
000000
07F000
1FFC00
3C1E00
700700
600300
E00380
C00180
C00180
C00180
C00180
C00180
E00380
600300
700700
3C1E00
1FFC00
07F000
ENDCHAR
STARTCHAR 014D
ENCODING 333
SWIDTH 625 0
DWIDTH 15 0
BBX 12 16 1 0
BITMAP
1F80
0000
0000
0000
0F80
3FC0
70E0
E070
C030
C030
C030
C030
E070
70E0
3FC0
1F80
ENDCHAR
STARTCHAR 0150
ENCODING 336
SWIDTH 791 0
DWIDTH 19 0
BBX 17 21 1 1
BITMAP
019800
01B000
032000
000000
07F000
1FFC00
3C1E00
700700
600300
E00380
C00180
C00180
C00180
C00180
C00180
E00380
600300
700700
3C1E00
1FFC00
07F000
ENDCHAR
STARTCHAR 0151
ENCODING 337
SWIDTH 625 0
DWIDTH 15 0
BBX 12 17 1 1
BITMAP
06C0
0C80
0D80
0000
0000
0F80
3FC0
70E0
E070
C030
C030
C030
C030
E070
70E0
3FC0
1F80
ENDCHAR
STARTCHAR 0152
ENCODING 338
SWIDTH 1000 0
DWIDTH 24 0
BBX 22 17 1 0
BITMAP
07FFF8
1FFFF8
3C1800
701800
601800
E01800
C01800
C01FF0
C01FF0
C01800
C01800
E01800
601800
701800
3C1800
1FFFFC
07FFFC
ENDCHAR
STARTCHAR 0153
ENCODING 339
SWIDTH 958 0
DWIDTH 23 0
BBX 21 12 1 0
BITMAP
0F87C0
3FFFE0
70F830
E07018
C03FF8
C03FF8
C03000
C03000
E07800
70FC38
3FCFF0
1F87C0
ENDCHAR
STARTCHAR 0154
ENCODING 340
SWIDTH 666 0
DWIDTH 16 0
BBX 13 22 2 0
BITMAP
0700
0600
0400
0C00
0000
FF00
FFC0
C0C0
C060
C060
C060
C060
C1C0
FF80
FF00
C380
C1C0
C0C0
C060
C070
C030
C038
ENDCHAR
STARTCHAR 0155
ENCODING 341
SWIDTH 375 0
DWIDTH 9 0
BBX 6 17 2 1
BITMAP
18
18
30
00
00
CC
DC
F0
E0
C0
C0
C0
C0
C0
C0
C0
C0
ENDCHAR
STARTCHAR 0158
ENCODING 344
SWIDTH 666 0
DWIDTH 16 0
BBX 13 21 2 1
BITMAP
1300
1E00
0E00
0000
FF00
FFC0
C0C0
C060
C060
C060
C060
C1C0
FF80
FF00
C380
C1C0
C0C0
C060
C070
C030
C038
ENDCHAR
STARTCHAR 0159
ENCODING 345
SWIDTH 375 0
DWIDTH 9 0
BBX 6 17 2 1
BITMAP
88
58
70
00
00
CC
DC
F0
E0
C0
C0
C0
C0
C0
C0
C0
C0
ENDCHAR
STARTCHAR 015A
ENCODING 346
SWIDTH 583 0
DWIDTH 14 0
BBX 12 22 1 0
BITMAP
0180
0300
0300
0600
0000
0F80
3FE0
70F0
6000
6000
6000
3000
1E00
0F80
01C0
0060
0030
0030
4030
F070
7FE0
1F80
ENDCHAR
STARTCHAR 015B
ENCODING 347
SWIDTH 458 0
DWIDTH 11 0
BBX 9 17 1 1
BITMAP
0600
0C00
0C00
0000
0000
3E00
7F80
C100
C000
E000
3800
0700
0180
0180
4180
FF00
3E00
ENDCHAR
STARTCHAR 015C
ENCODING 348
SWIDTH 583 0
DWIDTH 14 0
BBX 12 21 1 1
BITMAP
0700
0D00
1880
0000
0F80
3FE0
70F0
6000
6000
6000
3000
1E00
0F80
01C0
0060
0030
0030
4030
F070
7FE0
1F80
ENDCHAR
STARTCHAR 015D
ENCODING 349
SWIDTH 458 0
DWIDTH 11 0
BBX 9 17 1 1
BITMAP
1C00
1600
3300
0000
0000
3E00
7F80
C100
C000
E000
3800
0700
0180
0180
4180
FF00
3E00
ENDCHAR
STARTCHAR 015E
ENCODING 350
SWIDTH 583 0
DWIDTH 14 0
BBX 12 23 1 -7
BITMAP
0F80
3FE0
70F0
6000
6000
6000
3000
1E00
0F80
01C0
0060
0030
0030
4030
F070
7FE0
1F80
0000
0600
0600
0400
0C00
0C00
ENDCHAR
STARTCHAR 015F
ENCODING 351
SWIDTH 458 0
DWIDTH 11 0
BBX 9 18 1 -7
BITMAP
3E00
7F80
C100
C000
E000
3800
0700
0180
0180
4180
FF00
3E00
0000
1800
1800
1000
3000
2000
ENDCHAR
STARTCHAR 0160
ENCODING 352
SWIDTH 583 0
DWIDTH 14 0
BBX 12 21 1 1
BITMAP
1980
0F00
0600
0000
0F80
3FE0
70F0
6000
6000
6000
3000
1E00
0F80
01C0
0060
0030
0030
4030
F070
7FE0
1F80
ENDCHAR
STARTCHAR 0161
ENCODING 353
SWIDTH 458 0
DWIDTH 11 0
BBX 9 17 1 1
BITMAP
2200
3600
1C00
0000
0000
3E00
7F80
C100
C000
E000
3800
0700
0180
0180
4180
FF00
3E00
ENDCHAR
STARTCHAR 0162
ENCODING 354
SWIDTH 583 0
DWIDTH 14 0
BBX 14 23 0 -7
BITMAP
FFFC
FFFC
0300
0300
0300
0300
0300
0300
0300
0300
0300
0300
0300
0300
0300
0300
0300
0000
0000
0300
0200
0600
0600
ENDCHAR
STARTCHAR 0163
ENCODING 355
SWIDTH 333 0
DWIDTH 8 0
BBX 7 21 0 -6
BITMAP
30
30
30
FE
FE
30
30
30
30
30
30
30
30
3E
1E
00
18
18
18
10
30
ENDCHAR
STARTCHAR 0164
ENCODING 356
SWIDTH 583 0
DWIDTH 14 0
BBX 14 21 0 0
BITMAP
0CC0
0780
0300
0000
FFFC
FFFC
0300
0300
0300
0300
0300
0300
0300
0300
0300
0300
0300
0300
0300
0300
0300
ENDCHAR
STARTCHAR 0165
ENCODING 357
SWIDTH 333 0
DWIDTH 8 0
BBX 9 18 0 1
BITMAP
0180
0100
0300
3300
3200
3000
FE00
FE00
3000
3000
3000
3000
3000
3000
3000
3000
3E00
1E00
ENDCHAR
STARTCHAR 016A
ENCODING 362
SWIDTH 750 0
DWIDTH 18 0
BBX 14 21 2 0
BITMAP
0FC0
0000
0000
C00C
C00C
C00C
C00C
C00C
C00C
C00C
C00C
C00C
C00C
C00C
C00C
C00C
C00C
E01C
7038
3FF0
0FC0
ENDCHAR
STARTCHAR 016B
ENCODING 363
SWIDTH 625 0
DWIDTH 15 0
BBX 10 16 2 0
BITMAP
3F00
0000
0000
0000
C0C0
C0C0
C0C0
C0C0
C0C0
C0C0
C0C0
C0C0
C1C0
E3C0
7FC0
3CC0
ENDCHAR
STARTCHAR 016C
ENCODING 364
SWIDTH 750 0
DWIDTH 18 0
BBX 14 21 2 1
BITMAP
0840
0CC0
0780
0000
C00C
C00C
C00C
C00C
C00C
C00C
C00C
C00C
C00C
C00C
C00C
C00C
C00C
E01C
7038
3FF0
0FC0
ENDCHAR
STARTCHAR 016D
ENCODING 365
SWIDTH 625 0
DWIDTH 15 0
BBX 10 17 2 0
BITMAP
2100
3300
1E00
0000
0000
C0C0
C0C0
C0C0
C0C0
C0C0
C0C0
C0C0
C0C0
C1C0
E3C0
7FC0
3CC0
ENDCHAR
STARTCHAR 016E
ENCODING 366
SWIDTH 750 0
DWIDTH 18 0
BBX 14 22 2 0
BITMAP
0300
0480
0480
0300
0000
C00C
C00C
C00C
C00C
C00C
C00C
C00C
C00C
C00C
C00C
C00C
C00C
C00C
E01C
7038
3FF0
0FC0
ENDCHAR
STARTCHAR 016F
ENCODING 367
SWIDTH 625 0
DWIDTH 15 0
BBX 10 17 2 0
BITMAP
0C00
1200
1200
0C00
0000
C0C0
C0C0
C0C0
C0C0
C0C0
C0C0
C0C0
C0C0
C1C0
E3C0
7FC0
3CC0
ENDCHAR
STARTCHAR 0170
ENCODING 368
SWIDTH 750 0
DWIDTH 18 0
BBX 14 21 2 1
BITMAP
0260
06C0
04C0
0000
C00C
C00C
C00C
C00C
C00C
C00C
C00C
C00C
C00C
C00C
C00C
C00C
C00C
E01C
7038
3FF0
0FC0
ENDCHAR
STARTCHAR 0171
ENCODING 369
SWIDTH 625 0
DWIDTH 15 0
BBX 10 17 2 1
BITMAP
0D80
0980
1B00
0000
0000
C0C0
C0C0
C0C0
C0C0
C0C0
C0C0
C0C0
C0C0
C1C0
E3C0
7FC0
3CC0
ENDCHAR
STARTCHAR 0179
ENCODING 377
SWIDTH 625 0
DWIDTH 15 0
BBX 14 22 1 0
BITMAP
0180
0180
0300
0200
0000
7FF8
7FF8
0030
0070
00E0
00C0
0180
0380
0700
0E00
0C00
1800
3800
7000
E000
FFFC
FFFC
ENDCHAR
STARTCHAR 017A
ENCODING 378
SWIDTH 458 0
DWIDTH 11 0
BBX 9 17 1 1
BITMAP
0600
0C00
0800
0000
0000
FF80
FF80
0300
0300
0600
0C00
1800
3000
7000
6000
FF80
FF80
ENDCHAR
STARTCHAR 017B
ENCODING 379
SWIDTH 625 0
DWIDTH 15 0
BBX 14 21 0 0
BITMAP
0300
0300
0000
0000
7FF8
7FF8
0038
0070
0060
00C0
01C0
0380
0300
0600
0E00
1C00
1800
3000
7000
FFFC
FFFC
ENDCHAR
STARTCHAR 017C
ENCODING 380
SWIDTH 458 0
DWIDTH 11 0
BBX 9 17 1 0
BITMAP
0C00
0C00
0000
0000
0000
7F80
7F80
0300
0300
0600
0C00
1800
3800
3000
6000
FF80
FF80
ENDCHAR
STARTCHAR 017D
ENCODING 381
SWIDTH 625 0
DWIDTH 15 0
BBX 14 21 1 1
BITMAP
0C80
0780
0700
0000
7FF8
7FF8
0030
0070
00E0
00C0
0180
0380
0700
0E00
0C00
1800
3800
7000
E000
FFFC
FFFC
ENDCHAR
STARTCHAR 017E
ENCODING 382
SWIDTH 458 0
DWIDTH 11 0
BBX 9 17 1 1
BITMAP
3300
1E00
1C00
0000
0000
FF80
FF80
0380
0300
0600
0C00
1800
3000
7000
6000
FF80
FF80
ENDCHAR
STARTCHAR 0193
ENCODING 403
SWIDTH 750 0
DWIDTH 18 0
BBX 18 19 1 0
BITMAP
0007C0
000780
07E600
1FFE00
381E00
700E00
600000
E00000
C00000
C00000
C07E00
C07E00
C00600
E00600
600600
700600
3C1E00
1FF800
07E000
ENDCHAR
STARTCHAR 01C2
ENCODING 450
SWIDTH 500 0
DWIDTH 12 0
BBX 9 16 1 1
BITMAP
0800
0800
0800
0800
0800
FF80
0800
0800
0800
FF80
0800
0800
0800
0800
0800
0800
ENDCHAR
STARTCHAR 01CD
ENCODING 461
SWIDTH 625 0
DWIDTH 15 0
BBX 15 22 0 0
BITMAP
0460
06C0
0380
0180
0100
0380
0380
02C0
06C0
06C0
0C60
0C60
0C70
1830
1830
3FF8
3FF8
3018
700C
600C
600E
C006
ENDCHAR
STARTCHAR 01CE
ENCODING 462
SWIDTH 541 0
DWIDTH 13 0
BBX 10 17 1 1
BITMAP
1100
0B00
0E00
0000
0000
1F00
7F80
61C0
00C0
00C0
3FC0
70C0
C0C0
C0C0
E1C0
7FC0
3E40
ENDCHAR
STARTCHAR 01D0
ENCODING 464
SWIDTH 250 0
DWIDTH 6 0
BBX 6 17 0 1
BITMAP
CC
78
30
00
00
30
30
30
30
30
30
30
30
30
30
30
30
ENDCHAR
STARTCHAR 01D1
ENCODING 465
SWIDTH 791 0
DWIDTH 19 0
BBX 17 21 1 1
BITMAP
022000
014000
01C000
000000
07F000
1FFC00
3C1E00
700700
600300
E00380
C00180
C00180
C00180
C00180
C00180
E00380
600300
700700
3C1E00
1FFC00
07F000
ENDCHAR
STARTCHAR 01D2
ENCODING 466
SWIDTH 625 0
DWIDTH 15 0
BBX 12 17 1 1
BITMAP
1980
0F00
0700
0000
0000
1F80
3FC0
70E0
E070
C030
C030
C030
C030
E070
70E0
3FC0
1F80
ENDCHAR
STARTCHAR 01D4
ENCODING 468
SWIDTH 625 0
DWIDTH 15 0
BBX 10 17 2 1
BITMAP
3300
1E00
0C00
0000
0000
C0C0
C0C0
C0C0
C0C0
C0C0
C0C0
C0C0
C0C0
C1C0
E3C0
7FC0
3CC0
ENDCHAR
STARTCHAR 01D6
ENCODING 470
SWIDTH 625 0
DWIDTH 15 0
BBX 10 20 2 0
BITMAP
3F00
0000
0000
3300
3300
0000
0000
0000
C0C0
C0C0
C0C0
C0C0
C0C0
C0C0
C0C0
C0C0
C1C0
E3C0
7EC0
3CC0
ENDCHAR
STARTCHAR 01D8
ENCODING 472
SWIDTH 625 0
DWIDTH 15 0
BBX 10 21 2 0
BITMAP
0700
0600
0C00
0000
3300
3300
3300
0000
0000
C0C0
C0C0
C0C0
C0C0
C0C0
C0C0
C0C0
C0C0
C1C0
E3C0
7FC0
3CC0
ENDCHAR
STARTCHAR 01DA
ENCODING 474
SWIDTH 625 0
DWIDTH 15 0
BBX 10 21 2 0
BITMAP
2100
1200
1E00
0000
3300
3300
3300
0000
0000
C0C0
C0C0
C0C0
C0C0
C0C0
C0C0
C0C0
C0C0
C1C0
E3C0
7FC0
3CC0
ENDCHAR
STARTCHAR 01DC
ENCODING 476
SWIDTH 625 0
DWIDTH 15 0
BBX 10 21 2 0
BITMAP
3800
1800
0C00
0000
3300
3300
3300
0000
0000
C0C0
C0C0
C0C0
C0C0
C0C0
C0C0
C0C0
C0C0
C1C0
E3C0
7FC0
3CC0
ENDCHAR
STARTCHAR 01F8
ENCODING 504
SWIDTH 750 0
DWIDTH 18 0
BBX 14 22 2 -1
BITMAP
0E00
0600
0300
0300
0000
E00C
F00C
F80C
D80C
DC0C
CE0C
C60C
C70C
C38C
C18C
C0CC
C0EC
C06C
C03C
C03C
C01C
C00C
ENDCHAR
STARTCHAR 01F9
ENCODING 505
SWIDTH 625 0
DWIDTH 15 0
BBX 10 17 2 1
BITMAP
3000
1800
0C00
0000
0000
CF00
FF80
F1C0
E0C0
C0C0
C0C0
C0C0
C0C0
C0C0
C0C0
C0C0
C0C0
ENDCHAR
STARTCHAR 01FD
ENCODING 509
SWIDTH 875 0
DWIDTH 21 0
BBX 19 17 1 1
BITMAP
003000
003000
006000
000000
000000
1F1F00
7FFFC0
20E0C0
00C060
1FFFE0
7FFFE0
E0C000
C0C000
C0E000
E1F0E0
7F3FC0
3E0F80
ENDCHAR
STARTCHAR 0250
ENCODING 592
SWIDTH 541 0
DWIDTH 13 0
BBX 10 12 2 0
BITMAP
9F00
FF80
E1C0
C0C0
C0C0
C380
FF00
C000
C000
E180
7F80
3E00
ENDCHAR
STARTCHAR 0251
ENCODING 593
SWIDTH 625 0
DWIDTH 15 0
BBX 12 12 1 0
BITMAP
1FB0
3FF0
7070
E030
C030
C030
C030
C030
E070
70F0
3FF0
1F10
ENDCHAR
STARTCHAR 0252
ENCODING 594
SWIDTH 625 0
DWIDTH 15 0
BBX 12 12 2 0
BITMAP
8F80
FFC0
F0E0
E070
C030
C030
C030
C030
C070
E0E0
FFC0
DF80
ENDCHAR
STARTCHAR 0253
ENCODING 595
SWIDTH 625 0
DWIDTH 15 0
BBX 11 17 2 -1
BITMAP
1F00
7FC0
60C0
C000
C000
CF00
FF80
E1C0
C0E0
C060
C060
C060
C060
C0E0
E1C0
FF80
CF00
ENDCHAR
STARTCHAR 0254
ENCODING 596
SWIDTH 541 0
DWIDTH 13 0
BBX 11 12 1 0
BITMAP
1F00
7F80
E1C0
00E0
0060
0060
0060
0060
00E0
E1C0
7F80
3F00
ENDCHAR
STARTCHAR 0255
ENCODING 597
SWIDTH 541 0
DWIDTH 13 0
BBX 12 14 1 -3
BITMAP
1F80
3FC0
70E0
6000
C000
C000
C000
C1E0
C330
6630
3FF0
1FC0
0800
1800
ENDCHAR
STARTCHAR 0256
ENCODING 598
SWIDTH 625 0
DWIDTH 15 0
BBX 15 23 1 -5
BITMAP
0030
0030
0030
0030
0030
0030
1F30
3FF0
70F0
E030
C030
C030
C030
C030
E070
70F0
3FF0
1F30
0030
0030
0030
003E
001C
ENDCHAR
STARTCHAR 0257
ENCODING 599
SWIDTH 625 0
DWIDTH 15 0
BBX 15 18 1 0
BITMAP
001E
003E
0030
0030
0030
0030
1F30
3FF0
70F0
E070
C030
C030
C030
C030
E070
70F0
3FF0
1F30
ENDCHAR
STARTCHAR 0258
ENCODING 600
SWIDTH 583 0
DWIDTH 14 0
BBX 11 12 1 0
BITMAP
1F00
7F80
60C0
C060
FFE0
FFE0
0060
0060
00E0
E1C0
7F80
1F00
ENDCHAR
STARTCHAR 0259
ENCODING 601
SWIDTH 583 0
DWIDTH 14 0
BBX 11 12 1 0
BITMAP
1F00
7F80
60C0
0060
0060
FFE0
FFE0
C060
6060
60C0
3F80
1F00
ENDCHAR
STARTCHAR 025A
ENCODING 602
SWIDTH 833 0
DWIDTH 20 0
BBX 18 12 1 0
BITMAP
0F8000
3FC000
70EE00
607E00
C0F300
C1F3C0
0731C0
1C3000
383000
386000
1FC000
0F8000
ENDCHAR
STARTCHAR 025C
ENCODING 604
SWIDTH 500 0
DWIDTH 12 0
BBX 10 12 1 0
BITMAP
FE00
FF80
0180
0180
0780
3E00
0F80
00C0
00C0
01C0
FF80
FF00
ENDCHAR
STARTCHAR 025E
ENCODING 606
SWIDTH 583 0
DWIDTH 14 0
BBX 12 12 1 0
BITMAP
0F80
3FE0
7060
E060
C0E0
C780
C1E0
C030
E030
7070
3FE0
1FC0
ENDCHAR
STARTCHAR 025F
ENCODING 607
SWIDTH 250 0
DWIDTH 6 0
BBX 7 17 -1 -6
BITMAP
18
18
18
18
18
18
18
18
18
18
18
7E
18
18
38
F0
E0
ENDCHAR
STARTCHAR 0260
ENCODING 608
SWIDTH 625 0
DWIDTH 15 0
BBX 15 23 1 -5
BITMAP
001E
003E
0030
0030
0030
0030
1F30
3FF0
70F0
E030
C030
C030
C030
C030
E070
70F0
3FF0
1F30
0030
2030
7060
3FE0
1F80
ENDCHAR
STARTCHAR 0261
ENCODING 609
SWIDTH 625 0
DWIDTH 15 0
BBX 12 17 1 -4
BITMAP
1F30
3FF0
70F0
E070
C030
C030
C030
C030
E070
70F0
3FF0
1F30
0030
2030
7060
3FE0
1F80
ENDCHAR
STARTCHAR 0264
ENCODING 612
SWIDTH 583 0
DWIDTH 14 0
BBX 14 12 0 0
BITMAP
F03C
7878
1DE0
0780
0780
07C0
0CC0
0C60
0C60
0C60
0FC0
0780
ENDCHAR
STARTCHAR 0265
ENCODING 613
SWIDTH 625 0
DWIDTH 15 0
BBX 10 17 2 -5
BITMAP
C0C0
C0C0
C0C0
C0C0
C0C0
C0C0
C0C0
C0C0
C1C0
E3C0
7EC0
3CC0
00C0
00C0
00C0
00C0
00C0
ENDCHAR
STARTCHAR 0266
ENCODING 614
SWIDTH 625 0
DWIDTH 15 0
BBX 11 17 2 0
BITMAP
1F80
7FC0
60E0
C000
C000
CF80
FFC0
F0E0
E060
C060
C060
C060
C060
C060
C060
C060
C060
ENDCHAR
STARTCHAR 0267
ENCODING 615
SWIDTH 625 0
DWIDTH 15 0
BBX 11 22 2 -6
BITMAP
1F80
7FC0
60E0
C000
C000
CF80
FFC0
F0E0
E060
C060
C060
C060
C060
C060
C060
C060
C060
0060
0060
00E0
07C0
0700
ENDCHAR
STARTCHAR 0268
ENCODING 616
SWIDTH 291 0
DWIDTH 7 0
BBX 6 16 0 0
BITMAP
30
30
00
00
00
30
30
30
30
FC
30
30
30
30
30
30
ENDCHAR
STARTCHAR 026C
ENCODING 620
SWIDTH 333 0
DWIDTH 8 0
BBX 8 18 -1 0
BITMAP
06
06
06
06
06
7E
8E
86
76
3F
06
06
06
06
06
06
06
06
ENDCHAR
STARTCHAR 026D
ENCODING 621
SWIDTH 291 0
DWIDTH 7 0
BBX 5 23 2 -5
BITMAP
C0
C0
C0
C0
C0
C0
C0
C0
C0
C0
C0
C0
C0
C0
C0
C0
C0
C0
C0
C0
C8
F8
70
ENDCHAR
STARTCHAR 026E
ENCODING 622
SWIDTH 666 0
DWIDTH 16 0
BBX 12 23 2 -5
BITMAP
C000
C000
C000
C000
C000
C000
FFE0
FFE0
C0E0
C1C0
C380
C600
CF80
DFE0
C060
C030
C030
C030
0030
3030
3860
1FE0
0F80
ENDCHAR
STARTCHAR 026F
ENCODING 623
SWIDTH 875 0
DWIDTH 21 0
BBX 17 12 2 0
BITMAP
C18180
C18180
C18180
C18180
C18180
C18180
C18180
C18180
C18380
E3C780
7EFF80
3C7980
ENDCHAR
STARTCHAR 0270
ENCODING 624
SWIDTH 875 0
DWIDTH 21 0
BBX 17 17 2 -5
BITMAP
C18180
C18180
C18180
C18180
C18180
C18180
C18180
C18180
C18380
E3C780
7EFF80
3C7980
000180
000180
000180
000180
000180
ENDCHAR
STARTCHAR 0271
ENCODING 625
SWIDTH 875 0
DWIDTH 21 0
BBX 17 17 2 -6
BITMAP
DE1E00
FF7F00
E3E380
C18180
C18180
C18180
C18180
C18180
C18180
C18180
C18180
C18180
000180
000180
000380
001F00
000C00
ENDCHAR
STARTCHAR 0272
ENCODING 626
SWIDTH 625 0
DWIDTH 15 0
BBX 14 17 -1 -6
BITMAP
19F0
1FF8
1E1C
1C0C
180C
180C
180C
180C
180C
180C
180C
180C
1800
1800
3800
F000
E000
ENDCHAR
STARTCHAR 0273
ENCODING 627
SWIDTH 625 0
DWIDTH 15 0
BBX 13 17 2 -5
BITMAP
CF00
FF80
F1C0
E0C0
C0C0
C0C0
C0C0
C0C0
C0C0
C0C0
C0C0
C0C0
00C0
00C0
00C0
00F8
0078
ENDCHAR
STARTCHAR 0275
ENCODING 629
SWIDTH 625 0
DWIDTH 15 0
BBX 12 12 1 0
BITMAP
1F80
3FC0
70E0
E070
E030
FFF0
C030
E030
E070
70E0
3FC0
1F80
ENDCHAR
STARTCHAR 0279
ENCODING 633
SWIDTH 375 0
DWIDTH 9 0
BBX 6 12 1 -1
BITMAP
0C
0C
0C
0C
0C
0C
0C
0C
1C
3C
EC
CC
ENDCHAR
STARTCHAR 027A
ENCODING 634
SWIDTH 375 0
DWIDTH 9 0
BBX 6 17 1 -1
BITMAP
0C
0C
0C
0C
0C
0C
0C
0C
0C
0C
0C
0C
0C
1C
3C
EC
CC
ENDCHAR
STARTCHAR 027B
ENCODING 635
SWIDTH 375 0
DWIDTH 9 0
BBX 10 17 0 -5
BITMAP
0E00
0E00
0E00
0E00
0E00
0E00
0E00
0E00
1E00
3600
E600
C600
0600
0600
0640
07C0
0380
ENDCHAR
STARTCHAR 027D
ENCODING 637
SWIDTH 375 0
DWIDTH 9 0
BBX 6 17 2 -4
BITMAP
CC
DC
F0
E0
C0
C0
C0
C0
C0
C0
C0
C0
C0
C0
C0
F8
78
ENDCHAR
STARTCHAR 027E
ENCODING 638
SWIDTH 375 0
DWIDTH 9 0
BBX 7 12 2 0
BITMAP
3E
7C
E0
C0
C0
C0
C0
C0
C0
C0
C0
C0
ENDCHAR
STARTCHAR 0281
ENCODING 641
SWIDTH 541 0
DWIDTH 13 0
BBX 10 12 2 0
BITMAP
C0C0
C180
C180
C300
C600
FC00
FF00
C180
C180
C180
FF00
FE00
ENDCHAR
STARTCHAR 0282
ENCODING 642
SWIDTH 458 0
DWIDTH 11 0
BBX 9 17 1 -5
BITMAP
3E00
7F80
C000
C000
E000
3800
0700
0180
0180
C380
FF00
FE00
C000
C000
C000
F800
7000
ENDCHAR
STARTCHAR 0283
ENCODING 643
SWIDTH 291 0
DWIDTH 7 0
BBX 6 24 0 -5
BITMAP
0C
1C
30
30
30
30
30
30
30
30
30
30
30
30
30
30
30
30
30
30
30
70
E0
80
ENDCHAR
STARTCHAR 0284
ENCODING 644
SWIDTH 291 0
DWIDTH 7 0
BBX 9 23 -1 -6
BITMAP
0780
0F80
1C00
1800
1800
1800
1800
1800
1800
1800
1800
1800
1800
1800
1800
1800
7F00
7F00
1800
1800
3800
F000
E000
ENDCHAR
STARTCHAR 0288
ENCODING 648
SWIDTH 333 0
DWIDTH 8 0
BBX 7 20 0 -4
BITMAP
30
30
30
FE
FE
30
30
30
30
30
30
30
30
30
30
30
30
30
3E
1C
ENDCHAR
STARTCHAR 0289
ENCODING 649
SWIDTH 625 0
DWIDTH 15 0
BBX 14 12 0 1
BITMAP
3030
3030
3030
3030
FFFC
3030
3030
3030
3070
38F0
1FB0
0F30
ENDCHAR
STARTCHAR 028A
ENCODING 650
SWIDTH 625 0
DWIDTH 15 0
BBX 13 12 1 0
BITMAP
F8F8
F8F8
18C0
3060
6030
6030
6030
6030
7070
38E0
3FE0
0F80
ENDCHAR
STARTCHAR 028B
ENCODING 651
SWIDTH 583 0
DWIDTH 14 0
BBX 10 12 2 1
BITMAP
C300
C7C0
C0C0
C0C0
C0C0
C0C0
C0C0
C0C0
C1C0
E380
7F00
3E00
ENDCHAR
STARTCHAR 028C
ENCODING 652
SWIDTH 500 0
DWIDTH 12 0
BBX 11 12 0 1
BITMAP
0600
0E00
0F00
0B00
1B00
1980
3180
30C0
70C0
60E0
6060
C060
ENDCHAR
STARTCHAR 028D
ENCODING 653
SWIDTH 750 0
DWIDTH 18 0
BBX 18 12 0 1
BITMAP
0C0C00
0C0C00
1E1E00
1E1E00
121600
333300
333300
312300
61E180
61E180
60C180
C0C0C0
ENDCHAR
STARTCHAR 028E
ENCODING 654
SWIDTH 500 0
DWIDTH 12 0
BBX 11 17 0 0
BITMAP
00C0
01C0
0380
0300
0600
0600
0E00
0F00
0B00
1B00
1980
3180
30C0
30C0
60E0
6060
E060
ENDCHAR
STARTCHAR 0290
ENCODING 656
SWIDTH 458 0
DWIDTH 11 0
BBX 12 17 1 -5
BITMAP
FF80
FF80
0300
0700
0600
0C00
1800
3000
6000
6000
FF80
FF80
0180
0180
0190
00F0
00E0
ENDCHAR
STARTCHAR 0291
ENCODING 657
SWIDTH 500 0
DWIDTH 12 0
BBX 11 14 1 -3
BITMAP
FF80
FF80
0300
0300
0600
0C00
1800
31C0
3620
6420
CCE0
FFC0
1800
3000
ENDCHAR
STARTCHAR 0292
ENCODING 658
SWIDTH 500 0
DWIDTH 12 0
BBX 10 17 1 -5
BITMAP
7F80
7F80
0380
0700
0E00
1800
3E00
7F80
0180
00C0
00C0
00C0
00C0
C0C0
E180
7F80
3E00
ENDCHAR
STARTCHAR 0294
ENCODING 660
SWIDTH 500 0
DWIDTH 12 0
BBX 10 17 1 -1
BITMAP
3E00
7F80
E1C0
C0C0
00C0
00C0
01C0
0F80
0E00
0C00
0C00
0C00
0C00
0C00
0C00
0C00
0C00
ENDCHAR
STARTCHAR 0295
ENCODING 661
SWIDTH 500 0
DWIDTH 12 0
BBX 10 17 1 -1
BITMAP
3F00
7F80
E1C0
C0C0
C000
C000
E000
7C00
1C00
0C00
0C00
0C00
0C00
0C00
0C00
0C00
0C00
ENDCHAR
STARTCHAR 0298
ENCODING 664
SWIDTH 625 0
DWIDTH 15 0
BBX 13 12 1 0
BITMAP
0F80
3060
6030
4010
8708
8788
8788
8308
4010
6030
3060
0F80
ENDCHAR
STARTCHAR 029D
ENCODING 669
SWIDTH 375 0
DWIDTH 9 0
BBX 9 22 -1 -5
BITMAP
0600
0600
0000
0000
0000
0600
0600
0600
0600
0600
0600
0600
0600
0600
0600
0600
0600
7E00
8780
8680
FE00
3C00
ENDCHAR
STARTCHAR 02A1
ENCODING 673
SWIDTH 500 0
DWIDTH 12 0
BBX 10 17 1 -1
BITMAP
3E00
7F80
E1C0
C0C0
00C0
00C0
01C0
0F80
0E00
0C00
3F00
0C00
0C00
0C00
0C00
0C00
0C00
ENDCHAR
STARTCHAR 02A2
ENCODING 674
SWIDTH 500 0
DWIDTH 12 0
BBX 10 17 1 -1
BITMAP
3F00
7F80
E1C0
C0C0
C000
C000
E000
7C00
1C00
0C00
3F00
0C00
0C00
0C00
0C00
0C00
0C00
ENDCHAR
STARTCHAR 02BB
ENCODING 699
SWIDTH 1000 0
DWIDTH 24 0
BBX 4 7 19 14
BITMAP
30
60
40
C0
E0
E0
E0
ENDCHAR
STARTCHAR 02BC
ENCODING 700
SWIDTH 1000 0
DWIDTH 24 0
BBX 4 7 1 13
BITMAP
70
70
70
30
20
60
C0
ENDCHAR
STARTCHAR 02C6
ENCODING 710
SWIDTH 500 0
DWIDTH 12 0
BBX 6 3 3 15
BITMAP
78
78
CC
ENDCHAR
STARTCHAR 02C7
ENCODING 711
SWIDTH 500 0
DWIDTH 12 0
BBX 6 3 3 15
BITMAP
CC
78
30
ENDCHAR
STARTCHAR 02C8
ENCODING 712
SWIDTH 208 0
DWIDTH 5 0
BBX 1 9 2 8
BITMAP
80
80
80
80
80
80
80
80
80
ENDCHAR
STARTCHAR 02CC
ENCODING 716
SWIDTH 208 0
DWIDTH 5 0
BBX 1 9 2 -3
BITMAP
80
80
80
80
80
80
80
80
80
ENDCHAR
STARTCHAR 02D0
ENCODING 720
SWIDTH 291 0
DWIDTH 7 0
BBX 3 12 2 0
BITMAP
E0
60
40
00
00
00
00
00
00
40
E0
E0
ENDCHAR
STARTCHAR 02D1
ENCODING 721
SWIDTH 291 0
DWIDTH 7 0
BBX 3 3 2 8
BITMAP
E0
60
40
ENDCHAR
STARTCHAR 02D8
ENCODING 728
SWIDTH 500 0
DWIDTH 12 0
BBX 6 3 3 14
BITMAP
84
CC
78
ENDCHAR
STARTCHAR 02D9
ENCODING 729
SWIDTH 500 0
DWIDTH 12 0
BBX 2 2 5 15
BITMAP
C0
C0
ENDCHAR
STARTCHAR 02DB
ENCODING 731
SWIDTH 500 0
DWIDTH 12 0
BBX 6 5 3 -4
BITMAP
38
60
C0
FC
7C
ENDCHAR
STARTCHAR 02DC
ENCODING 732
SWIDTH 500 0
DWIDTH 12 0
BBX 8 3 2 14
BITMAP
70
D9
0E
ENDCHAR
STARTCHAR 02DD
ENCODING 733
SWIDTH 500 0
DWIDTH 12 0
BBX 6 3 4 15
BITMAP
4C
D8
90
ENDCHAR
STARTCHAR 02DE
ENCODING 734
SWIDTH 500 0
DWIDTH 12 0
BBX 6 6 4 1
BITMAP
E0
20
60
64
7C
38
ENDCHAR
STARTCHAR 02E5
ENCODING 741
SWIDTH 500 0
DWIDTH 12 0
BBX 5 17 2 0
BITMAP
F8
08
08
08
08
08
08
08
08
08
08
08
08
08
08
08
08
ENDCHAR
STARTCHAR 02E6
ENCODING 742
SWIDTH 500 0
DWIDTH 12 0
BBX 5 17 2 1
BITMAP
08
08
08
08
F8
08
08
08
08
08
08
08
08
08
08
08
08
ENDCHAR
STARTCHAR 02E7
ENCODING 743
SWIDTH 500 0
DWIDTH 12 0
BBX 5 17 2 1
BITMAP
08
08
08
08
08
08
08
08
F8
08
08
08
08
08
08
08
08
ENDCHAR
STARTCHAR 02E8
ENCODING 744
SWIDTH 500 0
DWIDTH 12 0
BBX 5 17 2 0
BITMAP
08
08
08
08
08
08
08
08
08
08
08
08
F8
08
08
08
08
ENDCHAR
STARTCHAR 02E9
ENCODING 745
SWIDTH 500 0
DWIDTH 12 0
BBX 5 17 2 1
BITMAP
08
08
08
08
08
08
08
08
08
08
08
08
08
08
08
08
F8
ENDCHAR
STARTCHAR 0300
ENCODING 768
SWIDTH 500 0
DWIDTH 12 0
BBX 3 3 4 15
BITMAP
C0
40
60
ENDCHAR
STARTCHAR 0301
ENCODING 769
SWIDTH 500 0
DWIDTH 12 0
BBX 3 3 5 15
BITMAP
60
40
C0
ENDCHAR
STARTCHAR 0302
ENCODING 770
SWIDTH 500 0
DWIDTH 12 0
BBX 6 3 3 15
BITMAP
78
78
CC
ENDCHAR
STARTCHAR 0303
ENCODING 771
SWIDTH 500 0
DWIDTH 12 0
BBX 8 3 2 14
BITMAP
70
D9
0E
ENDCHAR
STARTCHAR 0304
ENCODING 772
SWIDTH 500 0
DWIDTH 12 0
BBX 6 1 3 15
BITMAP
FC
ENDCHAR
STARTCHAR 0305
ENCODING 773
SWIDTH 500 0
DWIDTH 12 0
BBX 6 1 3 15
BITMAP
FC
ENDCHAR
STARTCHAR 0306
ENCODING 774
SWIDTH 500 0
DWIDTH 12 0
BBX 6 3 3 14
BITMAP
84
CC
78
ENDCHAR
STARTCHAR 0308
ENCODING 776
SWIDTH 500 0
DWIDTH 12 0
BBX 6 2 3 14
BITMAP
CC
CC
ENDCHAR
STARTCHAR 030B
ENCODING 779
SWIDTH 500 0
DWIDTH 12 0
BBX 6 3 4 15
BITMAP
4C
D8
90
ENDCHAR
STARTCHAR 030C
ENCODING 780
SWIDTH 500 0
DWIDTH 12 0
BBX 6 3 3 15
BITMAP
CC
78
30
ENDCHAR
STARTCHAR 030F
ENCODING 783
SWIDTH 500 0
DWIDTH 12 0
BBX 6 3 2 15
BITMAP
C8
6C
24
ENDCHAR
STARTCHAR 0318
ENCODING 792
SWIDTH 500 0
DWIDTH 12 0
BBX 3 5 4 -6
BITMAP
20
20
E0
20
20
ENDCHAR
STARTCHAR 0319
ENCODING 793
SWIDTH 500 0
DWIDTH 12 0
BBX 3 5 5 -6
BITMAP
80
80
E0
80
80
ENDCHAR
STARTCHAR 031A
ENCODING 794
SWIDTH 500 0
DWIDTH 12 0
BBX 5 6 2 11
BITMAP
F8
08
08
08
08
08
ENDCHAR
STARTCHAR 031C
ENCODING 796
SWIDTH 500 0
DWIDTH 12 0
BBX 3 5 4 -6
BITMAP
60
C0
80
80
60
ENDCHAR
STARTCHAR 031D
ENCODING 797
SWIDTH 500 0
DWIDTH 12 0
BBX 7 3 2 -3
BITMAP
10
10
FE
ENDCHAR
STARTCHAR 031E
ENCODING 798
SWIDTH 500 0
DWIDTH 12 0
BBX 7 3 2 -6
BITMAP
FE
10
10
ENDCHAR
STARTCHAR 031F
ENCODING 799
SWIDTH 500 0
DWIDTH 12 0
BBX 7 5 2 -6
BITMAP
10
10
FE
10
10
ENDCHAR
STARTCHAR 0320
ENCODING 800
SWIDTH 500 0
DWIDTH 12 0
BBX 6 1 3 -3
BITMAP
FC
ENDCHAR
STARTCHAR 0324
ENCODING 804
SWIDTH 500 0
DWIDTH 12 0
BBX 6 3 3 -4
BITMAP
CC
CC
CC
ENDCHAR
STARTCHAR 0325
ENCODING 805
SWIDTH 500 0
DWIDTH 12 0
BBX 4 4 4 -5
BITMAP
60
90
90
60
ENDCHAR
STARTCHAR 0327
ENCODING 807
SWIDTH 500 0
DWIDTH 12 0
BBX 5 5 4 -5
BITMAP
40
F0
18
18
F0
ENDCHAR
STARTCHAR 0329
ENCODING 809
SWIDTH 500 0
DWIDTH 12 0
BBX 1 7 5 -7
BITMAP
80
80
80
80
80
80
80
ENDCHAR
STARTCHAR 032A
ENCODING 810
SWIDTH 500 0
DWIDTH 12 0
BBX 6 3 3 -6
BITMAP
FC
84
84
ENDCHAR
STARTCHAR 032C
ENCODING 812
SWIDTH 500 0
DWIDTH 12 0
BBX 6 3 3 -4
BITMAP
CC
78
30
ENDCHAR
STARTCHAR 032F
ENCODING 815
SWIDTH 500 0
DWIDTH 12 0
BBX 6 3 3 -4
BITMAP
78
CC
84
ENDCHAR
STARTCHAR 0330
ENCODING 816
SWIDTH 500 0
DWIDTH 12 0
BBX 8 3 2 -4
BITMAP
71
D9
0E
ENDCHAR
STARTCHAR 0332
ENCODING 818
SWIDTH 500 0
DWIDTH 12 0
BBX 12 1 0 -3
BITMAP
FFF0
ENDCHAR
STARTCHAR 0334
ENCODING 820
SWIDTH 500 0
DWIDTH 12 0
BBX 8 2 2 7
BITMAP
71
8E
ENDCHAR
STARTCHAR 0336
ENCODING 822
SWIDTH 958 0
DWIDTH 23 0
BBX 21 2 1 8
BITMAP
FFFFF8
FFFFF8
ENDCHAR
STARTCHAR 0339
ENCODING 825
SWIDTH 500 0
DWIDTH 12 0
BBX 3 5 5 -6
BITMAP
C0
60
20
20
C0
ENDCHAR
STARTCHAR 033A
ENCODING 826
SWIDTH 500 0
DWIDTH 12 0
BBX 6 3 3 -4
BITMAP
84
84
FC
ENDCHAR
STARTCHAR 033B
ENCODING 827
SWIDTH 500 0
DWIDTH 12 0
BBX 6 3 3 -5
BITMAP
FC
84
FC
ENDCHAR
STARTCHAR 033C
ENCODING 828
SWIDTH 500 0
DWIDTH 12 0
BBX 6 3 3 -4
BITMAP
CC
B4
84
ENDCHAR
STARTCHAR 033D
ENCODING 829
SWIDTH 500 0
DWIDTH 12 0
BBX 4 5 4 14
BITMAP
90
F0
60
F0
90
ENDCHAR
STARTCHAR 0361
ENCODING 865
SWIDTH 0 0
DWIDTH 0 0
BBX 12 3 -6 18
BITMAP
1F80
6060
8010
ENDCHAR
STARTCHAR 0391
ENCODING 913
SWIDTH 1000 0
DWIDTH 24 0
BBX 16 17 4 1
BITMAP
03C0
03C0
03C0
0660
0660
0E70
0C30
0C30
1C38
1818
1FF8
3FFC
300C
700E
6006
6006
E007
ENDCHAR
STARTCHAR 0392
ENCODING 914
SWIDTH 1000 0
DWIDTH 24 0
BBX 14 17 6 1
BITMAP
FFC0
FFF0
C038
C018
C018
C018
C030
FFC0
FFF0
C038
C00C
C00C
C00C
C00C
C038
FFF0
FFE0
ENDCHAR
STARTCHAR 0393
ENCODING 915
SWIDTH 1000 0
DWIDTH 24 0
BBX 13 17 6 1
BITMAP
FFF8
FFF8
C000
C000
C000
C000
C000
C000
C000
C000
C000
C000
C000
C000
C000
C000
C000
ENDCHAR
STARTCHAR 0394
ENCODING 916
SWIDTH 1000 0
DWIDTH 24 0
BBX 16 17 4 1
BITMAP
03C0
03C0
03C0
0660
0660
0E70
0C30
1C38
1818
1818
380C
300C
700E
6006
6006
FFFF
FFFF
ENDCHAR
STARTCHAR 0395
ENCODING 917
SWIDTH 1000 0
DWIDTH 24 0
BBX 13 17 6 1
BITMAP
FFF0
FFF0
C000
C000
C000
C000
C000
FFE0
FFE0
C000
C000
C000
C000
C000
C000
FFF8
FFF8
ENDCHAR
STARTCHAR 0396
ENCODING 918
SWIDTH 1000 0
DWIDTH 24 0
BBX 14 17 5 1
BITMAP
7FF8
7FF8
0038
0070
0060
00C0
01C0
0380
0700
0600
0C00
1800
3800
7000
E000
FFFC
FFFC
ENDCHAR
STARTCHAR 0397
ENCODING 919
SWIDTH 1000 0
DWIDTH 24 0
BBX 14 17 5 2
BITMAP
C00C
C00C
C00C
C00C
C00C
C00C
C00C
FFFC
FFFC
C00C
C00C
C00C
C00C
C00C
C00C
C00C
C00C
ENDCHAR
STARTCHAR 0398
ENCODING 920
SWIDTH 1000 0
DWIDTH 24 0
BBX 16 18 4 0
BITMAP
07E0
1FF8
3C3C
300C
6006
6006
C003
CFF3
CFF3
C003
C003
C003
6006
6006
300C
3C3C
1FF8
07E0
ENDCHAR
STARTCHAR 0399
ENCODING 921
SWIDTH 1000 0
DWIDTH 24 0
BBX 2 17 11 1
BITMAP
C0
C0
C0
C0
C0
C0
C0
C0
C0
C0
C0
C0
C0
C0
C0
C0
C0
ENDCHAR
STARTCHAR 039A
ENCODING 922
SWIDTH 1000 0
DWIDTH 24 0
BBX 14 17 5 1
BITMAP
C038
C070
C0E0
C1C0
C380
C700
CE00
DE00
F700
E380
C180
C0C0
C0E0
C070
C038
C01C
C01C
ENDCHAR
STARTCHAR 039B
ENCODING 923
SWIDTH 1000 0
DWIDTH 24 0
BBX 16 17 4 1
BITMAP
0180
03C0
03C0
07E0
0660
0660
0C30
0C30
1C38
1818
1818
381C
300C
300C
6006
6006
E007
ENDCHAR
STARTCHAR 039C
ENCODING 924
SWIDTH 1000 0
DWIDTH 24 0
BBX 18 17 3 1
BITMAP
E003C0
F003C0
F003C0
D806C0
D806C0
D806C0
CC0CC0
CC0CC0
CE1CC0
C618C0
C618C0
C330C0
C330C0
C370C0
C1E0C0
C1E0C0
C1C0C0
ENDCHAR
STARTCHAR 039D
ENCODING 925
SWIDTH 1000 0
DWIDTH 24 0
BBX 14 17 5 1
BITMAP
E00C
F00C
F80C
D80C
CC0C
CE0C
C60C
C30C
C30C
C18C
C1CC
C0CC
C06C
C07C
C03C
C01C
C01C
ENDCHAR
STARTCHAR 039E
ENCODING 926
SWIDTH 1000 0
DWIDTH 24 0
BBX 14 17 5 1
BITMAP
7FF8
7FF8
0000
0000
0000
0000
0000
7FF8
7FF8
0000
0000
0000
0000
0000
0000
FFFC
FFFC
ENDCHAR
STARTCHAR 039F
ENCODING 927
SWIDTH 1000 0
DWIDTH 24 0
BBX 16 18 4 0
BITMAP
07E0
1FF8
3C3C
300C
6006
6006
C003
C003
C003
C003
C003
C003
6006
6006
300C
3C3C
1FF8
07E0
ENDCHAR
STARTCHAR 03A0
ENCODING 928
SWIDTH 1000 0
DWIDTH 24 0
BBX 14 17 5 0
BITMAP
FFFC
FFFC
C00C
C00C
C00C
C00C
C00C
C00C
C00C
C00C
C00C
C00C
C00C
C00C
C00C
C00C
C00C
ENDCHAR
STARTCHAR 03A1
ENCODING 929
SWIDTH 1000 0
DWIDTH 24 0
BBX 13 17 6 0
BITMAP
FFC0
FFF0
C070
C018
C018
C018
C018
C070
FFF0
FFC0
C000
C000
C000
C000
C000
C000
C000
ENDCHAR
STARTCHAR 03A3
ENCODING 931
SWIDTH 1000 0
DWIDTH 24 0
BBX 14 17 5 1
BITMAP
FFFC
FFFC
E000
7000
1800
0C00
0700
0380
0380
0700
0E00
1C00
3800
7000
E000
FFFC
FFFC
ENDCHAR
STARTCHAR 03A4
ENCODING 932
SWIDTH 1000 0
DWIDTH 24 0
BBX 14 17 5 1
BITMAP
FFFC
FFFC
0300
0300
0300
0300
0300
0300
0300
0300
0300
0300
0300
0300
0300
0300
0300
ENDCHAR
STARTCHAR 03A5
ENCODING 933
SWIDTH 1000 0
DWIDTH 24 0
BBX 14 17 5 1
BITMAP
C00C
E01C
7038
3030
3870
1860
0CC0
0FC0
0780
0300
0300
0300
0300
0300
0300
0300
0300
ENDCHAR
STARTCHAR 03A6
ENCODING 934
SWIDTH 1000 0
DWIDTH 24 0
BBX 16 17 4 2
BITMAP
0180
0180
03C0
1FF8
399C
6186
C183
C183
C183
C183
E187
6186
3DBC
1FF8
0180
0180
0180
ENDCHAR
STARTCHAR 03A7
ENCODING 935
SWIDTH 1000 0
DWIDTH 24 0
BBX 16 17 4 1
BITMAP
700E
381C
1818
1C38
0E70
0660
03C0
03C0
03C0
03C0
0660
0E70
1C38
381C
381C
700E
E007
ENDCHAR
STARTCHAR 03A8
ENCODING 936
SWIDTH 1000 0
DWIDTH 24 0
BBX 14 17 5 2
BITMAP
C30C
C30C
C30C
C30C
C30C
C30C
C30C
C30C
C30C
6318
7B78
3FF0
0FC0
0300
0300
0300
0300
ENDCHAR
STARTCHAR 03A9
ENCODING 937
SWIDTH 1000 0
DWIDTH 24 0
BBX 16 17 4 1
BITMAP
07E0
1FF8
3C1C
700E
6006
C003
C003
C003
C003
C003
6006
700E
381C
0E70
0660
FE7F
FE7F
ENDCHAR
STARTCHAR 03B1
ENCODING 945
SWIDTH 1000 0
DWIDTH 24 0
BBX 14 13 5 0
BITMAP
070C
1F98
3998
30F0
60F0
60E0
C0C0
C0C0
C1CC
C3CC
C64C
7C78
3830
ENDCHAR
STARTCHAR 03B2
ENCODING 946
SWIDTH 1000 0
DWIDTH 24 0
BBX 13 20 5 -3
BITMAP
01E0
07F0
0E38
0C18
1818
1818
1030
3770
37C0
2060
6060
6030
6030
6030
E030
F860
DFE0
C780
C000
C000
ENDCHAR
STARTCHAR 03B3
ENCODING 947
SWIDTH 1000 0
DWIDTH 24 0
BBX 14 15 5 -1
BITMAP
3C08
7E1C
E638
0230
0360
03C0
03C0
0380
0300
0300
0600
0E00
0E00
0E00
0C00
ENDCHAR
STARTCHAR 03B4
ENCODING 948
SWIDTH 1000 0
DWIDTH 24 0
BBX 12 18 6 0
BITMAP
0F00
1FC0
18F0
1830
0C00
0600
0300
1F80
38C0
6060
6060
C060
C060
C0E0
C0C0
63C0
7F80
3E00
ENDCHAR
STARTCHAR 03B5
ENCODING 949
SWIDTH 1000 0
DWIDTH 24 0
BBX 10 13 7 0
BITMAP
1F00
3FC0
60C0
6000
6000
3F00
6F00
C000
C000
C0C0
E380
7F00
3E00
ENDCHAR
STARTCHAR 03B6
ENCODING 950
SWIDTH 1000 0
DWIDTH 24 0
BBX 12 20 7 -1
BITMAP
1870
31F0
33C0
3F80
0C00
1800
1800
3000
6000
6000
4000
C000
C000
F000
FF00
0F80
0180
0180
7F00
7E00
ENDCHAR
STARTCHAR 03B7
ENCODING 951
SWIDTH 1000 0
DWIDTH 24 0
BBX 13 15 5 -2
BITMAP
38F0
7FF8
CF18
0E18
0C18
0C18
1C30
1830
1830
3030
3060
3060
0060
0060
00E0
ENDCHAR
STARTCHAR 03B8
ENCODING 952
SWIDTH 1000 0
DWIDTH 24 0
BBX 12 18 6 0
BITMAP
0780
0FE0
1C60
3030
3030
6030
6030
FFF0
FFF0
C070
C070
C060
C0E0
C0C0
E1C0
6380
7F00
1E00
ENDCHAR
STARTCHAR 03B9
ENCODING 953
SWIDTH 1000 0
DWIDTH 24 0
BBX 8 13 8 0
BITMAP
18
38
30
30
60
60
60
C0
C3
C7
CE
7C
38
ENDCHAR
STARTCHAR 03BA
ENCODING 954
SWIDTH 1000 0
DWIDTH 24 0
BBX 12 13 6 1
BITMAP
0010
1870
19E0
3380
3E00
3C00
7E00
6600
6610
6230
C370
C3E0
01C0
ENDCHAR
STARTCHAR 03BB
ENCODING 955
SWIDTH 1000 0
DWIDTH 24 0
BBX 13 17 5 1
BITMAP
0F00
3F80
31C0
00C0
00C0
00C0
01C0
01C0
03C0
06C0
0EC0
0C40
1860
3860
7030
6030
E038
ENDCHAR
STARTCHAR 03BC
ENCODING 956
SWIDTH 1000 0
DWIDTH 24 0
BBX 15 14 5 -2
BITMAP
1830
1830
3830
3030
3030
3060
7060
7062
70E2
79E6
DF3C
CE38
C000
C000
ENDCHAR
STARTCHAR 03BD
ENCODING 957
SWIDTH 1000 0
DWIDTH 24 0
BBX 11 12 7 2
BITMAP
C060
C060
6060
60E0
60C0
60C0
6180
6380
6700
DE00
F800
C000
ENDCHAR
STARTCHAR 03BE
ENCODING 958
SWIDTH 1000 0
DWIDTH 24 0
BBX 11 20 6 -1
BITMAP
1DE0
07E0
0C00
1800
3000
3000
3800
1FE0
1FE0
7000
E000
C000
C000
6000
3E00
03C0
00C0
00C0
3FC0
7F00
ENDCHAR
STARTCHAR 03BF
ENCODING 959
SWIDTH 1000 0
DWIDTH 24 0
BBX 11 13 6 0
BITMAP
0F80
1FC0
38E0
6060
6060
C060
C060
C060
C0C0
C0C0
6380
7F00
1E00
ENDCHAR
STARTCHAR 03C0
ENCODING 960
SWIDTH 1000 0
DWIDTH 24 0
BBX 13 14 6 1
BITMAP
0008
7FF8
FFF0
D880
1980
1180
3180
3180
2300
6308
6318
C338
C3F0
01C0
ENDCHAR
STARTCHAR 03C1
ENCODING 961
SWIDTH 1000 0
DWIDTH 24 0
BBX 12 15 5 -3
BITMAP
03C0
0FE0
1860
1830
3030
3030
3030
7030
7060
78E0
6FC0
6780
6000
C000
C000
ENDCHAR
STARTCHAR 03C2
ENCODING 962
SWIDTH 583 0
DWIDTH 14 0
BBX 11 17 2 -5
BITMAP
1F00
7F80
61C0
C0E0
C040
C000
C000
6000
7000
3800
0E00
0600
0300
0300
C700
FE00
7C00
ENDCHAR
STARTCHAR 03C3
ENCODING 963
SWIDTH 1000 0
DWIDTH 24 0
BBX 13 13 6 0
BITMAP
07F8
1FF8
38C0
7060
6060
C060
C060
C060
C0C0
C0C0
6380
7F00
1E00
ENDCHAR
STARTCHAR 03C4
ENCODING 964
SWIDTH 1000 0
DWIDTH 24 0
BBX 13 14 6 0
BITMAP
0010
3FF8
FFE0
4600
0C00
0C00
0C00
0C00
1800
1840
18E0
19C0
1F80
0F00
ENDCHAR
STARTCHAR 03C5
ENCODING 965
SWIDTH 1000 0
DWIDTH 24 0
BBX 13 13 5 1
BITMAP
3C70
FC30
CC18
0C18
0818
1818
1818
3018
3030
3070
38E0
1FC0
0F00
ENDCHAR
STARTCHAR 03C6
ENCODING 966
SWIDTH 1000 0
DWIDTH 24 0
BBX 14 19 5 -2
BITMAP
00C0
00C0
00C0
0080
0FE0
1FF0
7198
610C
C30C
C30C
C30C
C20C
E618
7638
3FE0
0F80
0C00
0C00
0C00
ENDCHAR
STARTCHAR 03C7
ENCODING 967
SWIDTH 1000 0
DWIDTH 24 0
BBX 13 15 5 -2
BITMAP
1C38
7E30
2660
06E0
02C0
0380
0380
0300
0700
0F00
1D00
1980
3198
61F8
E0E0
ENDCHAR
STARTCHAR 03C8
ENCODING 968
SWIDTH 1000 0
DWIDTH 24 0
BBX 14 20 5 -2
BITMAP
00C0
00C0
00C0
00C0
0180
1990
39B8
619C
C30C
C30C
C30C
C20C
C61C
6638
76F0
1FC0
0C00
0C00
0C00
1800
ENDCHAR
STARTCHAR 03C9
ENCODING 969
SWIDTH 1000 0
DWIDTH 24 0
BBX 16 13 4 0
BITMAP
0804
1C0C
1806
3086
6183
6183
C183
C183
C183
C386
E68E
7CFC
3878
ENDCHAR
STARTCHAR 0401
ENCODING 1025
SWIDTH 1000 0
DWIDTH 24 0
BBX 13 20 6 1
BITMAP
30C0
30C0
0000
FFF0
FFF0
C000
C000
C000
C000
C000
FFE0
FFE0
C000
C000
C000
C000
C000
C000
FFF8
FFF8
ENDCHAR
STARTCHAR 0410
ENCODING 1040
SWIDTH 1000 0
DWIDTH 24 0
BBX 16 17 4 1
BITMAP
03C0
03C0
03C0
0660
0660
0E70
0C30
0C30
1C38
1818
1FF8
3FFC
300C
700E
6006
6006
E007
ENDCHAR
STARTCHAR 0411
ENCODING 1041
SWIDTH 1000 0
DWIDTH 24 0
BBX 14 17 6 1
BITMAP
FFF8
FFF8
C000
C000
C000
C000
C000
FFC0
FFF0
C038
C00C
C00C
C00C
C00C
C038
FFF0
FFC0
ENDCHAR
STARTCHAR 0412
ENCODING 1042
SWIDTH 1000 0
DWIDTH 24 0
BBX 14 17 6 1
BITMAP
FFC0
FFF0
C038
C018
C018
C018
C030
FFC0
FFF0
C038
C00C
C00C
C00C
C00C
C038
FFF0
FFE0
ENDCHAR
STARTCHAR 0413
ENCODING 1043
SWIDTH 1000 0
DWIDTH 24 0
BBX 13 17 6 1
BITMAP
FFF8
FFF8
C000
C000
C000
C000
C000
C000
C000
C000
C000
C000
C000
C000
C000
C000
C000
ENDCHAR
STARTCHAR 0414
ENCODING 1044
SWIDTH 1000 0
DWIDTH 24 0
BBX 16 19 4 -2
BITMAP
0FFC
0FFC
0C0C
0C0C
0C0C
0C0C
0C0C
0C0C
0C0C
0C0C
180C
180C
180C
300C
300C
FFFF
FFFF
C003
C003
ENDCHAR
STARTCHAR 0415
ENCODING 1045
SWIDTH 1000 0
DWIDTH 24 0
BBX 13 17 6 1
BITMAP
FFF0
FFF0
C000
C000
C000
C000
C000
FFE0
FFE0
C000
C000
C000
C000
C000
C000
FFF8
FFF8
ENDCHAR
STARTCHAR 0416
ENCODING 1046
SWIDTH 1000 0
DWIDTH 24 0
BBX 18 17 3 1
BITMAP
E0C1C0
60C180
60C180
60C180
30C300
30C300
1CCE00
0FFC00
0FFC00
0CCC00
18C600
18C600
30C300
70C380
60C180
E0C1C0
C0C0C0
ENDCHAR
STARTCHAR 0417
ENCODING 1047
SWIDTH 1000 0
DWIDTH 24 0
BBX 14 18 5 0
BITMAP
0FC0
3FF0
7030
6018
0018
0018
0030
07E0
07E0
0038
0018
000C
000C
C00C
E01C
7038
3FF0
0FC0
ENDCHAR
STARTCHAR 0418
ENCODING 1048
SWIDTH 1000 0
DWIDTH 24 0
BBX 14 17 5 2
BITMAP
C00C
C00C
C00C
C01C
C03C
C0EC
C1CC
C38C
C70C
CE0C
DC0C
F80C
F00C
E00C
C00C
C00C
C00C
ENDCHAR
STARTCHAR 0419
ENCODING 1049
SWIDTH 1000 0
DWIDTH 24 0
BBX 14 20 5 1
BITMAP
1860
1860
0FC0
C00C
C00C
C00C
C01C
C03C
C06C
C1CC
C38C
C70C
CE0C
DC0C
F80C
F00C
E00C
C00C
C00C
C00C
ENDCHAR
STARTCHAR 041A
ENCODING 1050
SWIDTH 1000 0
DWIDTH 24 0
BBX 14 17 5 1
BITMAP
C018
C038
C030
C030
C060
C0E0
C3C0
FF80
FF00
C180
C1C0
C0C0
C060
C070
C038
C018
C01C
ENDCHAR
STARTCHAR 041B
ENCODING 1051
SWIDTH 1000 0
DWIDTH 24 0
BBX 16 18 2 0
BITMAP
01FF
01FF
0183
0183
0183
0183
0183
0183
0183
0183
0183
0183
0303
C303
6303
6603
7E03
3C00
ENDCHAR
STARTCHAR 041C
ENCODING 1052
SWIDTH 1000 0
DWIDTH 24 0
BBX 18 17 3 1
BITMAP
E003C0
F003C0
F003C0
D806C0
D806C0
D806C0
CC0CC0
CC0CC0
CE1CC0
C618C0
C618C0
C330C0
C330C0
C370C0
C1E0C0
C1E0C0
C1C0C0
ENDCHAR
STARTCHAR 041D
ENCODING 1053
SWIDTH 1000 0
DWIDTH 24 0
BBX 14 17 5 2
BITMAP
C00C
C00C
C00C
C00C
C00C
C00C
C00C
FFFC
FFFC
C00C
C00C
C00C
C00C
C00C
C00C
C00C
C00C
ENDCHAR
STARTCHAR 041E
ENCODING 1054
SWIDTH 1000 0
DWIDTH 24 0
BBX 16 18 4 0
BITMAP
07E0
1FF8
3C3C
300C
6006
6006
C003
C003
C003
C003
C003
C003
6006
6006
300C
3C3C
1FF8
07E0
ENDCHAR
STARTCHAR 041F
ENCODING 1055
SWIDTH 1000 0
DWIDTH 24 0
BBX 14 17 5 0
BITMAP
FFFC
FFFC
C00C
C00C
C00C
C00C
C00C
C00C
C00C
C00C
C00C
C00C
C00C
C00C
C00C
C00C
C00C
ENDCHAR
STARTCHAR 0420
ENCODING 1056
SWIDTH 1000 0
DWIDTH 24 0
BBX 13 17 6 0
BITMAP
FFC0
FFF0
C070
C018
C018
C018
C018
C070
FFF0
FFC0
C000
C000
C000
C000
C000
C000
C000
ENDCHAR
STARTCHAR 0421
ENCODING 1057
SWIDTH 1000 0
DWIDTH 24 0
BBX 16 18 4 0
BITMAP
07E0
1FF8
381C
300E
6006
6000
C000
C000
C000
C000
C000
C007
E006
600E
700C
383C
1FF8
07E0
ENDCHAR
STARTCHAR 0422
ENCODING 1058
SWIDTH 1000 0
DWIDTH 24 0
BBX 14 17 5 1
BITMAP
FFFC
FFFC
0300
0300
0300
0300
0300
0300
0300
0300
0300
0300
0300
0300
0300
0300
0300
ENDCHAR
STARTCHAR 0423
ENCODING 1059
SWIDTH 1000 0
DWIDTH 24 0
BBX 13 17 6 1
BITMAP
C018
C018
6038
6030
3070
3060
1860
18C0
0CC0
0DC0
0780
0780
0300
0300
0600
FE00
FC00
ENDCHAR
STARTCHAR 0424
ENCODING 1060
SWIDTH 1000 0
DWIDTH 24 0
BBX 16 17 4 2
BITMAP
0180
0180
03C0
1FF8
399C
6186
C183
C183
C183
C183
E187
718E
3DBC
1FF8
0180
0180
0180
ENDCHAR
STARTCHAR 0425
ENCODING 1061
SWIDTH 1000 0
DWIDTH 24 0
BBX 16 17 4 1
BITMAP
700E
381C
1818
1C38
0E70
0660
03C0
03C0
03C0
03C0
0660
0E70
1C38
381C
381C
700E
E007
ENDCHAR
STARTCHAR 0426
ENCODING 1062
SWIDTH 1000 0
DWIDTH 24 0
BBX 16 19 5 -2
BITMAP
C018
C018
C018
C018
C018
C018
C018
C018
C018
C018
C018
C018
C018
C018
C018
FFFF
FFFF
0003
0003
ENDCHAR
STARTCHAR 0427
ENCODING 1063
SWIDTH 1000 0
DWIDTH 24 0
BBX 12 17 6 2
BITMAP
C030
C030
C030
C030
C030
C030
C030
C030
E0F0
7FF0
3F30
0030
0030
0030
0030
0030
0030
ENDCHAR
STARTCHAR 0428
ENCODING 1064
SWIDTH 1000 0
DWIDTH 24 0
BBX 18 17 3 1
BITMAP
C0C0C0
C0C0C0
C0C0C0
C0C0C0
C0C0C0
C0C0C0
C0C0C0
C0C0C0
C0C0C0
C0C0C0
C0C0C0
C0C0C0
C0C0C0
C0C0C0
C0C0C0
FFFFC0
FFFFC0
ENDCHAR
STARTCHAR 0429
ENCODING 1065
SWIDTH 1000 0
DWIDTH 24 0
BBX 19 19 3 -2
BITMAP
C0C180
C0C180
C0C180
C0C180
C0C180
C0C180
C0C180
C0C180
C0C180
C0C180
C0C180
C0C180
C0C180
C0C180
C0C180
FFFFE0
FFFFE0
000060
000060
ENDCHAR
STARTCHAR 042A
ENCODING 1066
SWIDTH 1000 0
DWIDTH 24 0
BBX 16 17 3 1
BITMAP
FC00
FC00
0C00
0C00
0C00
0C00
0C00
0FF8
0FFE
0C06
0C03
0C03
0C03
0C03
0C06
0FFE
0FF8
ENDCHAR
STARTCHAR 042B
ENCODING 1067
SWIDTH 1000 0
DWIDTH 24 0
BBX 16 17 4 2
BITMAP
C003
C003
C003
C003
C003
C003
C003
FF83
FFC3
C0E3
C033
C033
C033
C033
C0E3
FFC3
FF03
ENDCHAR
STARTCHAR 042C
ENCODING 1068
SWIDTH 1000 0
DWIDTH 24 0
BBX 14 17 6 2
BITMAP
C000
C000
C000
C000
C000
C000
C000
FFC0
FFF0
C038
C00C
C00C
C00C
C00C
C038
FFF0
FFC0
ENDCHAR
STARTCHAR 042D
ENCODING 1069
SWIDTH 1000 0
DWIDTH 24 0
BBX 15 18 5 0
BITMAP
0FC0
3FE0
7078
E018
C00C
000C
0006
3C06
3FE6
03E6
0006
0006
C00E
C00C
601C
7838
3FF0
0FC0
ENDCHAR
STARTCHAR 042E
ENCODING 1070
SWIDTH 1000 0
DWIDTH 24 0
BBX 18 18 4 0
BITMAP
C07C00
C1FE00
C3C700
C30180
C70180
C600C0
C600C0
FE00C0
FE00C0
C600C0
C600C0
C600C0
C601C0
C70380
C30380
C3C700
C1FE00
007C00
ENDCHAR
STARTCHAR 042F
ENCODING 1071
SWIDTH 1000 0
DWIDTH 24 0
BBX 13 17 5 1
BITMAP
1FF8
7FF8
E018
C018
C018
C018
E018
7FF8
1FF8
0618
0C18
1C18
1818
3818
7018
6018
E018
ENDCHAR
STARTCHAR 0430
ENCODING 1072
SWIDTH 1000 0
DWIDTH 24 0
BBX 11 13 7 0
BITMAP
3F00
7F80
E1C0
C0C0
01C0
3FC0
70C0
E0C0
C0C0
C1C0
C3C0
7EE0
3C60
ENDCHAR
STARTCHAR 0431
ENCODING 1073
SWIDTH 1000 0
DWIDTH 24 0
BBX 12 18 6 0
BITMAP
00E0
03C0
0F80
1C00
3000
6000
6F80
FFC0
F0E0
E070
C030
C030
C030
C030
6070
70E0
3FC0
0F80
ENDCHAR
STARTCHAR 0432
ENCODING 1074
SWIDTH 1000 0
DWIDTH 24 0
BBX 10 12 7 1
BITMAP
FE00
FF80
C180
C180
C180
FF00
FF80
C1C0
C0C0
C1C0
FFC0
FF00
ENDCHAR
STARTCHAR 0433
ENCODING 1075
SWIDTH 1000 0
DWIDTH 24 0
BBX 9 12 8 1
BITMAP
FF80
FF80
C000
C000
C000
C000
C000
C000
C000
C000
C000
C000
ENDCHAR
STARTCHAR 0434
ENCODING 1076
SWIDTH 1000 0
DWIDTH 24 0
BBX 13 14 5 -2
BITMAP
0FE0
0FE0
0C60
0C60
0C60
1860
1860
1860
3060
3060
FFF8
FFF8
C018
C018
ENDCHAR
STARTCHAR 0435
ENCODING 1077
SWIDTH 1000 0
DWIDTH 24 0
BBX 12 13 6 0
BITMAP
0F00
3FC0
70C0
6060
C020
FFF0
FFF0
C000
C000
6070
70E0
3FC0
0F80
ENDCHAR
STARTCHAR 0436
ENCODING 1078
SWIDTH 1000 0
DWIDTH 24 0
BBX 16 11 4 2
BITMAP
6186
618E
318C
399C
1FF0
1FF8
1998
318C
318C
6186
E187
ENDCHAR
STARTCHAR 0437
ENCODING 1079
SWIDTH 1000 0
DWIDTH 24 0
BBX 10 13 7 0
BITMAP
3E00
7F00
E180
0180
0380
1F00
1F80
00C0
00C0
C0C0
E1C0
7F80
3F00
ENDCHAR
STARTCHAR 0438
ENCODING 1080
SWIDTH 1000 0
DWIDTH 24 0
BBX 10 12 7 1
BITMAP
C0C0
C0C0
C1C0
C3C0
C7C0
CEC0
DCC0
F8C0
F0C0
E0C0
C0C0
C0C0
ENDCHAR
STARTCHAR 0439
ENCODING 1081
SWIDTH 1000 0
DWIDTH 24 0
BBX 10 16 7 1
BITMAP
6180
2100
1E00
0000
C0C0
C0C0
C1C0
C3C0
C7C0
CEC0
DCC0
F8C0
F0C0
E0C0
C0C0
C0C0
ENDCHAR
STARTCHAR 043A
ENCODING 1082
SWIDTH 1000 0
DWIDTH 24 0
BBX 11 11 7 2
BITMAP
C0C0
C180
C180
C700
FE00
FE00
C700
C380
C180
C0C0
C0E0
ENDCHAR
STARTCHAR 043B
ENCODING 1083
SWIDTH 1000 0
DWIDTH 24 0
BBX 13 13 4 0
BITMAP
07F8
07F8
0618
0618
0618
0618
0618
0618
0618
C618
EC18
7C18
3800
ENDCHAR
STARTCHAR 043C
ENCODING 1084
SWIDTH 1000 0
DWIDTH 24 0
BBX 12 12 6 1
BITMAP
E0F0
F0F0
F0F0
F0F0
D9B0
D9B0
D9B0
CB30
CF30
CF30
C630
C630
ENDCHAR
STARTCHAR 043D
ENCODING 1085
SWIDTH 1000 0
DWIDTH 24 0
BBX 10 11 7 1
BITMAP
C0C0
C0C0
C0C0
C0C0
FFC0
FFC0
C0C0
C0C0
C0C0
C0C0
C0C0
ENDCHAR
STARTCHAR 043E
ENCODING 1086
SWIDTH 1000 0
DWIDTH 24 0
BBX 12 13 6 0
BITMAP
0F00
3FC0
70E0
6060
C030
C030
C030
C030
C030
6060
30E0
3FC0
0F00
ENDCHAR
STARTCHAR 043F
ENCODING 1087
SWIDTH 1000 0
DWIDTH 24 0
BBX 10 12 7 1
BITMAP
FFC0
FFC0
C0C0
C0C0
C0C0
C0C0
C0C0
C0C0
C0C0
C0C0
C0C0
C0C0
ENDCHAR
STARTCHAR 0440
ENCODING 1088
SWIDTH 1000 0
DWIDTH 24 0
BBX 12 15 7 -3
BITMAP
CF80
FFC0
F0E0
E070
C030
C030
C030
C030
E070
F0E0
FFC0
CF80
C000
C000
C000
ENDCHAR
STARTCHAR 0441
ENCODING 1089
SWIDTH 1000 0
DWIDTH 24 0
BBX 12 13 6 0
BITMAP
0F80
3FC0
70E0
6060
C000
C000
C000
C000
C070
6060
70E0
3FC0
0F00
ENDCHAR
STARTCHAR 0442
ENCODING 1090
SWIDTH 1000 0
DWIDTH 24 0
BBX 10 12 7 1
BITMAP
FFC0
FFC0
0C00
0C00
0C00
0C00
0C00
0C00
0C00
0C00
0C00
0C00
ENDCHAR
STARTCHAR 0443
ENCODING 1091
SWIDTH 1000 0
DWIDTH 24 0
BBX 12 15 6 -3
BITMAP
E030
6030
6060
3060
30C0
18C0
19C0
0D80
0D80
0700
0700
0600
0600
3C00
7C00
ENDCHAR
STARTCHAR 0444
ENCODING 1092
SWIDTH 1000 0
DWIDTH 24 0
BBX 16 20 4 -2
BITMAP
0180
0180
0180
0180
0180
3FFC
7FFE
63C6
C183
C183
C183
C183
C183
C183
63C6
7FFE
3DBC
0180
0180
0180
ENDCHAR
STARTCHAR 0445
ENCODING 1093
SWIDTH 1000 0
DWIDTH 24 0
BBX 13 12 6 1
BITMAP
E070
70E0
39C0
1980
0F00
0600
0F00
1F80
39C0
70E0
E070
C038
ENDCHAR
STARTCHAR 0446
ENCODING 1094
SWIDTH 1000 0
DWIDTH 24 0
BBX 12 14 7 -2
BITMAP
C0C0
C0C0
C0C0
C0C0
C0C0
C0C0
C0C0
C0C0
C0C0
C0C0
FFF0
FFF0
0030
0030
ENDCHAR
STARTCHAR 0447
ENCODING 1095
SWIDTH 1000 0
DWIDTH 24 0
BBX 10 12 7 1
BITMAP
C0C0
C0C0
C0C0
C0C0
C0C0
E1C0
7FC0
3CC0
00C0
00C0
00C0
00C0
ENDCHAR
STARTCHAR 0448
ENCODING 1096
SWIDTH 1000 0
DWIDTH 24 0
BBX 16 12 4 1
BITMAP
C183
C183
C183
C183
C183
C183
C183
C183
C183
C183
FFFF
FFFF
ENDCHAR
STARTCHAR 0449
ENCODING 1097
SWIDTH 1000 0
DWIDTH 24 0
BBX 17 14 4 -2
BITMAP
C18600
C18600
C18600
C18600
C18600
C18600
C18600
C18600
C18600
C18600
FFFF80
FFFF80
000180
000180
ENDCHAR
STARTCHAR 044A
ENCODING 1098
SWIDTH 1000 0
DWIDTH 24 0
BBX 13 12 5 1
BITMAP
F800
F800
1800
1800
1FE0
1FF0
1838
1818
1818
1838
1FF0
1FE0
ENDCHAR
STARTCHAR 044B
ENCODING 1099
SWIDTH 1000 0
DWIDTH 24 0
BBX 14 12 5 1
BITMAP
C00C
C00C
C00C
C00C
FF0C
FF8C
C1CC
C0CC
C0CC
C1CC
FF8C
FF0C
ENDCHAR
STARTCHAR 044C
ENCODING 1100
SWIDTH 1000 0
DWIDTH 24 0
BBX 11 12 7 1
BITMAP
C000
C000
C000
C000
FF80
FFC0
C0E0
C060
C060
C0E0
FFC0
FF00
ENDCHAR
STARTCHAR 044D
ENCODING 1101
SWIDTH 1000 0
DWIDTH 24 0
BBX 12 13 6 0
BITMAP
1F80
3FC0
70E0
E070
0030
1F30
1F30
0030
E030
6060
70E0
3FC0
1F00
ENDCHAR
STARTCHAR 044E
ENCODING 1102
SWIDTH 1000 0
DWIDTH 24 0
BBX 16 13 4 0
BITMAP
C0F8
C3FC
C70E
C606
C403
FC03
FC03
CC03
C403
C606
C30E
C3FC
00F8
ENDCHAR
STARTCHAR 044F
ENCODING 1103
SWIDTH 1000 0
DWIDTH 24 0
BBX 11 12 6 1
BITMAP
1FE0
3FE0
6060
6060
6060
3FE0
1FE0
0C60
1860
3060
7060
E060
ENDCHAR
STARTCHAR 0451
ENCODING 1105
SWIDTH 1000 0
DWIDTH 24 0
BBX 12 17 6 0
BITMAP
30C0
30C0
0000
0000
0F00
3FC0
70C0
6060
C020
FFF0
FFF0
C000
C000
6070
70E0
3FC0
0F80
ENDCHAR
STARTCHAR 1E3E
ENCODING 7742
SWIDTH 916 0
DWIDTH 22 0
BBX 17 22 2 -1
BITMAP
006000
00C000
00C000
018000
000000
E00380
F00780
F00780
F00580
D80D80
D80D80
CC1980
CC1980
CC3980
C63180
C63180
C36180
C36180
C36180
C1C180
C1C180
C08180
ENDCHAR
STARTCHAR 1E3F
ENCODING 7743
SWIDTH 875 0
DWIDTH 21 0
BBX 17 17 2 1
BITMAP
006000
00C000
008000
000000
000000
DE1E00
FF7F00
E3E380
C18180
C18180
C18180
C18180
C18180
C18180
C18180
C18180
C18180
ENDCHAR
STARTCHAR 1F70
ENCODING 8048
SWIDTH 625 0
DWIDTH 15 0
BBX 12 17 1 1
BITMAP
0C00
0400
0600
0000
0000
1FB0
3FF0
7070
E030
C030
C030
C030
C030
E070
70F0
3FF0
1F10
ENDCHAR
STARTCHAR 1F71
ENCODING 8049
SWIDTH 625 0
DWIDTH 15 0
BBX 12 17 1 1
BITMAP
0180
0300
0200
0000
0000
1FB0
3FF0
7070
E030
C030
C030
C030
C030
E070
70F0
3FF0
1F10
ENDCHAR
STARTCHAR 1F72
ENCODING 8050
SWIDTH 500 0
DWIDTH 12 0
BBX 10 17 1 1
BITMAP
1800
0C00
0400
0000
0000
1FC0
3FC0
7000
6000
7000
1F00
7C00
C000
C000
E000
7FC0
3FC0
ENDCHAR
STARTCHAR 1F73
ENCODING 8051
SWIDTH 500 0
DWIDTH 12 0
BBX 10 17 1 1
BITMAP
0300
0600
0600
0000
0000
1FC0
3FC0
7000
6000
7000
1F00
7C00
C000
C000
E000
7FC0
3FC0
ENDCHAR
STARTCHAR 2002
ENCODING 8194
SWIDTH 500 0
DWIDTH 12 0
BBX 0 0 0 0
BITMAP
ENDCHAR
STARTCHAR 2003
ENCODING 8195
SWIDTH 1000 0
DWIDTH 24 0
BBX 0 0 0 0
BITMAP
ENDCHAR
STARTCHAR 2010
ENCODING 8208
SWIDTH 375 0
DWIDTH 9 0
BBX 6 2 1 6
BITMAP
FC
FC
ENDCHAR
STARTCHAR 2011
ENCODING 8209
SWIDTH 375 0
DWIDTH 9 0
BBX 6 2 1 6
BITMAP
FC
FC
ENDCHAR
STARTCHAR 2012
ENCODING 8210
SWIDTH 375 0
DWIDTH 9 0
BBX 6 2 1 6
BITMAP
FC
FC
ENDCHAR
STARTCHAR 2013
ENCODING 8211
SWIDTH 541 0
DWIDTH 13 0
BBX 11 1 1 7
BITMAP
FFE0
ENDCHAR
STARTCHAR 2014
ENCODING 8212
SWIDTH 958 0
DWIDTH 23 0
BBX 21 2 1 8
BITMAP
FFFFF8
FFFFF8
ENDCHAR
STARTCHAR 2015
ENCODING 8213
SWIDTH 1000 0
DWIDTH 24 0
BBX 20 2 2 8
BITMAP
FFFFF0
FFFFF0
ENDCHAR
STARTCHAR 2016
ENCODING 8214
SWIDTH 1000 0
DWIDTH 24 0
BBX 6 24 9 -2
BITMAP
CC
CC
CC
CC
CC
CC
CC
CC
CC
CC
CC
CC
CC
CC
CC
CC
CC
CC
CC
CC
CC
CC
CC
CC
ENDCHAR
STARTCHAR 2018
ENCODING 8216
SWIDTH 1000 0
DWIDTH 24 0
BBX 4 7 19 14
BITMAP
30
60
40
C0
E0
E0
E0
ENDCHAR
STARTCHAR 2019
ENCODING 8217
SWIDTH 1000 0
DWIDTH 24 0
BBX 4 7 1 13
BITMAP
70
70
70
30
20
60
C0
ENDCHAR
STARTCHAR 201C
ENCODING 8220
SWIDTH 1000 0
DWIDTH 24 0
BBX 9 7 14 14
BITMAP
3180
6300
4200
C600
E700
E700
E700
ENDCHAR
STARTCHAR 201D
ENCODING 8221
SWIDTH 1000 0
DWIDTH 24 0
BBX 9 7 1 13
BITMAP
7380
7380
7380
3180
2100
6300
C600
ENDCHAR
STARTCHAR 2020
ENCODING 8224
SWIDTH 1000 0
DWIDTH 24 0
BBX 11 22 6 -2
BITMAP
0E00
0E00
0E00
0E00
E4E0
FFE0
FFE0
64C0
0E00
0E00
0E00
0400
0400
0400
0400
0400
0400
0400
0400
0400
0400
0400
ENDCHAR
STARTCHAR 2021
ENCODING 8225
SWIDTH 1000 0
DWIDTH 24 0
BBX 10 22 7 -2
BITMAP
0C00
0C00
0C00
EDC0
FFC0
EDC0
0C00
0C00
0C00
0C00
0C00
0C00
0C00
0C00
0C00
0C00
EDC0
FFC0
EDC0
0C00
0C00
0C00
ENDCHAR
STARTCHAR 2022
ENCODING 8226
SWIDTH 375 0
DWIDTH 9 0
BBX 6 6 1 6
BITMAP
78
FC
FC
FC
FC
78
ENDCHAR
STARTCHAR 2025
ENCODING 8229
SWIDTH 1000 0
DWIDTH 24 0
BBX 14 3 5 7
BITMAP
E01C
E01C
E01C
ENDCHAR
STARTCHAR 2026
ENCODING 8230
SWIDTH 1000 0
DWIDTH 24 0
BBX 18 3 3 7
BITMAP
E0E1C0
E0E1C0
E0E1C0
ENDCHAR
STARTCHAR 2030
ENCODING 8240
SWIDTH 1000 0
DWIDTH 24 0
BBX 22 22 1 -2
BITMAP
000600
000C00
780C00
781800
CC1000
CC3000
CC6000
CC4000
CCC000
798000
798000
037878
027878
06CCCC
0CCCCC
0CCCCC
18CCCC
10CCCC
307878
607878
400000
C00000
ENDCHAR
STARTCHAR 2032
ENCODING 8242
SWIDTH 291 0
DWIDTH 7 0
BBX 3 6 2 13
BITMAP
60
40
C0
C0
80
80
ENDCHAR
STARTCHAR 2033
ENCODING 8243
SWIDTH 458 0
DWIDTH 11 0
BBX 6 6 2 13
BITMAP
64
4C
CC
C8
88
88
ENDCHAR
STARTCHAR 203B
ENCODING 8251
SWIDTH 1000 0
DWIDTH 24 0
BBX 20 20 2 -2
BITMAP
000020
C0E070
60E060
30E0C0
180180
0C0300
060600
030C00
019800
70F0E0
7060E0
70F0E0
019800
030C00
060600
0C0300
18E180
30E0C0
60E060
400020
ENDCHAR
STARTCHAR 203C
ENCODING 8252
SWIDTH 500 0
DWIDTH 12 0
BBX 8 17 2 0
BITMAP
C3
C3
C3
C3
C3
C3
C3
C3
C3
C3
C3
C3
00
00
C3
C3
C3
ENDCHAR
STARTCHAR 203E
ENCODING 8254
SWIDTH 500 0
DWIDTH 12 0
BBX 6 1 3 15
BITMAP
FC
ENDCHAR
STARTCHAR 203F
ENCODING 8255
SWIDTH 458 0
DWIDTH 11 0
BBX 11 3 0 -3
BITMAP
C060
60C0
1F00
ENDCHAR
STARTCHAR 2042
ENCODING 8258
SWIDTH 1000 0
DWIDTH 24 0
BBX 18 18 3 0
BITMAP
00C000
00C000
06D800
03A000
00C000
07F800
06D800
00C000
000000
000000
180600
DB36C0
F73BC0
180600
761D80
DB36C0
180600
180600
ENDCHAR
STARTCHAR 2047
ENCODING 8263
SWIDTH 1000 0
DWIDTH 24 0
BBX 22 18 1 0
BITMAP
1F01E0
3FC7F8
70EE1C
E06C0C
C06C0C
00600C
00E01C
01C018
038030
060060
040040
0C00C0
0C00C0
000000
000000
0C00C0
0C00C0
0C00C0
ENDCHAR
STARTCHAR 2048
ENCODING 8264
SWIDTH 750 0
DWIDTH 18 0
BBX 15 17 1 0
BITMAP
1F06
7FC6
70E6
C066
4066
0066
00C6
0186
0306
0406
0C06
0C06
0000
0000
0C06
0C06
0C06
ENDCHAR
STARTCHAR 2049
ENCODING 8265
SWIDTH 791 0
DWIDTH 19 0
BBX 15 17 2 0
BITMAP
C1F0
C7FC
C70E
CE06
C406
C006
C00C
C018
C030
C020
C060
C060
0000
0000
C060
C060
C060
ENDCHAR
STARTCHAR 2051
ENCODING 8273
SWIDTH 1000 0
DWIDTH 24 0
BBX 8 18 8 0
BITMAP
18
DB
F7
18
76
DB
18
18
00
00
18
18
DB
76
18
F7
DB
18
ENDCHAR
STARTCHAR 205A
ENCODING 8282
SWIDTH 1000 0
DWIDTH 24 0
BBX 3 14 11 2
BITMAP
E0
E0
E0
00
00
00
00
00
00
00
00
E0
E0
E0
ENDCHAR
STARTCHAR 205D
ENCODING 8285
SWIDTH 1000 0
DWIDTH 24 0
BBX 3 18 11 0
BITMAP
E0
E0
E0
00
00
00
00
00
E0
E0
E0
00
00
00
00
E0
E0
E0
ENDCHAR
STARTCHAR 20AC
ENCODING 8364
SWIDTH 625 0
DWIDTH 15 0
BBX 13 17 1 0
BITMAP
07E0
0FF8
1C10
3800
3000
FFF0
6000
6000
6000
FFF0
7000
3000
3000
3800
1C38
0FF0
03E0
ENDCHAR
STARTCHAR 2103
ENCODING 8451
SWIDTH 1000 0
DWIDTH 24 0
BBX 20 19 1 1
BITMAP
780000
CC0000
843F00
84FFC0
CDC1E0
7B8060
030070
060000
060000
060000
060000
060000
060000
070030
030070
038060
01C1E0
00FFC0
003F00
ENDCHAR
STARTCHAR 210F
ENCODING 8463
SWIDTH 583 0
DWIDTH 14 0
BBX 11 18 1 0
BITMAP
1800
1800
1B00
7F00
B000
3000
33C0
37E0
6C60
7860
7060
6060
60C0
E0C0
C0C0
C0C0
C0C0
C180
ENDCHAR
STARTCHAR 2113
ENCODING 8467
SWIDTH 1000 0
DWIDTH 24 0
BBX 12 17 6 0
BITMAP
03C0
07E0
0E60
0C60
1860
1860
3860
30C0
30C0
3180
3180
3300
3620
3C30
7860
EFC0
0780
ENDCHAR
STARTCHAR 2116
ENCODING 8470
SWIDTH 1000 0
DWIDTH 24 0
BBX 21 17 2 1
BITMAP
E18000
E18000
E18000
F18000
F18000
D18F00
D99F80
C999C0
CDB0C0
CDB0C0
C5B0C0
C7B0C0
C7B0C0
C3B0C0
C39980
C39F98
C18F18
ENDCHAR
STARTCHAR 2121
ENCODING 8481
SWIDTH 1000 0
DWIDTH 24 0
BBX 22 17 1 1
BITMAP
FF8000
FF8000
180000
180000
18FCC0
18FCC0
18C0C0
18C0C0
18C0C0
18FCC0
18FCC0
18C0C0
18C0C0
18C0C0
18C0C0
18FCFC
18FCFC
ENDCHAR
STARTCHAR 2127
ENCODING 8487
SWIDTH 833 0
DWIDTH 20 0
BBX 16 17 2 0
BITMAP
FC3F
FC3F
0C30
1818
300C
300C
6006
6006
6006
6006
6006
6006
700E
381C
1C38
0FF0
07E0
ENDCHAR
STARTCHAR 212B
ENCODING 8491
SWIDTH 1000 0
DWIDTH 24 0
BBX 16 19 4 1
BITMAP
0180
0240
0240
0180
0000
0180
03C0
03C0
0660
0660
0C30
0C30
1818
1FF8
3FFC
300C
700E
6006
E007
ENDCHAR
STARTCHAR 2135
ENCODING 8501
SWIDTH 708 0
DWIDTH 17 0
BBX 14 17 1 -1
BITMAP
1010
2020
6030
6018
7034
3864
1E40
3FC0
63C0
60E0
6078
6018
300C
300C
300C
7018
E030
ENDCHAR
STARTCHAR 2153
ENCODING 8531
SWIDTH 833 0
DWIDTH 20 0
BBX 17 19 2 -1
BITMAP
300200
F00400
B00C00
301800
301000
303000
306000
304000
308000
319F00
033180
020180
040300
0C0E00
180180
100180
203180
601F00
400000
ENDCHAR
STARTCHAR 2154
ENCODING 8532
SWIDTH 833 0
DWIDTH 20 0
BBX 18 18 1 -1
BITMAP
000100
3C0300
460600
460400
0E0C00
381800
603000
402000
FE6700
00C8C0
0088C0
0180C0
030780
060780
0400C0
0C08C0
1818C0
100F80
ENDCHAR
STARTCHAR 2155
ENCODING 8533
SWIDTH 833 0
DWIDTH 20 0
BBX 17 19 2 -1
BITMAP
300200
F00400
B00C00
301800
301000
303000
306000
304000
308000
019F80
031000
021000
041F00
0C1180
180180
100180
203180
601F00
400000
ENDCHAR
STARTCHAR 2160
ENCODING 8544
SWIDTH 1000 0
DWIDTH 24 0
BBX 2 17 11 1
BITMAP
C0
C0
C0
C0
C0
C0
C0
C0
C0
C0
C0
C0
C0
C0
C0
C0
C0
ENDCHAR
STARTCHAR 2161
ENCODING 8545
SWIDTH 1000 0
DWIDTH 24 0
BBX 8 17 8 2
BITMAP
C3
C3
C3
C3
C3
C3
C3
C3
C3
C3
C3
C3
C3
C3
C3
C3
C3
ENDCHAR
STARTCHAR 2162
ENCODING 8546
SWIDTH 1000 0
DWIDTH 24 0
BBX 14 17 5 2
BITMAP
C30C
C30C
C30C
C30C
C30C
C30C
C30C
C30C
C30C
C30C
C30C
C30C
C30C
C30C
C30C
C30C
C30C
ENDCHAR
STARTCHAR 2163
ENCODING 8547
SWIDTH 1000 0
DWIDTH 24 0
BBX 18 17 4 1
BITMAP
CC01C0
CC0180
CE0180
C60380
C60300
C70300
C30700
C30600
C38600
C18E00
C18C00
C0CC00
C0D800
C0D800
C07800
C07000
C07000
ENDCHAR
STARTCHAR 2164
ENCODING 8548
SWIDTH 1000 0
DWIDTH 24 0
BBX 16 17 4 1
BITMAP
E007
6006
700E
300C
300C
381C
1818
1818
0C38
0C30
0E70
0660
0660
07E0
03C0
03C0
0180
ENDCHAR
STARTCHAR 2165
ENCODING 8549
SWIDTH 1000 0
DWIDTH 24 0
BBX 18 17 2 1
BITMAP
E00CC0
600CC0
601CC0
7018C0
3018C0
3038C0
3830C0
1830C0
1870C0
1C60C0
0C60C0
0CC0C0
0EC0C0
06C0C0
0780C0
0380C0
0380C0
ENDCHAR
STARTCHAR 2166
ENCODING 8550
SWIDTH 1000 0
DWIDTH 24 0
BBX 20 17 2 1
BITMAP
C06630
C06630
C06630
E0E630
60C630
60C630
61C630
318630
318630
318630
338630
1B0630
1B0630
1B0630
0E0630
0E0630
0E0630
ENDCHAR
STARTCHAR 2167
ENCODING 8551
SWIDTH 1000 0
DWIDTH 24 0
BBX 21 17 1 1
BITMAP
C06CD8
C0CCD8
60CCD8
60CCD8
60CCD8
618CD8
318CD8
318CD8
318CD8
330CD8
1B0CD8
1B0CD8
1B0CD8
1A0CD8
0E0CD8
0E0CD8
0E0CD8
ENDCHAR
STARTCHAR 2168
ENCODING 8552
SWIDTH 1000 0
DWIDTH 24 0
BBX 18 17 4 1
BITMAP
C70380
C30300
C38700
C1C600
C0CE00
C0EC00
C07800
C03800
C03800
C07800
C0EC00
C0CE00
C1C600
C38700
C30380
C70180
CE01C0
ENDCHAR
STARTCHAR 2169
ENCODING 8553
SWIDTH 1000 0
DWIDTH 24 0
BBX 16 17 4 1
BITMAP
700E
381C
1818
1C38
0E70
0660
03C0
03C0
03C0
03C0
0660
0E70
1C38
381C
381C
700E
E007
ENDCHAR
STARTCHAR 216A
ENCODING 8554
SWIDTH 1000 0
DWIDTH 24 0
BBX 18 17 2 1
BITMAP
6038C0
3030C0
3870C0
18E0C0
1CC0C0
0DC0C0
0780C0
0780C0
0700C0
0780C0
0DC0C0
1CC0C0
1860C0
3870C0
7030C0
6038C0
E01CC0
ENDCHAR
STARTCHAR 216B
ENCODING 8555
SWIDTH 1000 0
DWIDTH 24 0
BBX 20 17 2 1
BITMAP
E0E630
60C630
31C630
318630
1B8630
1B0630
0F0630
0E0630
0E0630
0F0630
1B0630
1B8630
318630
70C630
60C630
E06630
C06630
ENDCHAR
STARTCHAR 2170
ENCODING 8560
SWIDTH 1000 0
DWIDTH 24 0
BBX 3 16 11 1
BITMAP
E0
E0
00
00
00
C0
C0
C0
C0
C0
C0
C0
C0
C0
C0
C0
ENDCHAR
STARTCHAR 2171
ENCODING 8561
SWIDTH 1000 0
DWIDTH 24 0
BBX 8 16 8 1
BITMAP
C3
C3
00
00
00
C3
C3
C3
C3
C3
C3
C3
C3
C3
C3
C3
ENDCHAR
STARTCHAR 2172
ENCODING 8562
SWIDTH 1000 0
DWIDTH 24 0
BBX 12 16 6 1
BITMAP
C630
C630
0000
0000
0000
C630
C630
C630
C630
C630
C630
C630
C630
C630
C630
C630
ENDCHAR
STARTCHAR 2173
ENCODING 8563
SWIDTH 1000 0
DWIDTH 24 0
BBX 15 16 5 1
BITMAP
C000
C000
0000
0000
0000
CC06
CE0E
C60C
C60C
C318
C318
C3B0
C1B0
C1B0
C0E0
C0E0
ENDCHAR
STARTCHAR 2174
ENCODING 8564
SWIDTH 1000 0
DWIDTH 24 0
BBX 12 12 6 1
BITMAP
C030
E070
6060
6060
30C0
30C0
39C0
1980
1980
0F00
0F00
0F00
ENDCHAR
STARTCHAR 2175
ENCODING 8565
SWIDTH 1000 0
DWIDTH 24 0
BBX 15 16 4 1
BITMAP
0006
0006
0000
0000
0000
C066
E0E6
60C6
60C6
3186
3186
1B86
1B06
1B06
0E06
0E06
ENDCHAR
STARTCHAR 2176
ENCODING 8566
SWIDTH 1000 0
DWIDTH 24 0
BBX 19 17 2 2
BITMAP
000C60
000C60
000000
000000
000000
E06C60
60CC60
60CC60
30CC60
318C60
318C60
1B0C60
1B0C60
1B0C60
0E0C60
0E0C60
0E0C60
ENDCHAR
STARTCHAR 2177
ENCODING 8567
SWIDTH 1000 0
DWIDTH 24 0
BBX 20 17 2 2
BITMAP
001B30
001B30
000000
000000
000000
C0DB30
C0DB30
C19B30
619B30
631B30
331B30
331B30
361B30
1E1B30
1E1B30
1C1B30
0C1B30
ENDCHAR
STARTCHAR 2178
ENCODING 8568
SWIDTH 1000 0
DWIDTH 24 0
BBX 16 17 5 1
BITMAP
C000
C000
0000
0000
0000
CE06
C70C
C31C
C1B8
C0F0
C0E0
C0F0
C1F0
C398
C70C
C60E
CC07
ENDCHAR
STARTCHAR 2179
ENCODING 8569
SWIDTH 1000 0
DWIDTH 24 0
BBX 13 12 6 1
BITMAP
E070
70E0
39C0
1980
0F00
0600
0F00
1F80
39C0
70E0
E070
C038
ENDCHAR
STARTCHAR 217A
ENCODING 8570
SWIDTH 1000 0
DWIDTH 24 0
BBX 16 17 3 1
BITMAP
0003
0003
0000
0000
0000
6073
30E3
39C3
1D83
0F83
0703
0F03
1F83
19C3
30E3
7063
E033
ENDCHAR
STARTCHAR 217B
ENCODING 8571
SWIDTH 1000 0
DWIDTH 24 0
BBX 18 17 3 2
BITMAP
000CC0
000CC0
000000
000000
000000
61CCC0
718CC0
330CC0
1B0CC0
1E0CC0
0E0CC0
1E0CC0
1F0CC0
330CC0
718CC0
61CCC0
C0CCC0
ENDCHAR
STARTCHAR 2190
ENCODING 8592
SWIDTH 1000 0
DWIDTH 24 0
BBX 20 8 2 5
BITMAP
0C0000
180000
700000
FFFFF0
FFFFF0
700000
180000
0C0000
ENDCHAR
STARTCHAR 2191
ENCODING 8593
SWIDTH 1000 0
DWIDTH 24 0
BBX 8 20 8 -1
BITMAP
18
3C
7E
7E
DB
99
18
18
18
18
18
18
18
18
18
18
18
18
18
18
ENDCHAR
STARTCHAR 2192
ENCODING 8594
SWIDTH 1000 0
DWIDTH 24 0
BBX 20 8 2 5
BITMAP
000700
000180
0000E0
FFFFF0
FFFFF0
0000E0
000180
000300
ENDCHAR
STARTCHAR 2193
ENCODING 8595
SWIDTH 1000 0
DWIDTH 24 0
BBX 8 20 8 -1
BITMAP
18
18
18
18
18
18
18
18
18
18
18
18
18
99
99
DB
7E
3C
3C
18
ENDCHAR
STARTCHAR 2194
ENCODING 8596
SWIDTH 750 0
DWIDTH 18 0
BBX 16 10 1 3
BITMAP
0820
1830
1818
300C
6006
FFFF
6006
300C
1818
0C30
ENDCHAR
STARTCHAR 2196
ENCODING 8598
SWIDTH 1000 0
DWIDTH 24 0
BBX 17 17 4 1
BITMAP
FE0000
FF0000
F00000
F80000
DC0000
CE0000
C70000
438000
01C000
00E000
007000
003800
001C00
000E00
000700
000380
000100
ENDCHAR
STARTCHAR 2197
ENCODING 8599
SWIDTH 1000 0
DWIDTH 24 0
BBX 17 17 3 1
BITMAP
003F80
007F80
000780
000F80
001D80
003980
007180
00E100
01C000
038000
070000
0E0000
1C0000
380000
700000
E00000
400000
ENDCHAR
STARTCHAR 2198
ENCODING 8600
SWIDTH 1000 0
DWIDTH 24 0
BBX 17 17 3 0
BITMAP
400000
E00000
700000
380000
1C0000
0E0000
070000
038000
01C000
00E100
007180
003980
001D80
000F80
000780
007F80
003F80
ENDCHAR
STARTCHAR 2199
ENCODING 8601
SWIDTH 1000 0
DWIDTH 24 0
BBX 17 17 4 0
BITMAP
000100
000380
000700
000E00
001C00
003800
007000
00E000
01C000
438000
C70000
CE0000
DC0000
F80000
F00000
FF0000
FE0000
ENDCHAR
STARTCHAR 21C4
ENCODING 8644
SWIDTH 1000 0
DWIDTH 24 0
BBX 20 18 2 0
BITMAP
000700
000180
0000E0
FFFFF0
FFFFF0
0000E0
000180
000700
000000
0E0000
1C0000
380000
700000
FFFFF0
FFFFF0
700000
180000
0E0000
ENDCHAR
STARTCHAR 21D2
ENCODING 8658
SWIDTH 750 0
DWIDTH 18 0
BBX 16 11 1 2
BITMAP
0020
0030
0018
FFFC
0006
0003
0006
FFFC
0018
0030
0020
ENDCHAR
STARTCHAR 21D4
ENCODING 8660
SWIDTH 750 0
DWIDTH 18 0
BBX 16 11 1 2
BITMAP
0420
0C30
1818
3FFC
6006
C003
6006
3FFC
1818
0C30
0420
ENDCHAR
STARTCHAR 21E6
ENCODING 8678
SWIDTH 1000 0
DWIDTH 24 0
BBX 20 8 2 5
BITMAP
0C0000
140000
67FFF0
800010
800010
67FFF0
140000
0C0000
ENDCHAR
STARTCHAR 21E7
ENCODING 8679
SWIDTH 1000 0
DWIDTH 24 0
BBX 8 20 8 0
BITMAP
18
24
24
42
81
E7
24
24
24
24
24
24
24
24
24
24
24
24
24
3C
ENDCHAR
STARTCHAR 21E8
ENCODING 8680
SWIDTH 1000 0
DWIDTH 24 0
BBX 20 8 2 5
BITMAP
000300
000280
FFFE60
800010
800010
FFFE60
000280
000300
ENDCHAR
STARTCHAR 21E9
ENCODING 8681
SWIDTH 1000 0
DWIDTH 24 0
BBX 8 20 8 -2
BITMAP
3C
24
24
24
24
24
24
24
24
24
24
24
24
E7
81
42
42
24
18
18
ENDCHAR
STARTCHAR 2200
ENCODING 8704
SWIDTH 750 0
DWIDTH 18 0
BBX 16 18 1 -1
BITMAP
8000
C003
C002
6006
6006
300C
3FFC
1818
1818
0830
0C30
0460
0660
0240
03C0
0380
0180
0100
ENDCHAR
STARTCHAR 2202
ENCODING 8706
SWIDTH 583 0
DWIDTH 14 0
BBX 12 19 1 -1
BITMAP
0F80
3FC0
10E0
0060
0030
0030
0030
1F30
3FB0
70F0
6070
C070
C060
C060
C060
C0C0
61C0
7F80
1E00
ENDCHAR
STARTCHAR 2203
ENCODING 8707
SWIDTH 750 0
DWIDTH 18 0
BBX 12 17 3 0
BITMAP
FFF0
0010
0010
0010
0010
0010
0010
FFF0
0010
0010
0010
0010
0010
0010
0010
0010
FFF0
ENDCHAR
STARTCHAR 2205
ENCODING 8709
SWIDTH 791 0
DWIDTH 19 0
BBX 15 16 2 1
BITMAP
07C0
1836
201C
401C
4034
8066
80C2
8182
8302
8602
CC02
5804
700C
7008
9830
07C0
ENDCHAR
STARTCHAR 2207
ENCODING 8711
SWIDTH 750 0
DWIDTH 18 0
BBX 16 17 1 -1
BITMAP
FFFF
FFFE
6006
6004
3004
3008
1808
1818
0C10
0C30
0620
0660
0740
03C0
0380
0180
0100
ENDCHAR
STARTCHAR 2208
ENCODING 8712
SWIDTH 666 0
DWIDTH 16 0
BBX 14 12 1 2
BITMAP
0FFC
3800
6000
6000
C000
C000
FFFC
C000
4000
6000
3000
0FFC
ENDCHAR
STARTCHAR 2209
ENCODING 8713
SWIDTH 666 0
DWIDTH 16 0
BBX 14 16 1 0
BITMAP
0020
0060
0FFC
3840
60C0
6080
C080
C180
FFFC
C300
C200
6600
3600
0FFC
0C00
0800
ENDCHAR
STARTCHAR 220B
ENCODING 8715
SWIDTH 666 0
DWIDTH 16 0
BBX 13 12 2 2
BITMAP
FF80
00E0
0030
0010
0018
0018
FFF8
0018
0018
0030
0060
FF80
ENDCHAR
STARTCHAR 2212
ENCODING 8722
SWIDTH 666 0
DWIDTH 16 0
BBX 13 1 2 7
BITMAP
FFF8
ENDCHAR
STARTCHAR 2213
ENCODING 8723
SWIDTH 666 0
DWIDTH 16 0
BBX 13 13 1 0
BITMAP
FFF8
0000
0200
0200
0200
0200
0200
FFF8
0200
0200
0200
0200
0200
ENDCHAR
STARTCHAR 2219
ENCODING 8729
SWIDTH 250 0
DWIDTH 6 0
BBX 3 3 2 6
BITMAP
E0
E0
E0
ENDCHAR
STARTCHAR 221A
ENCODING 8730
SWIDTH 625 0
DWIDTH 15 0
BBX 14 22 1 -1
BITMAP
000C
000C
0008
0018
0018
0010
0030
0030
0020
0060
0060
1040
30C0
30C0
3880
6980
4D00
CD00
8700
0600
0600
0200
ENDCHAR
STARTCHAR 221D
ENCODING 8733
SWIDTH 666 0
DWIDTH 16 0
BBX 12 7 2 5
BITMAP
3C70
4680
8300
8300
8380
4680
3870
ENDCHAR
STARTCHAR 221E
ENCODING 8734
SWIDTH 666 0
DWIDTH 16 0
BBX 14 7 1 4
BITMAP
3870
4688
8304
8304
8384
4488
3870
ENDCHAR
STARTCHAR 221F
ENCODING 8735
SWIDTH 666 0
DWIDTH 16 0
BBX 12 14 2 3
BITMAP
8000
8000
8000
8000
8000
8000
8000
8000
8000
8000
8000
8000
8000
FFF0
ENDCHAR
STARTCHAR 2220
ENCODING 8736
SWIDTH 666 0
DWIDTH 16 0
BBX 14 14 1 3
BITMAP
0180
0100
0300
0200
0600
0400
0C00
1800
1800
3000
3000
6000
4000
FFFC
ENDCHAR
STARTCHAR 2225
ENCODING 8741
SWIDTH 666 0
DWIDTH 16 0
BBX 13 21 2 -2
BITMAP
0010
0318
0330
0230
0620
0660
0460
0C40
0CC0
08C0
1880
1980
3180
3100
3300
6300
6600
4600
C600
CC00
8C00
ENDCHAR
STARTCHAR 2226
ENCODING 8742
SWIDTH 666 0
DWIDTH 16 0
BBX 14 21 1 -1
BITMAP
018C
0188
0118
0318
4330
E230
3620
1E60
0C60
0F40
0FC0
08C0
18E0
19B8
319C
3100
2300
6300
6600
4600
0200
ENDCHAR
STARTCHAR 2227
ENCODING 8743
SWIDTH 666 0
DWIDTH 16 0
BBX 13 13 2 0
BITMAP
0600
0600
0F00
0900
1980
1080
30C0
3040
6060
6020
4030
C010
8018
ENDCHAR
STARTCHAR 2228
ENCODING 8744
SWIDTH 666 0
DWIDTH 16 0
BBX 13 13 2 2
BITMAP
8018
C010
4030
6020
2060
2040
30C0
1080
1980
0900
0F00
0600
0600
ENDCHAR
STARTCHAR 2229
ENCODING 8745
SWIDTH 666 0
DWIDTH 16 0
BBX 12 14 2 0
BITMAP
1F80
30C0
4020
C030
8010
8010
8010
8010
8010
8010
8010
8010
8010
8010
ENDCHAR
STARTCHAR 222A
ENCODING 8746
SWIDTH 666 0
DWIDTH 16 0
BBX 12 15 2 0
BITMAP
8010
8010
8010
8010
8010
8010
8010
8010
8010
8010
8010
4030
4020
30C0
1F80
ENDCHAR
STARTCHAR 222B
ENCODING 8747
SWIDTH 583 0
DWIDTH 14 0
BBX 12 22 1 -5
BITMAP
01C0
03E0
0330
0230
0200
0600
0600
0600
0600
0600
0600
0600
0600
0400
0400
0400
0C00
0C00
CC00
CC00
F800
7000
ENDCHAR
STARTCHAR 222C
ENCODING 8748
SWIDTH 916 0
DWIDTH 22 0
BBX 20 22 1 -5
BITMAP
01C1C0
03E3E0
033330
023330
020200
060200
060600
060600
060600
060600
060600
060600
060600
040600
040600
040400
0C0400
0C0400
CCCC00
CCCC00
F87800
707800
ENDCHAR
STARTCHAR 222E
ENCODING 8750
SWIDTH 583 0
DWIDTH 14 0
BBX 12 22 1 -5
BITMAP
01C0
03E0
0330
0230
0200
0600
0600
0600
1F00
2680
2680
2680
2480
1F00
0400
0400
0C00
0C00
CC00
CC00
F800
7000
ENDCHAR
STARTCHAR 2234
ENCODING 8756
SWIDTH 666 0
DWIDTH 16 0
BBX 13 11 2 2
BITMAP
0700
0700
0700
0000
0000
0000
0000
0000
E038
E038
E038
ENDCHAR
STARTCHAR 2235
ENCODING 8757
SWIDTH 666 0
DWIDTH 16 0
BBX 13 11 2 2
BITMAP
E038
E038
E038
0000
0000
0000
0000
0000
0700
0700
0700
ENDCHAR
STARTCHAR 223C
ENCODING 8764
SWIDTH 500 0
DWIDTH 12 0
BBX 8 3 2 14
BITMAP
70
D9
0E
ENDCHAR
STARTCHAR 223D
ENCODING 8765
SWIDTH 666 0
DWIDTH 16 0
BBX 14 7 1 5
BITMAP
38F0
41F8
838C
8304
C704
7E08
3C30
ENDCHAR
STARTCHAR 2243
ENCODING 8771
SWIDTH 666 0
DWIDTH 16 0
BBX 14 7 1 4
BITMAP
3C00
660C
4188
0070
0000
0000
FFFC
ENDCHAR
STARTCHAR 2245
ENCODING 8773
SWIDTH 666 0
DWIDTH 16 0
BBX 14 9 1 3
BITMAP
3C04
6388
C0F0
0000
0000
FFFC
0000
0000
FFFC
ENDCHAR
STARTCHAR 2248
ENCODING 8776
SWIDTH 666 0
DWIDTH 16 0
BBX 14 7 1 4
BITMAP
3C04
4388
C0F0
0000
3C00
638C
40F0
ENDCHAR
STARTCHAR 2252
ENCODING 8786
SWIDTH 666 0
DWIDTH 16 0
BBX 13 15 2 0
BITMAP
7000
7000
7000
0000
FFF8
0000
0000
0000
0000
FFF8
0000
0000
00E0
00E0
00E0
ENDCHAR
STARTCHAR 2260
ENCODING 8800
SWIDTH 666 0
DWIDTH 16 0
BBX 13 15 2 1
BITMAP
0080
0180
0100
0100
FFF8
0200
0200
0600
0400
FFF8
0C00
0800
0800
1800
1000
ENDCHAR
STARTCHAR 2261
ENCODING 8801
SWIDTH 666 0
DWIDTH 16 0
BBX 13 9 2 3
BITMAP
FFF8
0000
0000
0000
FFF8
0000
0000
0000
FFF8
ENDCHAR
STARTCHAR 2262
ENCODING 8802
SWIDTH 666 0
DWIDTH 16 0
BBX 13 15 2 0
BITMAP
0080
0180
0180
FFF8
0300
0300
0200
FFF8
0600
0400
0C00
FFF8
0800
1800
1800
ENDCHAR
STARTCHAR 2266
ENCODING 8806
SWIDTH 666 0
DWIDTH 16 0
BBX 14 15 1 1
BITMAP
0004
003C
01E0
0F00
7800
E000
1E00
03C0
0078
000C
0000
FFFC
0000
0000
FFFC
ENDCHAR
STARTCHAR 2267
ENCODING 8807
SWIDTH 666 0
DWIDTH 16 0
BBX 14 14 1 2
BITMAP
F000
1E00
03C0
0038
001C
00F0
0F80
7800
4000
0000
FFFC
0000
0000
FFFC
ENDCHAR
STARTCHAR 226A
ENCODING 8810
SWIDTH 666 0
DWIDTH 16 0
BBX 14 13 1 1
BITMAP
018C
0318
0630
1CE0
3180
6300
C600
6300
3980
0C60
0630
0398
0084
ENDCHAR
STARTCHAR 226B
ENCODING 8811
SWIDTH 666 0
DWIDTH 16 0
BBX 14 13 1 1
BITMAP
C600
6300
39C0
0C60
0630
039C
018C
0318
0630
1CE0
3180
6300
4600
ENDCHAR
STARTCHAR 2276
ENCODING 8822
SWIDTH 666 0
DWIDTH 16 0
BBX 14 16 1 1
BITMAP
001C
00F0
0F80
7800
7000
1F00
01E0
C03C
7800
0F80
00F0
000C
00F0
0F80
F800
C000
ENDCHAR
STARTCHAR 2277
ENCODING 8823
SWIDTH 666 0
DWIDTH 16 0
BBX 14 16 1 1
BITMAP
E000
3E00
03C0
0078
003C
01E0
1F00
F00C
007C
07C0
3C00
6000
3C00
03C0
007C
000C
ENDCHAR
STARTCHAR 2282
ENCODING 8834
SWIDTH 666 0
DWIDTH 16 0
BBX 14 12 1 2
BITMAP
0FFC
3000
6000
4000
8000
8000
8000
8000
4000
4000
3000
0FFC
ENDCHAR
STARTCHAR 2283
ENCODING 8835
SWIDTH 666 0
DWIDTH 16 0
BBX 13 12 2 2
BITMAP
FF80
0060
0010
0010
0008
0008
0008
0008
0018
0010
0060
FF80
ENDCHAR
STARTCHAR 2284
ENCODING 8836
SWIDTH 666 0
DWIDTH 16 0
BBX 14 16 1 0
BITMAP
0010
0030
0FFC
3060
6040
40C0
80C0
8080
8180
8100
C100
4300
3200
0FFC
0400
0400
ENDCHAR
STARTCHAR 2285
ENCODING 8837
SWIDTH 666 0
DWIDTH 16 0
BBX 13 17 2 -1
BITMAP
0180
0100
FFC0
03E0
0230
0618
0408
0C08
0C08
0808
1818
1010
1060
FF80
2000
6000
2000
ENDCHAR
STARTCHAR 2286
ENCODING 8838
SWIDTH 666 0
DWIDTH 16 0
BBX 14 15 1 1
BITMAP
1FFC
3000
4000
8000
8000
8000
8000
8000
4000
6000
1FFC
0000
0000
0000
7FFC
ENDCHAR
STARTCHAR 2287
ENCODING 8839
SWIDTH 666 0
DWIDTH 16 0
BBX 13 15 2 1
BITMAP
FFC0
0020
0010
0008
0008
0008
0008
0008
0010
0030
FFC0
0000
0000
0000
FFF8
ENDCHAR
STARTCHAR 228A
ENCODING 8842
SWIDTH 666 0
DWIDTH 16 0
BBX 14 17 1 -1
BITMAP
1FFC
3000
4000
8000
8000
8000
8000
8000
4000
6000
1FFC
0000
0080
0180
7FFC
0200
0200
ENDCHAR
STARTCHAR 228B
ENCODING 8843
SWIDTH 666 0
DWIDTH 16 0
BBX 13 16 2 -1
BITMAP
FFC0
0020
0010
0008
0008
0008
0008
0008
0010
0030
FFC0
0000
0100
0300
FFF8
0400
ENDCHAR
STARTCHAR 2295
ENCODING 8853
SWIDTH 833 0
DWIDTH 20 0
BBX 17 17 1 0
BITMAP
03E000
0C1800
308600
208200
408100
408100
808080
9FFC80
808080
808080
808080
408100
408100
208200
300600
0C1800
03E000
ENDCHAR
STARTCHAR 2296
ENCODING 8854
SWIDTH 833 0
DWIDTH 20 0
BBX 18 17 1 0
BITMAP
03F000
0C0C00
100200
200100
400080
400080
800040
9FFE40
800040
800040
800040
400080
400080
200100
100200
0C0C00
03F000
ENDCHAR
STARTCHAR 2297
ENCODING 8855
SWIDTH 833 0
DWIDTH 20 0
BBX 18 17 1 0
BITMAP
03F000
0C0C00
100200
200500
4C0C80
461880
833040
81E040
80C040
81E040
833040
461880
4C0C80
200500
100200
0C0C00
03F000
ENDCHAR
STARTCHAR 22A5
ENCODING 8869
SWIDTH 666 0
DWIDTH 16 0
BBX 13 14 1 3
BITMAP
0200
0200
0200
0200
0200
0200
0200
0200
0200
0200
0200
0200
0200
FFF8
ENDCHAR
STARTCHAR 22BF
ENCODING 8895
SWIDTH 666 0
DWIDTH 16 0
BBX 14 14 1 3
BITMAP
0004
000C
001C
0034
0064
00C4
0184
0304
0604
0C04
1804
3004
6004
FFFC
ENDCHAR
STARTCHAR 22DA
ENCODING 8922
SWIDTH 666 0
DWIDTH 16 0
BBX 14 17 1 -1
BITMAP
0004
00FC
1F80
E000
7E00
03F0
001C
0000
FFFC
0000
E000
7F00
03F0
000C
01F8
7F00
E000
ENDCHAR
STARTCHAR 22DB
ENCODING 8923
SWIDTH 666 0
DWIDTH 16 0
BBX 14 16 1 0
BITMAP
FC00
07E0
001C
01F8
3F00
E000
0000
FFFC
0000
001C
01F8
3F00
E000
3F00
03F8
001C
ENDCHAR
STARTCHAR 2305
ENCODING 8965
SWIDTH 666 0
DWIDTH 16 0
BBX 14 10 1 1
BITMAP
FFFC
0300
0780
0680
04C0
0C40
0860
1860
1020
3030
ENDCHAR
STARTCHAR 2306
ENCODING 8966
SWIDTH 666 0
DWIDTH 16 0
BBX 14 15 1 0
BITMAP
FFFC
0000
0000
0000
FFFC
0300
0780
0680
04C0
0CC0
0840
1860
1820
1030
1020
ENDCHAR
STARTCHAR 2312
ENCODING 8978
SWIDTH 1000 0
DWIDTH 24 0
BBX 22 5 1 14
BITMAP
03FE00
1FFFE0
7C00F8
E0001C
800004
ENDCHAR
STARTCHAR 2318
ENCODING 8984
SWIDTH 1000 0
DWIDTH 24 0
BBX 20 20 2 -1
BITMAP
7801E0
8C0330
840210
840210
C40230
7FFFE0
040200
040200
040200
040200
040200
040200
040200
040200
7FFFE0
C40230
840210
840210
CC0330
7801E0
ENDCHAR
STARTCHAR 23BE
ENCODING 9150
SWIDTH 1000 0
DWIDTH 24 0
BBX 13 24 12 -4
BITMAP
FFF8
8000
8000
8000
8000
8000
8000
8000
8000
8000
8000
8000
8000
8000
8000
8000
8000
8000
8000
8000
8000
8000
8000
8000
ENDCHAR
STARTCHAR 23BF
ENCODING 9151
SWIDTH 1000 0
DWIDTH 24 0
BBX 13 24 12 -2
BITMAP
8000
8000
8000
8000
8000
8000
8000
8000
8000
8000
8000
8000
8000
8000
8000
8000
8000
8000
8000
8000
8000
8000
8000
FFF8
ENDCHAR
STARTCHAR 23C0
ENCODING 9152
SWIDTH 1000 0
DWIDTH 24 0
BBX 19 24 3 -2
BITMAP
004000
004000
004000
03F800
0C4600
104100
204080
4040C0
404040
804020
804020
804020
804020
804020
804060
404040
6040C0
304180
184300
0C4E00
03F800
004000
004000
004000
ENDCHAR
STARTCHAR 23C1
ENCODING 9153
SWIDTH 1000 0
DWIDTH 24 0
BBX 25 24 0 -4
BITMAP
FFFFFF80
00080000
00080000
007F0000
0188C000
02086000
04081000
08081800
08080800
10080C00
10080400
10080400
10080400
10080400
10080400
08080800
0C081800
04081000
02082000
0188C000
007F0000
00080000
00080000
00080000
ENDCHAR
STARTCHAR 23C2
ENCODING 9154
SWIDTH 1000 0
DWIDTH 24 0
BBX 25 24 0 -2
BITMAP
00080000
00080000
00080000
007F0000
0188C000
02082000
04081000
08081800
08080800
10080C00
10080400
10080400
10080400
10080400
10080400
08080800
08081800
04083000
02086000
0188C000
007F0000
00080000
00080000
FFFFFF80
ENDCHAR
STARTCHAR 23C3
ENCODING 9155
SWIDTH 1000 0
DWIDTH 24 0
BBX 21 24 2 -2
BITMAP
002000
002000
002000
002000
007000
007000
00A800
01AC00
012400
022200
022200
042100
042100
082080
182040
102040
202020
202020
402010
FFFFF8
002000
002000
002000
002000
ENDCHAR
STARTCHAR 23C4
ENCODING 9156
SWIDTH 1000 0
DWIDTH 24 0
BBX 25 24 0 -3
BITMAP
FFFFFF80
00080000
00080000
00080000
001C0000
001C0000
002A0000
002A0000
00490000
00C98000
00888000
01084000
01084000
02082000
06083000
04081000
08080800
08080800
10080400
3FFFFE00
00080000
00080000
00080000
00080000
ENDCHAR
STARTCHAR 23C5
ENCODING 9157
SWIDTH 1000 0
DWIDTH 24 0
BBX 25 24 0 -2
BITMAP
00080000
00080000
00080000
00080000
001C0000
001C0000
002A0000
006B0000
00490000
00888000
00888000
01084000
01084000
02082000
06081000
04081000
08080800
08080800
10080400
3FFFFE00
00080000
00080000
00080000
FFFFFF80
ENDCHAR
STARTCHAR 23C6
ENCODING 9158
SWIDTH 1000 0
DWIDTH 24 0
BBX 21 24 2 -2
BITMAP
002000
002000
002000
002000
002000
002000
002000
002000
002000
3E2000
C1A000
806000
003008
002C10
0023E0
002000
002000
002000
002000
002000
002000
002000
002000
002000
ENDCHAR
STARTCHAR 23C7
ENCODING 9159
SWIDTH 1000 0
DWIDTH 24 0
BBX 25 24 0 -4
BITMAP
FFFFFF80
00080000
00080000
00080000
00080000
00080000
00080000
00080000
00080000
0F880000
10680000
20180000
000C0200
000B0400
0008F800
00080000
00080000
00080000
00080000
00080000
00080000
00080000
00080000
00080000
ENDCHAR
STARTCHAR 23C8
ENCODING 9160
SWIDTH 1000 0
DWIDTH 24 0
BBX 25 24 0 -2
BITMAP
00080000
00080000
00080000
00080000
00080000
00080000
00080000
00080000
00080000
0F880000
10680000
20180000
000C0200
000B0400
0008F800
00080000
00080000
00080000
00080000
00080000
00080000
00080000
00080000
FFFFFF80
ENDCHAR
STARTCHAR 23C9
ENCODING 9161
SWIDTH 1000 0
DWIDTH 24 0
BBX 25 24 0 -4
BITMAP
FFFFFF80
00080000
00080000
00080000
00080000
00080000
00080000
00080000
00080000
00080000
00080000
00080000
00080000
00080000
00080000
00080000
00080000
00080000
00080000
00080000
00080000
00080000
00080000
00080000
ENDCHAR
STARTCHAR 23CA
ENCODING 9162
SWIDTH 1000 0
DWIDTH 24 0
BBX 25 24 0 -2
BITMAP
00080000
00080000
00080000
00080000
00080000
00080000
00080000
00080000
00080000
00080000
00080000
00080000
00080000
00080000
00080000
00080000
00080000
00080000
00080000
00080000
00080000
00080000
00080000
FFFFFF80
ENDCHAR
STARTCHAR 23CB
ENCODING 9163
SWIDTH 1000 0
DWIDTH 24 0
BBX 13 24 -1 -4
BITMAP
FFF8
0008
0008
0008
0008
0008
0008
0008
0008
0008
0008
0008
0008
0008
0008
0008
0008
0008
0008
0008
0008
0008
0008
0008
ENDCHAR
STARTCHAR 23CC
ENCODING 9164
SWIDTH 1000 0
DWIDTH 24 0
BBX 13 24 -1 -2
BITMAP
0008
0008
0008
0008
0008
0008
0008
0008
0008
0008
0008
0008
0008
0008
0008
0008
0008
0008
0008
0008
0008
0008
0008
FFF8
ENDCHAR
STARTCHAR 23CE
ENCODING 9166
SWIDTH 1000 0
DWIDTH 24 0
BBX 20 20 2 -2
BITMAP
0007F0
000410
000410
000410
000410
000410
010410
030410
070410
0D0410
19FC10
300010
400010
800010
400030
300060
19FFC0
0D0000
070000
030000
ENDCHAR
STARTCHAR 2423
ENCODING 9251
SWIDTH 1000 0
DWIDTH 24 0
BBX 18 5 3 0
BITMAP
800040
800040
800040
800040
FFFFC0
ENDCHAR
STARTCHAR 2460
ENCODING 9312
SWIDTH 1000 0
DWIDTH 24 0
BBX 23 22 0 -2
BITMAP
00FE00
030180
0C0060
181830
307818
60F808
409804
C01804
801802
801802
801802
801802
801802
801802
401804
401804
201808
301818
181830
0C0060
030180
00FE00
ENDCHAR
STARTCHAR 2461
ENCODING 9313
SWIDTH 1000 0
DWIDTH 24 0
BBX 22 23 1 -2
BITMAP
00FC00
030300
0C00C0
180060
307830
21FE10
418708
430308
830304
800304
800604
800C04
803804
806004
80C004
418008
418008
23FF10
33FF30
180060
0C00C0
030300
00FC00
ENDCHAR
STARTCHAR 2462
ENCODING 9314
SWIDTH 1000 0
DWIDTH 24 0
BBX 22 22 1 -2
BITMAP
01FC00
070300
1C00C0
107C20
21FE10
638710
430308
C00308
800304
801E04
807C04
800704
800384
800184
470188
430188
238710
21FF10
107C20
0C00C0
030300
00FC00
ENDCHAR
STARTCHAR 2463
ENCODING 9315
SWIDTH 1000 0
DWIDTH 24 0
BBX 23 23 1 -2
BITMAP
00FE00
030180
0C0040
180030
301C18
201C08
403C04
407C04
806C02
80CC02
818C02
838C02
830C02
860C02
87FF82
47FF84
400C04
200C08
300C18
180C30
0C0060
030180
00FE00
ENDCHAR
STARTCHAR 2464
ENCODING 9316
SWIDTH 1000 0
DWIDTH 24 0
BBX 22 23 1 -2
BITMAP
00FC00
070300
0C00C0
180060
31FF30
21FF10
418008
418008
818004
81BC04
81FE04
818704
810304
800304
800304
400308
438608
21FE10
30F830
180060
0C00C0
030300
00FC00
ENDCHAR
STARTCHAR 2465
ENCODING 9317
SWIDTH 1000 0
DWIDTH 24 0
BBX 22 22 1 -2
BITMAP
01FC00
070300
1C00C0
107C20
20FE10
61C710
418308
C30008
830004
837C04
83FE04
838604
830304
830304
430308
410308
218610
20FE10
107820
0C00C0
030300
00FC00
ENDCHAR
STARTCHAR 2466
ENCODING 9318
SWIDTH 1000 0
DWIDTH 24 0
BBX 22 22 1 -2
BITMAP
01FC00
070300
0C00C0
100020
23FF10
63FF10
400308
C00608
800604
800C04
800C04
800C04
801804
801804
403008
403008
203010
206010
106020
0C00C0
030300
00FC00
ENDCHAR
STARTCHAR 2467
ENCODING 9319
SWIDTH 1000 0
DWIDTH 24 0
BBX 22 22 1 -2
BITMAP
01FC00
070300
1C00C0
107820
21FE10
638710
430308
C30308
830304
818604
80FC04
81FE04
838704
860184
460188
460188
238710
23FF10
10FC20
0C00C0
030300
00FC00
ENDCHAR
STARTCHAR 2468
ENCODING 9320
SWIDTH 1000 0
DWIDTH 24 0
BBX 22 22 1 -2
BITMAP
01FC00
070300
1C00C0
107820
21FE10
61C610
438108
C30188
830184
830184
818384
81FD84
807B84
800384
430388
418308
218710
20FE10
107C20
0C00C0
030300
00FC00
ENDCHAR
STARTCHAR 2469
ENCODING 9321
SWIDTH 1000 0
DWIDTH 24 0
BBX 23 22 0 -2
BITMAP
00FE00
030180
0C0060
190730
370F98
6F18C8
4B18C4
C33064
833062
833062
833062
833062
833062
833062
433064
4318C4
2318C8
330F98
180730
0C0060
030180
00FE00
ENDCHAR
STARTCHAR 246A
ENCODING 9322
SWIDTH 1000 0
DWIDTH 24 0
BBX 22 22 1 -2
BITMAP
01FC00
070300
1C00C0
310120
270710
6F0F10
4B0B08
C30308
830304
830304
830304
830304
830304
830304
430308
430308
230310
230310
100020
0C00C0
030300
00FC00
ENDCHAR
STARTCHAR 246B
ENCODING 9323
SWIDTH 1000 0
DWIDTH 24 0
BBX 23 23 0 -2
BITMAP
00FE00
030180
040060
180030
330F18
2F1F88
4F19C4
4330C4
8330C2
8300C2
830182
830382
830702
830E02
830C02
431804
431804
233FC8
333FD8
180030
0C0060
030180
00FE00
ENDCHAR
STARTCHAR 246C
ENCODING 9324
SWIDTH 1000 0
DWIDTH 24 0
BBX 23 22 0 -2
BITMAP
00FE00
030180
0C0060
190F30
371F98
6F19C8
4B30C4
C300C4
8300C2
830182
830782
8300C2
830062
830062
433064
433064
2318E8
331FD8
180FB0
0C0060
030180
00FE00
ENDCHAR
STARTCHAR 246D
ENCODING 9325
SWIDTH 1000 0
DWIDTH 24 0
BBX 24 23 0 -3
BITMAP
00FE00
0381C0
0C0020
1900D8
3701C8
6F03C4
4B03C2
4306C2
830EC1
830CC1
8318C1
8338C1
8330C1
833FF1
833FF1
4300C2
4300C2
2300C4
1300C8
180018
040020
0381C0
007E00
ENDCHAR
STARTCHAR 246E
ENCODING 9326
SWIDTH 1000 0
DWIDTH 24 0
BBX 23 23 0 -2
BITMAP
00FE00
030180
040060
180030
131FD8
271FC8
4F1804
4B1004
831002
831782
831FC2
8318E2
830062
830062
830062
433064
4338C4
231FC8
330F18
180030
0C0060
030180
00FE00
ENDCHAR
STARTCHAR 246F
ENCODING 9327
SWIDTH 1000 0
DWIDTH 24 0
BBX 23 22 0 -2
BITMAP
00FE00
030180
0C0060
190730
370F98
6F18C8
4B18C4
C33004
833002
833782
833FC2
8338E2
833062
833062
433064
433064
2318C8
331FD8
1807B0
0C0060
030180
00FE00
ENDCHAR
STARTCHAR 2470
ENCODING 9328
SWIDTH 1000 0
DWIDTH 24 0
BBX 23 23 0 -2
BITMAP
00FE00
030180
040060
180030
333FD8
273FC8
4F00C4
4B0084
830182
830182
830302
830302
830302
830602
830602
430604
430C04
230C08
330C18
180030
0C0060
030180
00FE00
ENDCHAR
STARTCHAR 2471
ENCODING 9329
SWIDTH 1000 0
DWIDTH 24 0
BBX 23 22 0 -2
BITMAP
00FE00
030180
0C0060
190F30
371F98
6F39C8
4B30C4
C330C4
8339C2
831F82
830F82
8318C2
833062
833062
433064
433064
2338E8
331FD8
180FB0
0C0060
030180
00FE00
ENDCHAR
STARTCHAR 2472
ENCODING 9330
SWIDTH 1000 0
DWIDTH 24 0
BBX 23 22 0 -2
BITMAP
00FE00
030180
0C0060
190F30
371FD8
6F18C8
4B3064
C33064
833062
833062
8338E2
831FE2
830F62
830062
4300E4
4310C4
2319C8
331F98
180F30
0C0060
030180
00FE00
ENDCHAR
STARTCHAR 2473
ENCODING 9331
SWIDTH 1000 0
DWIDTH 24 0
BBX 22 23 1 -2
BITMAP
00FC00
070300
0C00C0
180060
33C3B0
27C7D0
4C66C8
4C6C68
8C6C64
806C64
80CC64
818C64
818C64
830C64
860C64
460C68
4C06C8
2FE7D0
3FE3B0
180060
0C00C0
030300
00FC00
ENDCHAR
STARTCHAR 24D0
ENCODING 9424
SWIDTH 1000 0
DWIDTH 24 0
BBX 22 22 1 -2
BITMAP
01FC00
070300
0C00C0
100020
200010
600010
407808
C1FC08
818604
800604
80FE04
81C604
830604
830604
410E08
40F308
200010
200010
100020
0C00C0
030300
00FC00
ENDCHAR
STARTCHAR 24D1
ENCODING 9425
SWIDTH 1000 0
DWIDTH 24 0
BBX 23 22 1 -2
BITMAP
01FE00
070180
1C0060
198030
318018
618008
418004
C19E04
81A302
81C302
818182
818182
818182
818182
41C304
41E304
21BE08
300018
180030
0C0060
030180
00FE00
ENDCHAR
STARTCHAR 24D2
ENCODING 9426
SWIDTH 1000 0
DWIDTH 24 0
BBX 22 22 1 -2
BITMAP
01FC00
070300
1C00C0
100020
200010
600010
407808
C1FC08
818604
830004
830004
830004
830304
818604
41FC08
407808
200010
200010
100020
0C00C0
030300
00FC00
ENDCHAR
STARTCHAR 24D3
ENCODING 9427
SWIDTH 1000 0
DWIDTH 24 0
BBX 23 22 0 -2
BITMAP
00FE00
030180
0C0060
180330
300318
600308
400304
C0F304
818B02
838702
830302
830302
830302
830302
418704
418F04
207B08
300018
180030
0C0060
030180
00FE00
ENDCHAR
STARTCHAR 24D4
ENCODING 9428
SWIDTH 1000 0
DWIDTH 24 0
BBX 22 23 1 -3
BITMAP
01FC00
070300
0C00C0
180060
300030
600010
407808
418408
818604
830204
83FF04
83FF04
830004
830304
818204
418608
407808
200010
300030
180060
0C00C0
030300
00FC00
ENDCHAR
STARTCHAR 24D5
ENCODING 9429
SWIDTH 1000 0
DWIDTH 24 0
BBX 23 24 0 -3
BITMAP
007E00
038380
040040
080030
100010
201E08
403E04
403004
C03004
803002
81FE02
81FE02
803002
803002
803002
C03004
403004
403004
203008
103010
180030
0C0040
030180
00FE00
ENDCHAR
STARTCHAR 24D6
ENCODING 9430
SWIDTH 1000 0
DWIDTH 24 0
BBX 23 22 0 -2
BITMAP
00FE00
030180
0C0060
180030
300018
607D08
40C704
C18304
818302
818302
818302
80C702
807B02
800302
408304
40C604
207C08
300018
180030
0C0060
030180
00FE00
ENDCHAR
STARTCHAR 24D7
ENCODING 9431
SWIDTH 1000 0
DWIDTH 24 0
BBX 24 22 0 -2
BITMAP
00FF00
0381C0
0C0030
180018
30C00C
60C004
40C002
C0C002
80DF01
80FF81
80E181
80C181
80C181
80C181
40C182
40C182
20C184
30C18C
180018
0C0030
0381C0
007F00
ENDCHAR
STARTCHAR 24D8
ENCODING 9432
SWIDTH 1000 0
DWIDTH 24 0
BBX 22 22 1 -2
BITMAP
01FC00
070300
1C00C0
100020
203010
603010
400008
C00008
803004
803004
803004
803004
803004
803004
403008
403008
203010
203010
100020
0C00C0
030300
00FC00
ENDCHAR
STARTCHAR 24D9
ENCODING 9433
SWIDTH 1000 0
DWIDTH 24 0
BBX 23 22 1 -2
BITMAP
00FE00
070180
0C1860
181830
301818
600008
400004
C01804
801802
801802
801802
801802
801802
801802
401804
401804
201808
30F818
18F030
0C0060
030180
00FE00
ENDCHAR
STARTCHAR 24DA
ENCODING 9434
SWIDTH 1000 0
DWIDTH 24 0
BBX 23 23 0 -2
BITMAP
007E00
018180
060060
080030
100018
20C008
40C004
40C004
80C002
80C302
80C602
80CC02
80D802
80FC02
80E602
40C604
40C304
20C188
300018
180030
0C0060
030180
00FE00
ENDCHAR
STARTCHAR 24DB
ENCODING 9435
SWIDTH 1000 0
DWIDTH 24 0
BBX 22 22 1 -2
BITMAP
01FC00
070300
1C00C0
300020
203010
603010
403008
C03008
803004
803004
803004
803004
803004
803004
403008
403008
203010
203010
100020
0C00C0
030300
00FC00
ENDCHAR
STARTCHAR 24DC
ENCODING 9436
SWIDTH 1000 0
DWIDTH 24 0
BBX 22 22 1 -2
BITMAP
01FC00
070300
1C00C0
100020
200010
600010
46E708
C7FF88
873984
863184
863184
863184
863184
863184
463188
463188
200010
200010
100020
0C00C0
030300
00FC00
ENDCHAR
STARTCHAR 24DD
ENCODING 9437
SWIDTH 1000 0
DWIDTH 24 0
BBX 22 22 1 -2
BITMAP
01FC00
070300
0C00C0
100020
200010
600010
41BC08
C1FE08
81C604
818604
818604
818604
818604
818604
418608
418608
200010
200010
100020
0C00C0
030300
00FC00
ENDCHAR
STARTCHAR 24DE
ENCODING 9438
SWIDTH 1000 0
DWIDTH 24 0
BBX 22 22 1 -2
BITMAP
01FC00
070300
1C00C0
100020
200010
600010
407808
C1FE08
818604
830304
830304
830304
830304
818604
41FE08
407808
200010
200010
100020
0C00C0
030300
00FC00
ENDCHAR
STARTCHAR 24DF
ENCODING 9439
SWIDTH 1000 0
DWIDTH 24 0
BBX 23 22 1 -2
BITMAP
01FE00
070180
1C0060
380030
300018
61BC08
41E304
C1C304
818182
818182
818182
818182
81C302
81E302
41BE04
418004
218008
300018
180030
0C0060
030180
00FE00
ENDCHAR
STARTCHAR 24E0
ENCODING 9440
SWIDTH 1000 0
DWIDTH 24 0
BBX 23 22 0 -2
BITMAP
00FE00
030180
0C0060
180030
300018
60F308
418F04
C38704
830302
830302
830302
830302
818702
818F02
40FB04
400304
200308
300018
180030
0C0060
030180
00FE00
ENDCHAR
STARTCHAR 24E1
ENCODING 9441
SWIDTH 1000 0
DWIDTH 24 0
BBX 22 22 1 -2
BITMAP
01FC00
070300
1C00C0
100020
200010
600010
400108
C06708
807C04
807004
806004
806004
806004
806004
406008
406008
200010
200010
100020
0C00C0
030300
00FC00
ENDCHAR
STARTCHAR 24E2
ENCODING 9442
SWIDTH 1000 0
DWIDTH 24 0
BBX 22 22 1 -2
BITMAP
01FC00
070300
1C00C0
100020
200010
600010
40F808
C18C08
818604
81C004
80F804
803C04
800E04
818604
418608
407808
200010
200010
100020
0C00C0
030300
00FC00
ENDCHAR
STARTCHAR 24E3
ENCODING 9443
SWIDTH 1000 0
DWIDTH 24 0
BBX 23 23 0 -2
BITMAP
00FE00
030180
040060
180030
100018
203008
403004
403004
80FE02
80FE02
803002
803002
803002
803002
803002
403004
403E04
203E08
300018
180030
0C0060
030180
00FE00
ENDCHAR
STARTCHAR 24E4
ENCODING 9444
SWIDTH 1000 0
DWIDTH 24 0
BBX 22 22 1 -2
BITMAP
01FC00
070300
0C00C0
100020
200010
600010
418608
C18608
818604
818604
818604
818604
818604
818E04
41FE08
40F608
200010
200010
100020
0C00C0
030300
00FC00
ENDCHAR
STARTCHAR 24E5
ENCODING 9445
SWIDTH 1000 0
DWIDTH 24 0
BBX 22 22 1 -2
BITMAP
01FC00
070300
1C00C0
100020
200010
600010
400008
C30308
830304
818604
818604
80CC04
80CC04
807804
407808
403008
200010
200010
100020
0C00C0
030300
00FC00
ENDCHAR
STARTCHAR 24E6
ENCODING 9446
SWIDTH 1000 0
DWIDTH 24 0
BBX 22 22 1 -2
BITMAP
01FC00
070300
1C00C0
100020
200010
600010
400008
CC30C8
8C30C4
8478C4
867984
864984
82CD04
83CF04
438708
418608
200010
200010
100020
0C00C0
030300
00FC00
ENDCHAR
STARTCHAR 24E7
ENCODING 9447
SWIDTH 1000 0
DWIDTH 24 0
BBX 22 24 1 -3
BITMAP
00FC00
030300
0400C0
180060
100020
200010
400008
430708
818608
80CC04
807804
807804
807804
80FC04
81CC04
C18608
430308
400008
200010
300030
180060
0C00C0
030300
00FC00
ENDCHAR
STARTCHAR 24E8
ENCODING 9448
SWIDTH 1000 0
DWIDTH 24 0
BBX 22 22 1 -2
BITMAP
01FC00
070300
1C00C0
100020
200010
630190
418308
C18308
80C604
80C604
806C04
806C04
803804
803804
403008
403008
21E010
21C010
100020
0C00C0
030300
00FC00
ENDCHAR
STARTCHAR 24E9
ENCODING 9449
SWIDTH 1000 0
DWIDTH 24 0
BBX 22 24 1 -3
BITMAP
00FC00
030300
0400C0
180060
100020
200010
400008
41FE08
81FE08
800E04
801804
803004
806004
80C004
818004
C3FE08
43FE08
400008
200010
300030
180060
0C00C0
030300
00FC00
ENDCHAR
STARTCHAR 24EB
ENCODING 9451
SWIDTH 1000 0
DWIDTH 24 0
BBX 23 22 1 -2
BITMAP
00FE00
07FF80
0FFFE0
1EFF70
38FC78
70F878
74FA7C
FCFE7C
FCFE7E
FCFE7E
FCFE7E
FCFE7E
FCFE7E
FCFE7E
7CFE7C
7CFE7C
3CFE78
3CFE78
1FFFF0
0FFFE0
03FF80
00FE00
ENDCHAR
STARTCHAR 24EC
ENCODING 9452
SWIDTH 1000 0
DWIDTH 24 0
BBX 22 22 1 -2
BITMAP
00FC00
07FF00
0FFFC0
1FFFE0
39F0F0
61E670
61CF38
F9CF38
F9CF3C
F9FE3C
F9FC7C
F9F8FC
F9F1FC
F9E3FC
79E7F8
79C7F8
79CFF0
39C030
1FFFE0
0FFFC0
03FF00
00FC00
ENDCHAR
STARTCHAR 24ED
ENCODING 9453
SWIDTH 1000 0
DWIDTH 24 0
BBX 22 22 1 -2
BITMAP
01FC00
07FF00
1FFFC0
3DF1E0
31E070
61CE30
69CF38
F9FF38
F9FF3C
F9FE7C
F9F0FC
F9FE7C
F9FF3C
F9FF3C
79DF38
79CF38
39CE70
39C070
1FF0E0
0FFFC0
03FF00
00FC00
ENDCHAR
STARTCHAR 24EE
ENCODING 9454
SWIDTH 1000 0
DWIDTH 24 0
BBX 23 23 1 -3
BITMAP
01FC00
07FF80
1FFFC0
1DFE70
31FC70
61FC78
69F87C
F9F27C
F9F27E
F9E67E
F9CE7E
F9CE7E
F99E7E
F9801E
F9801E
79FE7C
79FE7C
39FE78
39FE78
1FFFF0
0FFFE0
03FF80
00FE00
ENDCHAR
STARTCHAR 24EF
ENCODING 9455
SWIDTH 1000 0
DWIDTH 24 0
BBX 22 23 1 -2
BITMAP
00FC00
07FF00
0FFFC0
1FFFE0
39C070
71C070
61CFF8
69CFF8
F9CFFC
F9C8FC
F9C07C
F9CE3C
F9FF3C
F9FF3C
F9FF3C
79DF38
79CF78
39CE70
39F0F0
1FFFE0
0FFFC0
03FF00
00FC00
ENDCHAR
STARTCHAR 24F0
ENCODING 9456
SWIDTH 1000 0
DWIDTH 24 0
BBX 22 22 1 -2
BITMAP
01FC00
07FF00
1FFFC0
3DF8E0
31F070
61E630
69EF38
F9CFF8
F9CFFC
F9D8FC
F9C07C
F9C63C
F9CF3C
F9CF3C
79CF38
79CF38
39E670
39E070
1FF0E0
0FFFC0
03FF00
00FC00
ENDCHAR
STARTCHAR 24F1
ENCODING 9457
SWIDTH 1000 0
DWIDTH 24 0
BBX 23 23 0 -2
BITMAP
007E00
03FF80
07FFE0
0FFFF0
1CE018
38E018
70FF3C
74FF3C
FCFF7E
FCFE7E
FCFE7E
FCFEFE
FCFCFE
FCFCFE
FCFDFE
7CF9FC
7CF9FC
3CF9F8
3CF1F8
1FFFF0
0FFFE0
03FF80
00FE00
ENDCHAR
STARTCHAR 24F2
ENCODING 9458
SWIDTH 1000 0
DWIDTH 24 0
BBX 22 22 1 -2
BITMAP
01FC00
07FF00
1FFFC0
3DF0E0
31EE70
61DF30
69DF38
F9DF38
F9CE3C
F9E07C
F9E0FC
F9CE7C
F99F3C
F99F3C
799F38
799F38
398E30
39C070
1FE0E0
0FFFC0
03FF00
00FC00
ENDCHAR
STARTCHAR 24F3
ENCODING 9459
SWIDTH 1000 0
DWIDTH 24 0
BBX 22 22 1 -2
BITMAP
01FC00
07FF00
1FFFC0
3DF0E0
31E070
61E670
69CF38
F9CF38
F9CF3C
F9CF3C
F9CE3C
F9E03C
F9F13C
F9FF3C
79FF38
79CF78
39CE70
39E0F0
1FF1E0
0FFFC0
03FF00
00FC00
ENDCHAR
STARTCHAR 24F4
ENCODING 9460
SWIDTH 1000 0
DWIDTH 24 0
BBX 22 23 1 -2
BITMAP
00FC00
07FF00
0FFFC0
1FFFE0
387C70
33B930
73BBB8
77B398
F7B39C
FF339C
FF739C
FE739C
FCF39C
F9F39C
FBF39C
73F398
73FBB8
301930
301C70
1FFFE0
0FFFC0
03FF00
00FC00
ENDCHAR
STARTCHAR 24F5
ENCODING 9461
SWIDTH 1000 0
DWIDTH 24 0
BBX 23 22 0 -2
BITMAP
00FE00
0301C0
0CFE60
1B83B0
3618D8
28382C
587834
501814
A0180A
A0180A
A0180A
A0180A
A0180A
A0180A
501812
501834
281824
3618C8
1B8390
0CFE60
0301C0
00FE00
ENDCHAR
STARTCHAR 24F6
ENCODING 9462
SWIDTH 1000 0
DWIDTH 24 0
BBX 22 23 1 -2
BITMAP
00FC00
030300
0CFCC0
1B0360
3601B0
287850
58FC68
518E28
B18634
A00614
A00E14
A01C14
A03014
A06014
A0C034
918024
59FF68
49FF48
240190
130330
08FCC0
070380
00FE00
ENDCHAR
STARTCHAR 24F7
ENCODING 9463
SWIDTH 1000 0
DWIDTH 24 0
BBX 22 22 1 -2
BITMAP
00FC00
030380
0CFCC0
1B0360
3478B0
68FC58
518E28
510628
A00614
A00C14
A07814
A01E14
A00314
A00314
930324
518728
49FE48
247C90
130330
08FCC0
070380
00FE00
ENDCHAR
STARTCHAR 24F8
ENCODING 9464
SWIDTH 1000 0
DWIDTH 24 0
BBX 22 22 1 -2
BITMAP
00FC00
070380
0CFCC0
130320
240890
681858
503828
506828
A06814
A0C814
A18814
A30814
A30814
A7FF14
500828
500828
680850
2408B0
130360
0CFCC0
070380
00FC00
ENDCHAR
STARTCHAR 24F9
ENCODING 9465
SWIDTH 1000 0
DWIDTH 24 0
BBX 22 22 1 -2
BITMAP
00FC00
030380
0CFCC0
1B0360
3400B0
69FE58
51FE28
518028
A18014
A1BC14
A1FE14
A18714
A00314
A00314
900324
518728
48FE48
247C90
130330
08FC60
070380
00FE00
ENDCHAR
STARTCHAR 24FA
ENCODING 9466
SWIDTH 1000 0
DWIDTH 24 0
BBX 22 22 1 -2
BITMAP
00FC00
030380
0CFCC0
1B0360
3438B0
68FC58
50C628
518628
A10014
A13C14
A1FE14
A1C714
A18314
A18314
918324
508728
48FE48
243C90
130330
08FCC0
070380
00FE00
ENDCHAR
STARTCHAR 24FB
ENCODING 9467
SWIDTH 1000 0
DWIDTH 24 0
BBX 22 23 1 -2
BITMAP
00FC00
030300
0CFCC0
1B0360
3601B0
280050
59FF68
51FF28
B00634
A00614
A00C14
A00C14
A01814
A01814
A01034
903024
583068
486048
246190
130330
08FCC0
070380
00FE00
ENDCHAR
STARTCHAR 24FC
ENCODING 9468
SWIDTH 1000 0
DWIDTH 24 0
BBX 22 22 1 -2
BITMAP
00FC00
030380
0CFCC0
1B0360
3478B0
68FC58
51C628
518628
A18614
A1C614
A0FC14
A1FC14
A38714
A30314
930324
538728
49FE48
24FC90
130330
08FCC0
070380
00FE00
ENDCHAR
STARTCHAR 24FD
ENCODING 9469
SWIDTH 1000 0
DWIDTH 24 0
BBX 22 22 1 -2
BITMAP
00FC00
030380
0CFCC0
1B0360
3478B0
68FE58
51C628
518328
A18314
A18314
A1C714
A0FF14
A07B14
A00314
918624
518628
48FC48
247890
130330
08FCC0
070380
00FE00
ENDCHAR
STARTCHAR 24FE
ENCODING 9470
SWIDTH 1000 0
DWIDTH 24 0
BBX 22 22 1 -2
BITMAP
00FC00
070300
0CFCC0
1B0360
3400B0
690E50
531F28
533B28
A13194
A13194
A13194
A13194
A13194
A13194
913BA8
511F28
490E58
240090
130320
0CFCC0
070380
00FC00
ENDCHAR
STARTCHAR 2500
ENCODING 9472
SWIDTH 1000 0
DWIDTH 24 0
BBX 24 1 0 9
BITMAP
FFFFFF
ENDCHAR
STARTCHAR 2501
ENCODING 9473
SWIDTH 1000 0
DWIDTH 24 0
BBX 24 3 0 8
BITMAP
FFFFFF
FFFFFF
FFFFFF
ENDCHAR
STARTCHAR 2502
ENCODING 9474
SWIDTH 1000 0
DWIDTH 24 0
BBX 1 24 12 -2
BITMAP
80
80
80
80
80
80
80
80
80
80
80
80
80
80
80
80
80
80
80
80
80
80
80
80
ENDCHAR
STARTCHAR 2503
ENCODING 9475
SWIDTH 1000 0
DWIDTH 24 0
BBX 3 24 11 -3
BITMAP
E0
E0
E0
E0
E0
E0
E0
E0
E0
E0
E0
E0
E0
E0
E0
E0
E0
E0
E0
E0
E0
E0
E0
E0
ENDCHAR
STARTCHAR 250C
ENCODING 9484
SWIDTH 1000 0
DWIDTH 24 0
BBX 13 13 12 -3
BITMAP
FFF8
8000
8000
8000
8000
8000
8000
8000
8000
8000
8000
8000
8000
ENDCHAR
STARTCHAR 250F
ENCODING 9487
SWIDTH 1000 0
DWIDTH 24 0
BBX 13 14 11 -3
BITMAP
FFF8
FFF8
FFF8
E000
E000
E000
E000
E000
E000
E000
E000
E000
E000
E000
ENDCHAR
STARTCHAR 2510
ENCODING 9488
SWIDTH 1000 0
DWIDTH 24 0
BBX 13 13 -1 -3
BITMAP
FFF8
0008
0008
0008
0008
0008
0008
0008
0008
0008
0008
0008
0008
ENDCHAR
STARTCHAR 2513
ENCODING 9491
SWIDTH 1000 0
DWIDTH 24 0
BBX 13 14 0 -3
BITMAP
FFF8
FFF8
FFF8
0038
0038
0038
0038
0038
0038
0038
0038
0038
0038
0038
ENDCHAR
STARTCHAR 2514
ENCODING 9492
SWIDTH 1000 0
DWIDTH 24 0
BBX 13 13 12 9
BITMAP
8000
8000
8000
8000
8000
8000
8000
8000
8000
8000
8000
8000
FFF8
ENDCHAR
STARTCHAR 2517
ENCODING 9495
SWIDTH 1000 0
DWIDTH 24 0
BBX 13 13 11 8
BITMAP
E000
E000
E000
E000
E000
E000
E000
E000
E000
E000
FFF8
FFF8
FFF8
ENDCHAR
STARTCHAR 2518
ENCODING 9496
SWIDTH 1000 0
DWIDTH 24 0
BBX 13 13 -1 9
BITMAP
0008
0008
0008
0008
0008
0008
0008
0008
0008
0008
0008
0008
FFF8
ENDCHAR
STARTCHAR 251B
ENCODING 9499
SWIDTH 1000 0
DWIDTH 24 0
BBX 13 13 0 8
BITMAP
0038
0038
0038
0038
0038
0038
0038
0038
0038
0038
FFF8
FFF8
FFF8
ENDCHAR
STARTCHAR 251C
ENCODING 9500
SWIDTH 1000 0
DWIDTH 24 0
BBX 13 25 12 -3
BITMAP
8000
8000
8000
8000
8000
8000
8000
8000
8000
8000
8000
8000
FFF8
8000
8000
8000
8000
8000
8000
8000
8000
8000
8000
8000
8000
ENDCHAR
STARTCHAR 251D
ENCODING 9501
SWIDTH 1000 0
DWIDTH 24 0
BBX 12 25 12 -3
BITMAP
8000
8000
8000
8000
8000
8000
8000
8000
8000
8000
8000
FFF0
FFF0
FFF0
8000
8000
8000
8000
8000
8000
8000
8000
8000
8000
8000
ENDCHAR
STARTCHAR 2520
ENCODING 9504
SWIDTH 1000 0
DWIDTH 24 0
BBX 14 24 11 -3
BITMAP
E000
E000
E000
E000
E000
E000
E000
E000
E000
E000
E000
FFFC
E000
E000
E000
E000
E000
E000
E000
E000
E000
E000
E000
E000
ENDCHAR
STARTCHAR 2523
ENCODING 9507
SWIDTH 1000 0
DWIDTH 24 0
BBX 13 24 11 -3
BITMAP
E000
E000
E000
E000
E000
E000
E000
E000
E000
E000
FFF8
FFF8
FFF8
E000
E000
E000
E000
E000
E000
E000
E000
E000
E000
E000
ENDCHAR
STARTCHAR 2524
ENCODING 9508
SWIDTH 1000 0
DWIDTH 24 0
BBX 13 25 -1 -3
BITMAP
0008
0008
0008
0008
0008
0008
0008
0008
0008
0008
0008
0008
FFF8
0008
0008
0008
0008
0008
0008
0008
0008
0008
0008
0008
0008
ENDCHAR
STARTCHAR 2525
ENCODING 9509
SWIDTH 1000 0
DWIDTH 24 0
BBX 12 25 0 -3
BITMAP
0010
0010
0010
0010
0010
0010
0010
0010
0010
0010
0010
FFF0
FFF0
FFF0
0010
0010
0010
0010
0010
0010
0010
0010
0010
0010
0010
ENDCHAR
STARTCHAR 2528
ENCODING 9512
SWIDTH 1000 0
DWIDTH 24 0
BBX 14 24 -1 -3
BITMAP
001C
001C
001C
001C
001C
001C
001C
001C
001C
001C
001C
FFFC
001C
001C
001C
001C
001C
001C
001C
001C
001C
001C
001C
001C
ENDCHAR
STARTCHAR 252B
ENCODING 9515
SWIDTH 1000 0
DWIDTH 24 0
BBX 13 24 0 -3
BITMAP
0038
0038
0038
0038
0038
0038
0038
0038
0038
0038
FFF8
FFF8
FFF8
0038
0038
0038
0038
0038
0038
0038
0038
0038
0038
0038
ENDCHAR
STARTCHAR 252C
ENCODING 9516
SWIDTH 1000 0
DWIDTH 24 0
BBX 25 13 0 -3
BITMAP
FFFFFF80
00080000
00080000
00080000
00080000
00080000
00080000
00080000
00080000
00080000
00080000
00080000
00080000
ENDCHAR
STARTCHAR 252F
ENCODING 9519
SWIDTH 1000 0
DWIDTH 24 0
BBX 24 14 0 -3
BITMAP
FFFFFF
FFFFFF
FFFFFF
000800
000800
000800
000800
000800
000800
000800
000800
000800
000800
000800
ENDCHAR
STARTCHAR 2530
ENCODING 9520
SWIDTH 1000 0
DWIDTH 24 0
BBX 25 13 0 -3
BITMAP
FFFFFF80
001C0000
001C0000
001C0000
001C0000
001C0000
001C0000
001C0000
001C0000
001C0000
001C0000
001C0000
001C0000
ENDCHAR
STARTCHAR 2533
ENCODING 9523
SWIDTH 1000 0
DWIDTH 24 0
BBX 24 14 0 -3
BITMAP
FFFFFF
FFFFFF
FFFFFF
001C00
001C00
001C00
001C00
001C00
001C00
001C00
001C00
001C00
001C00
001C00
ENDCHAR
STARTCHAR 2534
ENCODING 9524
SWIDTH 1000 0
DWIDTH 24 0
BBX 25 13 0 9
BITMAP
00080000
00080000
00080000
00080000
00080000
00080000
00080000
00080000
00080000
00080000
00080000
00080000
FFFFFF80
ENDCHAR
STARTCHAR 2537
ENCODING 9527
SWIDTH 1000 0
DWIDTH 24 0
BBX 24 14 0 8
BITMAP
000800
000800
000800
000800
000800
000800
000800
000800
000800
000800
000800
FFFFFF
FFFFFF
FFFFFF
ENDCHAR
STARTCHAR 2538
ENCODING 9528
SWIDTH 1000 0
DWIDTH 24 0
BBX 25 12 0 9
BITMAP
001C0000
001C0000
001C0000
001C0000
001C0000
001C0000
001C0000
001C0000
001C0000
001C0000
001C0000
FFFFFF80
ENDCHAR
STARTCHAR 253B
ENCODING 9531
SWIDTH 1000 0
DWIDTH 24 0
BBX 24 13 0 8
BITMAP
001C00
001C00
001C00
001C00
001C00
001C00
001C00
001C00
001C00
001C00
FFFFFF
FFFFFF
FFFFFF
ENDCHAR
STARTCHAR 253C
ENCODING 9532
SWIDTH 1000 0
DWIDTH 24 0
BBX 25 25 0 -3
BITMAP
00080000
00080000
00080000
00080000
00080000
00080000
00080000
00080000
00080000
00080000
00080000
00080000
FFFFFF80
00080000
00080000
00080000
00080000
00080000
00080000
00080000
00080000
00080000
00080000
00080000
00080000
ENDCHAR
STARTCHAR 253F
ENCODING 9535
SWIDTH 1000 0
DWIDTH 24 0
BBX 24 25 0 -3
BITMAP
000800
000800
000800
000800
000800
000800
000800
000800
000800
000800
000800
FFFFFF
FFFFFF
FFFFFF
000800
000800
000800
000800
000800
000800
000800
000800
000800
000800
000800
ENDCHAR
STARTCHAR 2542
ENCODING 9538
SWIDTH 1000 0
DWIDTH 24 0
BBX 25 24 0 -3
BITMAP
001C0000
001C0000
001C0000
001C0000
001C0000
001C0000
001C0000
001C0000
001C0000
001C0000
001C0000
FFFFFF80
001C0000
001C0000
001C0000
001C0000
001C0000
001C0000
001C0000
001C0000
001C0000
001C0000
001C0000
001C0000
ENDCHAR
STARTCHAR 254B
ENCODING 9547
SWIDTH 1000 0
DWIDTH 24 0
BBX 24 24 0 -3
BITMAP
001C00
001C00
001C00
001C00
001C00
001C00
001C00
001C00
001C00
001C00
FFFFFF
FFFFFF
FFFFFF
001C00
001C00
001C00
001C00
001C00
001C00
001C00
001C00
001C00
001C00
001C00
ENDCHAR
STARTCHAR 25A0
ENCODING 9632
SWIDTH 1000 0
DWIDTH 24 0
BBX 18 18 3 0
BITMAP
FFFFC0
FFFFC0
FFFFC0
FFFFC0
FFFFC0
FFFFC0
FFFFC0
FFFFC0
FFFFC0
FFFFC0
FFFFC0
FFFFC0
FFFFC0
FFFFC0
FFFFC0
FFFFC0
FFFFC0
FFFFC0
ENDCHAR
STARTCHAR 25A1
ENCODING 9633
SWIDTH 1000 0
DWIDTH 24 0
BBX 18 18 3 0
BITMAP
FFFFC0
FFFFC0
800040
800040
800040
800040
800040
800040
800040
800040
800040
800040
800040
800040
800040
800040
FFFFC0
FFFFC0
ENDCHAR
STARTCHAR 25B1
ENCODING 9649
SWIDTH 1000 0
DWIDTH 24 0
BBX 22 10 1 4
BITMAP
0FFFFC
08000C
180018
100018
300030
300030
600020
600060
400040
FFFFC0
ENDCHAR
STARTCHAR 25B2
ENCODING 9650
SWIDTH 1000 0
DWIDTH 24 0
BBX 18 18 3 1
BITMAP
00C000
00C000
01E000
01E000
03F000
03F000
07F800
07F800
0FFC00
0FFC00
1FFE00
1FFE00
3FFF00
3FFF00
7FFF80
7FFF80
FFFFC0
FFFFC0
ENDCHAR
STARTCHAR 25B3
ENCODING 9651
SWIDTH 1000 0
DWIDTH 24 0
BBX 18 18 3 1
BITMAP
00C000
00C000
01E000
01E000
033000
031000
061800
040800
0C0C00
080400
180600
100200
300300
200100
600180
400080
FFFFC0
FFFFC0
ENDCHAR
STARTCHAR 25B6
ENCODING 9654
SWIDTH 1000 0
DWIDTH 24 0
BBX 18 18 3 0
BITMAP
C00000
F00000
FC0000
FF0000
FFC000
FFF000
FFFC00
FFFF00
FFFFC0
FFFF80
FFFE00
FFF800
FFF000
FFC000
FF0000
FC0000
F00000
C00000
ENDCHAR
STARTCHAR 25B7
ENCODING 9655
SWIDTH 1000 0
DWIDTH 24 0
BBX 17 18 3 0
BITMAP
C00000
F00000
BC0000
8F0000
83C000
80F000
803800
800E00
800380
800780
801E00
807800
81E000
878000
9E0000
BC0000
F00000
C00000
ENDCHAR
STARTCHAR 25BC
ENCODING 9660
SWIDTH 1000 0
DWIDTH 24 0
BBX 18 18 3 -1
BITMAP
FFFFC0
FFFFC0
7FFF80
7FFF80
3FFF00
3FFF00
1FFE00
1FFE00
0FFC00
0FFC00
07F800
07F800
03F000
03F000
01E000
01E000
00C000
00C000
ENDCHAR
STARTCHAR 25BD
ENCODING 9661
SWIDTH 1000 0
DWIDTH 24 0
BBX 18 18 3 -1
BITMAP
FFFFC0
FFFFC0
400080
600180
200100
300300
100200
180600
080400
0C0C00
040800
061800
023000
033000
01E000
01E000
00C000
00C000
ENDCHAR
STARTCHAR 25C0
ENCODING 9664
SWIDTH 1000 0
DWIDTH 24 0
BBX 18 18 3 0
BITMAP
0000C0
0003C0
000FC0
003FC0
00FFC0
03FFC0
0FFFC0
3FFFC0
FFFFC0
7FFFC0
1FFFC0
07FFC0
03FFC0
00FFC0
003FC0
000FC0
0003C0
0000C0
ENDCHAR
STARTCHAR 25C1
ENCODING 9665
SWIDTH 1000 0
DWIDTH 24 0
BBX 17 18 4 0
BITMAP
000180
000780
001E80
007880
01E080
078080
1E0080
380080
E00080
F00080
3C0080
0F0080
03C080
00F080
003C80
001E80
000780
000180
ENDCHAR
STARTCHAR 25C6
ENCODING 9670
SWIDTH 1000 0
DWIDTH 24 0
BBX 20 20 2 -1
BITMAP
006000
00F000
01F800
03FC00
07FE00
0FFF00
1FFF80
3FFFC0
7FFFE0
FFFFF0
FFFFF0
7FFFE0
3FFFC0
1FFF80
0FFF00
07FE00
03FC00
01F800
00F000
006000
ENDCHAR
STARTCHAR 25C7
ENCODING 9671
SWIDTH 1000 0
DWIDTH 24 0
BBX 20 20 2 -1
BITMAP
006000
00F000
019800
030C00
060600
0C0300
180180
3000C0
600060
C00030
C00030
600060
3000C0
180180
0C0300
060600
030C00
019800
00F000
006000
ENDCHAR
STARTCHAR 25C9
ENCODING 9673
SWIDTH 1000 0
DWIDTH 24 0
BBX 20 20 2 -1
BITMAP
01F800
07FE00
1E0780
3803C0
30F0C0
63FCE0
67FE60
CFFE30
CFFF30
CFFF30
CFFF30
CFFF30
CFFE30
67FE60
63FC60
30F0C0
3801C0
1E0780
07FE00
01F800
ENDCHAR
STARTCHAR 25CB
ENCODING 9675
SWIDTH 1000 0
DWIDTH 24 0
BBX 20 20 2 -1
BITMAP
01F800
07FE00
1E0780
3801C0
3000C0
600060
600060
C00030
C00030
C00030
C00030
C00030
C00030
600060
600060
3000C0
3801C0
1E0780
07FE00
01F800
ENDCHAR
STARTCHAR 25CE
ENCODING 9678
SWIDTH 1000 0
DWIDTH 24 0
BBX 20 20 2 -1
BITMAP
01F800
07FE00
1E0780
3803C0
30F0C0
63FCE0
660E60
CC0630
CC0330
CC0330
CC0330
CC0330
CE0630
670E60
63FC60
30F0C0
3801C0
1E0780
07FE00
01F800
ENDCHAR
STARTCHAR 25CF
ENCODING 9679
SWIDTH 1000 0
DWIDTH 24 0
BBX 20 20 2 -1
BITMAP
01F800
07FE00
1FFF80
3FFFC0
3FFFC0
7FFFE0
7FFFE0
FFFFF0
FFFFF0
FFFFF0
FFFFF0
FFFFF0
FFFFF0
7FFFE0
7FFFE0
3FFFC0
3FFFC0
1FFF80
07FE00
01F800
ENDCHAR
STARTCHAR 25D0
ENCODING 9680
SWIDTH 1000 0
DWIDTH 24 0
BBX 20 20 2 -1
BITMAP
01F800
07DE00
1FC380
3FC1C0
3FC0C0
7FC060
7FC060
FFC030
FFC030
FFC030
FFC030
FFC030
FFC030
7FC060
7FC060
3FC0C0
3FC1C0
1FC780
07FE00
01F800
ENDCHAR
STARTCHAR 25D1
ENCODING 9681
SWIDTH 1000 0
DWIDTH 24 0
BBX 20 20 2 -1
BITMAP
01F800
07FE00
1C3F80
383FC0
303FC0
603FE0
603FE0
C03FF0
C03FF0
C03FF0
C03FF0
C03FF0
C03FF0
603FE0
603FE0
303FC0
383FC0
1E3F80
07FE00
01F800
ENDCHAR
STARTCHAR 25D2
ENCODING 9682
SWIDTH 1000 0
DWIDTH 24 0
BBX 20 20 2 -1
BITMAP
01F800
07FE00
1E0780
3801C0
3000C0
600060
400020
C00030
C00030
C00030
FFFFF0
FFFFF0
FFFFF0
7FFFE0
7FFFE0
3FFFC0
3FFFC0
1FFF80
07FE00
01F800
ENDCHAR
STARTCHAR 25D3
ENCODING 9683
SWIDTH 1000 0
DWIDTH 24 0
BBX 20 20 2 -1
BITMAP
01F800
07FE00
1FFF80
3FFFC0
3FFFC0
7FFFE0
7FFFE0
FFFFF0
FFFFF0
FFFFF0
C00030
C00030
C00030
400020
600060
3000C0
3801C0
1E0780
07FE00
01F800
ENDCHAR
STARTCHAR 25E6
ENCODING 9702
SWIDTH 1000 0
DWIDTH 24 0
BBX 8 8 8 5
BITMAP
3C
7E
E7
C3
C3
E7
7E
3C
ENDCHAR
STARTCHAR 25EF
ENCODING 9711
SWIDTH 1000 0
DWIDTH 24 0
BBX 22 22 1 -2
BITMAP
01FC00
070300
1C00C0
100020
200010
600010
400008
C00008
800004
800004
800004
800004
800004
800004
400008
400008
200010
200010
100020
0C00C0
030300
00FC00
ENDCHAR
STARTCHAR 2600
ENCODING 9728
SWIDTH 1000 0
DWIDTH 24 0
BBX 23 23 1 -2
BITMAP
001000
001000
001000
001000
081020
040040
027880
01FE00
03FF00
03FF80
07FF80
FFFFBE
07FF80
07FF80
03FF80
03FF00
03FE80
047C40
081020
001000
001000
001000
001000
ENDCHAR
STARTCHAR 2601
ENCODING 9729
SWIDTH 1000 0
DWIDTH 24 0
BBX 20 16 2 -1
BITMAP
03E000
07F800
0FF800
0FFC00
0FFCE0
0FFDF0
0FFFF0
7FFFF0
7FFFF0
FFFFE0
FFFFE0
FFFFF0
FFBFF0
7F3FF0
3C1FF0
0007C0
ENDCHAR
STARTCHAR 2602
ENCODING 9730
SWIDTH 1000 0
DWIDTH 24 0
BBX 23 22 1 -2
BITMAP
001000
001000
01FF00
07FFC0
1FFFF0
3FFFF8
7FFFFC
7FFFFC
C739C6
8610C2
841082
001000
001000
001000
001000
001000
001000
001000
001000
011000
009000
00E000
ENDCHAR
STARTCHAR 2603
ENCODING 9731
SWIDTH 1000 0
DWIDTH 24 0
BBX 22 22 1 -2
BITMAP
80620C
806514
0E0888
041040
002020
60E040
031058
040F80
08CC40
08CC40
E80040
440080
02790C
0C00C0
D00020
A03010
203010
200010
203010
303030
180060
07FF80
ENDCHAR
STARTCHAR 2605
ENCODING 9733
SWIDTH 1000 0
DWIDTH 24 0
BBX 20 20 2 0
BITMAP
006000
006000
006000
00F000
00F000
00F000
01F800
FFFFF0
7FFFE0
1FFF80
0FFF00
07FE00
07FC00
07FE00
07FE00
0F9F00
0F0F00
0E0700
180180
100080
ENDCHAR
STARTCHAR 2606
ENCODING 9734
SWIDTH 1000 0
DWIDTH 24 0
BBX 20 20 2 0
BITMAP
006000
006000
006000
00F000
009000
009000
019800
FF0FF0
7000E0
180180
0C0300
020400
060600
040200
04F200
0D9B00
0B0D00
0C0300
180180
100080
ENDCHAR
STARTCHAR 260E
ENCODING 9742
SWIDTH 1000 0
DWIDTH 24 0
BBX 22 18 1 0
BITMAP
0FFFC0
3FFFF0
7FFFF8
7986F8
F18638
F1FE3C
03FF00
078780
070380
0E01C0
0E01C0
1E01C0
1E01E0
3E01F0
7F03F8
7F87F8
7FFFF8
7FFFF8
ENDCHAR
STARTCHAR 2616
ENCODING 9750
SWIDTH 1000 0
DWIDTH 24 0
BBX 18 19 3 1
BITMAP
01E000
073800
0E1C00
380700
600180
600180
400080
400080
400080
400080
C000C0
C000C0
C000C0
C000C0
C000C0
800040
800040
FFFFC0
FFFFC0
ENDCHAR
STARTCHAR 2617
ENCODING 9751
SWIDTH 1000 0
DWIDTH 24 0
BBX 18 19 3 1
BITMAP
00C000
03F000
0FFC00
1FFE00
7FFF80
7FFF80
7FFF80
7FFF80
7FFF80
7FFF80
FFFFC0
FFFFC0
FFFFC0
FFFFC0
FFFFC0
FFFFC0
FFFFC0
FFFFC0
FFFFC0
ENDCHAR
STARTCHAR 261E
ENCODING 9758
SWIDTH 1000 0
DWIDTH 24 0
BBX 20 11 2 3
BITMAP
61E000
961FF0
080C10
1053E0
1FBD00
102C80
103300
186900
1E2600
91DC00
602000
ENDCHAR
STARTCHAR 2640
ENCODING 9792
SWIDTH 1000 0
DWIDTH 24 0
BBX 13 21 5 -2
BITMAP
0F80
1FC0
38E0
7070
6030
6030
6030
3060
38E0
0F80
0200
0200
0200
FFF8
FFF8
0200
0200
0200
0200
0200
0200
ENDCHAR
STARTCHAR 2642
ENCODING 9794
SWIDTH 1000 0
DWIDTH 24 0
BBX 19 19 3 0
BITMAP
001FE0
001FE0
0000E0
0001E0
0003A0
000720
000E20
001C20
003820
0F7000
3FE000
71C000
C0E000
C06000
C06000
C06000
71C000
3F8000
1F0000
ENDCHAR
STARTCHAR 2660
ENCODING 9824
SWIDTH 1000 0
DWIDTH 24 0
BBX 18 22 3 -1
BITMAP
00C000
01E000
01E000
03F000
07F800
0FFC00
1FFE00
1FFE00
3FFF00
7FFF80
7FFF80
FFFFC0
FFFFC0
FFFFC0
FFFFC0
FEDFC0
7EDF80
3CCF00
00C000
01E000
01E000
03F000
ENDCHAR
STARTCHAR 2661
ENCODING 9825
SWIDTH 1000 0
DWIDTH 24 0
BBX 20 20 2 -2
BITMAP
1F0F80
619840
40F020
806010
806010
800010
800010
800010
400020
400020
200040
3000C0
100080
080100
040200
060600
030C00
019800
00F000
006000
ENDCHAR
STARTCHAR 2662
ENCODING 9826
SWIDTH 1000 0
DWIDTH 24 0
BBX 18 22 3 -2
BITMAP
00C000
01E000
033000
021000
040800
0C0C00
180600
300200
200100
600180
C000C0
400080
600180
300300
100200
080400
0C0C00
061800
021000
012000
01E000
00C000
ENDCHAR
STARTCHAR 2663
ENCODING 9827
SWIDTH 1000 0
DWIDTH 24 0
BBX 20 22 2 -2
BITMAP
00F000
03FC00
03FC00
07FE00
07FE00
07FE00
07FE00
03FC00
3DFBC0
7EF7E0
FFFFE0
FFFFF0
FFFFF0
FFFFF0
FFFFF0
7F6FE0
7E67E0
3C63C0
006000
00F000
00F000
01F800
ENDCHAR
STARTCHAR 2664
ENCODING 9828
SWIDTH 1000 0
DWIDTH 24 0
BBX 18 22 3 -2
BITMAP
00C000
01E000
033000
061000
040800
080400
100600
300300
200100
400080
400080
800040
800040
800040
800040
8120C0
433080
3D2F00
012000
012000
021000
03F000
ENDCHAR
STARTCHAR 2665
ENCODING 9829
SWIDTH 1000 0
DWIDTH 24 0
BBX 20 20 2 -2
BITMAP
1E0780
7F9FE0
7F9FE0
FFFFF0
FFFFF0
FFFFF0
FFFFF0
FFFFF0
7FFFE0
7FFFE0
3FFFC0
1FFF80
1FFF00
0FFF00
07FE00
03FC00
01F800
00F000
00E000
006000
ENDCHAR
STARTCHAR 2666
ENCODING 9830
SWIDTH 1000 0
DWIDTH 24 0
BBX 18 22 3 -2
BITMAP
00C000
01E000
03F000
03F000
07F800
0FFC00
1FFE00
1FFE00
3FFF00
7FFF80
FFFFC0
7FFF80
3FFF00
3FFF00
1FFE00
0FFC00
0FFC00
07F800
03F000
01E000
01E000
00C000
ENDCHAR
STARTCHAR 2667
ENCODING 9831
SWIDTH 1000 0
DWIDTH 24 0
BBX 20 22 2 -3
BITMAP
00F000
030C00
020400
040200
040200
040200
040200
060600
1F0F80
619860
400020
800010
800010
800010
809010
419820
639C60
1C9380
009000
009000
010800
01F800
ENDCHAR
STARTCHAR 2668
ENCODING 9832
SWIDTH 1000 0
DWIDTH 24 0
BBX 22 20 1 -1
BITMAP
002000
002000
046300
0C6300
0C6300
0C6300
0C7300
063300
063180
031980
031980
231990
631998
C2110C
C4310C
E0201C
700038
7C00F8
1FFFE0
03FF00
ENDCHAR
STARTCHAR 2669
ENCODING 9833
SWIDTH 1000 0
DWIDTH 24 0
BBX 7 20 7 0
BITMAP
02
02
02
02
02
02
02
02
02
02
02
02
02
02
02
7A
FE
FE
FC
78
ENDCHAR
STARTCHAR 266A
ENCODING 9834
SWIDTH 1000 0
DWIDTH 24 0
BBX 15 20 5 0
BITMAP
0200
0300
0380
02C0
0270
0238
021C
020E
0206
0206
0206
0204
020C
0218
0210
7A00
FE00
FE00
FC00
7800
ENDCHAR
STARTCHAR 266B
ENCODING 9835
SWIDTH 1000 0
DWIDTH 24 0
BBX 19 22 1 -1
BITMAP
0001E0
001FE0
03FFE0
03FE20
03C020
020020
020020
020020
020020
020020
020020
020020
020020
020020
0207A0
020FE0
021FE0
7E1FC0
FE0F80
FE0000
FC0000
780000
ENDCHAR
STARTCHAR 266C
ENCODING 9836
SWIDTH 1000 0
DWIDTH 24 0
BBX 19 22 1 -1
BITMAP
0001E0
001FE0
03FFE0
03FC20
038020
0207E0
02FFE0
03FFA0
03E020
020020
020020
020020
020020
020020
0207A0
020FE0
021FE0
7E1FC0
FE0F80
FE0000
FC0000
780000
ENDCHAR
STARTCHAR 266D
ENCODING 9837
SWIDTH 1000 0
DWIDTH 24 0
BBX 10 20 8 0
BITMAP
C000
C000
C000
C000
C000
C000
C000
CF00
DF80
F1C0
E0C0
C0C0
C0C0
C180
C180
C300
CE00
D800
F000
8000
ENDCHAR
STARTCHAR 266E
ENCODING 9838
SWIDTH 1000 0
DWIDTH 24 0
BBX 8 20 8 0
BITMAP
80
80
80
80
81
8F
FF
F9
81
81
81
87
FF
FD
E1
01
01
01
01
01
ENDCHAR
STARTCHAR 266F
ENCODING 9839
SWIDTH 1000 0
DWIDTH 24 0
BBX 14 20 5 -1
BITMAP
1020
1020
1020
1020
102C
17FC
FFE0
F020
1020
1020
1020
1020
10FC
7FF8
FC20
1020
1020
1020
1020
1000
ENDCHAR
STARTCHAR 2713
ENCODING 10003
SWIDTH 1000 0
DWIDTH 24 0
BBX 16 16 5 2
BITMAP
0001
0002
0004
000C
0008
0010
0020
0060
40C0
C180
E300
6600
7C00
3C00
3800
1000
ENDCHAR
STARTCHAR 2756
ENCODING 10070
SWIDTH 1000 0
DWIDTH 24 0
BBX 20 20 2 -1
BITMAP
006000
00F000
01F800
03FC00
03FC00
01F800
18F180
3C63C0
7E07E0
FF0FF0
FF0FF0
7E07E0
3C63C0
18F180
01F800
03FC00
03FC00
01F800
00F000
006000
ENDCHAR
STARTCHAR 2776
ENCODING 10102
SWIDTH 1000 0
DWIDTH 24 0
BBX 23 22 0 -2
BITMAP
00FE00
03FF80
0FFFE0
1FE7F0
3F87F8
7F07F8
7F67FC
FFE7FC
FFE7FE
FFE7FE
FFE7FE
FFE7FE
FFE7FE
FFE7FE
7FE7FC
7FE7FC
3FE7F8
3FE7F8
1FE7F0
0FFFE0
03FF80
00FE00
ENDCHAR
STARTCHAR 2777
ENCODING 10103
SWIDTH 1000 0
DWIDTH 24 0
BBX 22 23 1 -2
BITMAP
00FC00
03FF00
0FFFC0
1FFFE0
3F87F0
3E39F0
7E7CF8
7CFCF8
FCFCFC
FFFCFC
FFF9FC
FFE3FC
FFC7FC
FF9FFC
FF3FFC
7E7FF8
7EFFF8
3C00F0
3C00F0
1FFFE0
0FFFC0
03FF00
00FC00
ENDCHAR
STARTCHAR 2778
ENCODING 10104
SWIDTH 1000 0
DWIDTH 24 0
BBX 22 22 1 -2
BITMAP
01FC00
07FF00
1FFFC0
1F83E0
3E01F0
7C78F0
7CFCF8
FFFCF8
FFFCFC
FFF1FC
FF83FC
FFF8FC
FFFC7C
FFFE7C
78FE78
7CFE78
3C78F0
3E00F0
1F83E0
0FFFC0
03FF00
00FC00
ENDCHAR
STARTCHAR 2779
ENCODING 10105
SWIDTH 1000 0
DWIDTH 24 0
BBX 23 23 1 -2
BITMAP
00FC00
03FF80
0FFFC0
1FFFE0
3FF3F0
3FE3F8
7FC3FC
7F83FC
FF93FC
FF33FE
FE73FE
FE73FE
FCF3FE
F9F3FE
F8007E
78007C
7FF3FC
3FF3F8
3FF3F8
1FF3F0
0FFFE0
03FF80
00FE00
ENDCHAR
STARTCHAR 277A
ENCODING 10106
SWIDTH 1000 0
DWIDTH 24 0
BBX 22 23 1 -2
BITMAP
00FC00
07FF00
0FFFC0
1FFFE0
3E00F0
3E00F0
7E7FF8
7E7FF8
FE7FFC
FEC3FC
FE01FC
FE79FC
FEFCFC
FFFCFC
FFFCFC
7FFCF8
7CFDF8
3E79F0
3F87F0
1FFFE0
0FFFC0
03FF00
00FC00
ENDCHAR
STARTCHAR 277B
ENCODING 10107
SWIDTH 1000 0
DWIDTH 24 0
BBX 22 22 1 -2
BITMAP
01FC00
07FF00
1FFFC0
1FC3E0
3F01F0
7E38F0
7E7CF8
FEFFF8
FCFFFC
FC87FC
FC79FC
FC79FC
FCFCFC
FCFCFC
7CFCF8
7EFCF8
3E79F0
3F01F0
1F87E0
0FFFC0
03FF00
00FC00
ENDCHAR
STARTCHAR 277C
ENCODING 10108
SWIDTH 1000 0
DWIDTH 24 0
BBX 22 22 1 -2
BITMAP
01FC00
07FF00
0FFFC0
1FFFE0
3C00F0
7C00F0
7FFCF8
FFF9F8
FFF9FC
FFF3FC
FFF3FC
FFF3FC
FFE7FC
FFE7FC
7FCFF8
7FCFF8
3FCFF0
3F9FF0
1F9FE0
0FFFC0
03FF00
00FC00
ENDCHAR
STARTCHAR 277D
ENCODING 10109
SWIDTH 1000 0
DWIDTH 24 0
BBX 22 22 1 -2
BITMAP
01FC00
07FF00
1FFFC0
1F87E0
3E01F0
7C78F0
7CFCF8
FCFCF8
FCFCFC
FE79FC
FF03FC
FE79FC
FCFCFC
F9FE7C
79FE78
79FE78
3C78F0
3C00F0
1F03E0
0FFFC0
03FF00
00FC00
ENDCHAR
STARTCHAR 277E
ENCODING 10110
SWIDTH 1000 0
DWIDTH 24 0
BBX 22 22 1 -2
BITMAP
01FC00
07FF00
1FFFC0
1F83E0
3F01F0
7E78F0
7CFCF8
FCFC78
FCFC7C
FCFC7C
FE787C
FE027C
FF867C
FFFC7C
7CFC78
7E7CF8
3E78F0
3F01F0
1F83E0
0FFFC0
03FF00
00FC00
ENDCHAR
STARTCHAR 277F
ENCODING 10111
SWIDTH 1000 0
DWIDTH 24 0
BBX 22 22 1 -2
BITMAP
01FC00
07FF00
1FFFC0
3DF8E0
31E070
61E730
69E738
F9CF98
F9CF9C
F9CF9C
F9CF9C
F9CF9C
F9CF9C
F9CF9C
79CF98
79E738
39E730
39F070
1FF8E0
0FFFC0
03FF00
00FC00
ENDCHAR
STARTCHAR 2934
ENCODING 10548
SWIDTH 1000 0
DWIDTH 24 0
BBX 20 19 2 1
BITMAP
000100
000380
0007C0
000FE0
000DB0
0019B0
001190
000180
000180
000180
000180
000180
000180
000180
000300
000700
000E00
FFFC00
FFF000
ENDCHAR
STARTCHAR 2935
ENCODING 10549
SWIDTH 1000 0
DWIDTH 24 0
BBX 20 19 2 -2
BITMAP
FFF000
FFFC00
001E00
000700
000300
000180
000180
000180
000180
000180
000180
000180
001190
0019B0
000DB0
0007E0
0007C0
000380
000100
ENDCHAR
STARTCHAR 29BF
ENCODING 10687
SWIDTH 1000 0
DWIDTH 24 0
BBX 20 20 2 -1
BITMAP
01F800
07FE00
1E0780
3801C0
7000C0
600060
607060
C0F830
C1FC30
C1FC30
C1FC30
C0F830
C07030
600060
600060
3000C0
3801C0
1E0780
07FE00
01F800
ENDCHAR
STARTCHAR 29FA
ENCODING 10746
SWIDTH 666 0
DWIDTH 16 0
BBX 12 13 2 0
BITMAP
1080
1080
1080
1080
1080
1080
FFF0
1080
1080
1080
1080
1080
1080
ENDCHAR
STARTCHAR 29FB
ENCODING 10747
SWIDTH 666 0
DWIDTH 16 0
BBX 12 13 2 0
BITMAP
2440
2440
2440
2440
2440
2440
FFF0
2440
2440
2440
2440
2440
2440
ENDCHAR
STARTCHAR 2E83
ENCODING 11907
SWIDTH 1000 0
DWIDTH 24 0
BBX 16 18 6 1
BITMAP
C000
C000
C000
C000
C000
C000
C000
C000
C000
C000
C000
C000
C003
C002
C006
C006
FFFE
7FFE
ENDCHAR
STARTCHAR 2E85
ENCODING 11909
SWIDTH 1000 0
DWIDTH 24 0
BBX 13 21 4 -1
BITMAP
0018
0030
0060
00E0
00C0
0180
0380
0F80
1D80
3980
F180
4180
0180
0180
0180
0180
0180
0180
0180
0180
0180
ENDCHAR
STARTCHAR 2E87
ENCODING 11911
SWIDTH 1000 0
DWIDTH 24 0
BBX 21 19 2 -2
BITMAP
3FFF80
300180
300180
300180
300180
300180
300180
300180
300180
300180
300180
300180
300180
6000D8
6000D8
6000D8
C000F0
C00070
800020
ENDCHAR
STARTCHAR 2E89
ENCODING 11913
SWIDTH 1000 0
DWIDTH 24 0
BBX 10 20 7 -2
BITMAP
00C0
00C0
C0C0
C0C0
C0C0
C0C0
C0C0
C0C0
C0C0
C0C0
C0C0
C0C0
C0C0
C0C0
C0C0
00C0
00C0
00C0
1FC0
0FC0
ENDCHAR
STARTCHAR 2E8E
ENCODING 11918
SWIDTH 1000 0
DWIDTH 24 0
BBX 22 19 1 -2
BITMAP
7FFFF8
7FFFF8
018600
018600
018600
018600
018600
018600
018600
018600
018600
030600
03060C
07060C
06060C
0C060C
3807FC
F003F8
400000
ENDCHAR
STARTCHAR 2E8F
ENCODING 11919
SWIDTH 1000 0
DWIDTH 24 0
BBX 21 20 1 -2
BITMAP
000400
030E00
060700
0C0380
0C01C0
1800C0
300060
730C30
630C20
030C00
030C00
030C00
030C00
030C00
020C00
060C18
0E0C18
1C0C18
780FF0
E007E0
ENDCHAR
STARTCHAR 2E90
ENCODING 11920
SWIDTH 1000 0
DWIDTH 24 0
BBX 20 20 2 -1
BITMAP
00C000
00C000
00C000
00C000
00C000
FFFFE0
00F000
00F000
00F000
00F000
01B000
01B000
03B000
033000
073030
0E3030
1C3030
383FF0
F03FE0
C00000
ENDCHAR
STARTCHAR 2E92
ENCODING 11922
SWIDTH 1000 0
DWIDTH 24 0
BBX 19 18 4 0
BITMAP
FFFF00
C00300
C00300
C00300
C00300
C00300
C00300
FFFF00
C00300
C00300
C00000
C00000
C00060
C00040
C00040
C000C0
FFFFC0
7FFF80
ENDCHAR
STARTCHAR 2E93
ENCODING 11923
SWIDTH 1000 0
DWIDTH 24 0
BBX 20 19 2 -1
BITMAP
004000
006000
00C000
018000
038300
230700
360600
1C0C00
0E1800
073800
03B000
01E000
00C600
018300
030180
0600C0
0C3FC0
FFFF60
7C0030
ENDCHAR
STARTCHAR 2E94
ENCODING 11924
SWIDTH 1000 0
DWIDTH 24 0
BBX 22 18 1 2
BITMAP
030000
030000
030000
07FFC0
0600C0
060080
060180
040180
0C0180
0C0180
0FFF80
080180
180180
180100
000300
000300
000300
FFFFFC
ENDCHAR
STARTCHAR 2E96
ENCODING 11926
SWIDTH 1000 0
DWIDTH 24 0
BBX 10 22 7 -2
BITMAP
0C00
0C00
0C00
0C00
0C00
4D80
6D80
6C80
4CC0
4CC0
CCC0
CC00
CC00
0C00
0C00
0C00
0C00
0C00
0C00
0C00
0C00
0C00
ENDCHAR
STARTCHAR 2E97
ENCODING 11927
SWIDTH 1000 0
DWIDTH 24 0
BBX 22 20 1 -1
BITMAP
018000
018000
018000
018000
018000
018040
19B0C0
319860
319860
318C30
318C30
618618
618618
61871C
C18000
018000
018000
018000
1F8000
1F8000
ENDCHAR
STARTCHAR 2E98
ENCODING 11928
SWIDTH 1000 0
DWIDTH 24 0
BBX 12 21 6 -1
BITMAP
0600
0600
0600
0600
0600
FFF0
0600
0600
0600
0600
06F0
3FE0
FE00
8600
0600
0600
0600
0600
0600
3E00
3E00
ENDCHAR
STARTCHAR 2E99
ENCODING 11929
SWIDTH 1000 0
DWIDTH 24 0
BBX 19 20 3 -2
BITMAP
060000
040000
0C0000
0C0000
1FFFE0
180600
380C00
680C00
6C0C00
C41800
861800
033000
01B000
00E000
00E000
01B800
071E00
1E0780
F801E0
E00040
ENDCHAR
STARTCHAR 2E9B
ENCODING 11931
SWIDTH 1000 0
DWIDTH 24 0
BBX 21 19 1 -2
BITMAP
7FFFE0
003000
083000
183000
183000
183000
183000
3FFFF8
306000
306000
00D800
00D800
019800
039818
071818
0E1830
3C1FF0
F00FE0
600000
ENDCHAR
STARTCHAR 2E9E
ENCODING 11934
SWIDTH 1000 0
DWIDTH 24 0
BBX 19 21 3 -2
BITMAP
006000
006000
006000
007FE0
006000
036000
066000
07FF80
0C0300
180300
3C0600
670600
C38C00
00F800
007000
007000
01C000
038000
0F0000
7C0000
700000
ENDCHAR
STARTCHAR 2E9F
ENCODING 11935
SWIDTH 1000 0
DWIDTH 24 0
BBX 22 21 1 -2
BITMAP
0FFFE0
0C0060
084060
08E060
083060
181860
180860
180060
FFFFFC
180060
18C040
18E040
187040
103840
301840
3000C0
3FFFF8
3000C0
3000C0
000FC0
000F80
ENDCHAR
STARTCHAR 2EA0
ENCODING 11936
SWIDTH 1000 0
DWIDTH 24 0
BBX 20 19 2 -1
BITMAP
3FFFC0
3000C0
3000C0
3000C0
3FFFC0
3020C0
3020C0
303000
303000
3FFFF0
301000
301800
301800
300C10
306C10
37E630
FF0330
F001F0
0000E0
ENDCHAR
STARTCHAR 2EA1
ENCODING 11937
SWIDTH 1000 0
DWIDTH 24 0
BBX 8 19 8 -1
BITMAP
70
38
1C
04
00
C0
E0
38
18
08
00
03
06
0E
0C
18
30
60
60
ENDCHAR
STARTCHAR 2EA3
ENCODING 11939
SWIDTH 1000 0
DWIDTH 24 0
BBX 20 8 2 5
BITMAP
101180
191980
3198C0
319860
718C60
618C30
C18C20
400000
ENDCHAR
STARTCHAR 2EA4
ENCODING 11940
SWIDTH 1000 0
DWIDTH 24 0
BBX 18 11 2 5
BITMAP
000080
007FC0
FFFC00
7C0080
0080C0
30C180
18C180
184300
0C6300
0C6600
080000
ENDCHAR
STARTCHAR 2EA6
ENCODING 11942
SWIDTH 1000 0
DWIDTH 24 0
BBX 9 22 6 -2
BITMAP
0180
0180
0180
0180
6180
7180
3180
1980
1D80
0980
0180
0180
0780
1F80
7980
E180
0180
0180
0180
0180
0180
0180
ENDCHAR
STARTCHAR 2EA8
ENCODING 11944
SWIDTH 1000 0
DWIDTH 24 0
BBX 9 21 6 -1
BITMAP
2180
3180
1B00
0E00
0C00
1E00
3200
E300
4300
0700
0780
0D80
1980
3180
E180
C180
0180
0180
0380
3F00
1E00
ENDCHAR
STARTCHAR 2EAA
ENCODING 11946
SWIDTH 1000 0
DWIDTH 24 0
BBX 13 19 5 -1
BITMAP
7FF8
0070
00E0
01C0
0300
3300
3300
3300
33F8
3300
3300
3300
3300
3308
3378
33E0
3F00
F800
4000
ENDCHAR
STARTCHAR 2EAB
ENCODING 11947
SWIDTH 1000 0
DWIDTH 24 0
BBX 18 9 3 4
BITMAP
FFFFC0
C630C0
C630C0
C630C0
C630C0
C630C0
C630C0
FFFFC0
C000C0
ENDCHAR
STARTCHAR 2EAD
ENCODING 11949
SWIDTH 1000 0
DWIDTH 24 0
BBX 13 20 6 -1
BITMAP
0600
0600
0600
0600
FFF0
0030
0060
00C0
0180
0780
0FC0
3F60
F338
C318
0300
0300
0300
0300
0300
0300
ENDCHAR
STARTCHAR 2EB2
ENCODING 11954
SWIDTH 1000 0
DWIDTH 24 0
BBX 18 9 3 4
BITMAP
FFFFC0
C630C0
C630C0
C630C0
C630C0
C630C0
C630C0
FFFFC0
C000C0
ENDCHAR
STARTCHAR 2EB9
ENCODING 11961
SWIDTH 1000 0
DWIDTH 24 0
BBX 22 16 1 3
BITMAP
006000
006030
006070
1FFFE0
0061C0
006180
006300
006600
FFFFFC
003800
006000
01C000
078000
1E0000
780000
E00000
ENDCHAR
STARTCHAR 2EBD
ENCODING 11965
SWIDTH 1000 0
DWIDTH 24 0
BBX 18 19 3 -1
BITMAP
0F0000
F87FC0
C000C0
C000C0
C000C0
C000C0
C000C0
C000C0
C000C0
FF3FC0
C000C0
C000C0
C000C0
C000C0
C000C0
C000C0
C000C0
FF3FC0
C000C0
ENDCHAR
STARTCHAR 2EBE
ENCODING 11966
SWIDTH 1000 0
DWIDTH 24 0
BBX 22 8 1 8
BITMAP
030300
030300
030300
FFFFFC
FFFFFC
030300
030300
030300
ENDCHAR
STARTCHAR 2EBF
ENCODING 11967
SWIDTH 1000 0
DWIDTH 24 0
BBX 22 8 1 8
BITMAP
060180
060180
060180
FFFFFC
FFFFFC
060180
060180
060180
ENDCHAR
STARTCHAR 2EC0
ENCODING 11968
SWIDTH 1000 0
DWIDTH 24 0
BBX 21 9 1 6
BITMAP
030600
030600
030600
030600
FF07F8
FF07F8
030600
030600
030600
ENDCHAR
STARTCHAR 2EC1
ENCODING 11969
SWIDTH 1000 0
DWIDTH 24 0
BBX 22 22 1 -2
BITMAP
002000
002000
003FC0
002000
002000
3FFFFC
302018
302018
303F90
37E020
302020
303FE0
303FE0
300000
306600
306600
304600
604608
60C60C
61860C
CF07F8
4E03F0
ENDCHAR
STARTCHAR 2EC2
ENCODING 11970
SWIDTH 1000 0
DWIDTH 24 0
BBX 13 21 5 0
BITMAP
0300
0300
0300
0300
7FF8
0030
0060
0060
00C0
0398
0730
0FE0
3B60
E338
4308
0300
0300
0300
0300
0300
0300
ENDCHAR
STARTCHAR 2EC3
ENCODING 11971
SWIDTH 1000 0
DWIDTH 24 0
BBX 20 11 2 4
BITMAP
FFFFF0
019800
019800
019800
7FFFE0
619860
619860
619860
619860
7FFFE0
600060
ENDCHAR
STARTCHAR 2EC4
ENCODING 11972
SWIDTH 1000 0
DWIDTH 24 0
BBX 20 20 2 -2
BITMAP
FFFFF0
019800
019800
019800
019800
7FFFE0
619860
619860
619860
631960
6319E0
6719E0
6E1F60
7C0F60
680060
600060
600060
7FFFE0
600060
600060
ENDCHAR
STARTCHAR 2ECA
ENCODING 11978
SWIDTH 1000 0
DWIDTH 24 0
BBX 13 20 6 -1
BITMAP
7FE0
6060
6060
6060
6060
6060
7FE0
0600
0600
6600
6600
67F0
6600
6600
6600
6610
66F8
7FC0
FE00
C000
ENDCHAR
STARTCHAR 2ECC
ENCODING 11980
SWIDTH 1000 0
DWIDTH 24 0
BBX 21 19 2 0
BITMAP
700000
380000
1C0000
0C0000
000000
000000
000000
000000
FC0000
0C0000
0C0000
0C0000
0C0000
0C0000
0C0000
1F8000
73FFF8
E07FF8
400000
ENDCHAR
STARTCHAR 2ECD
ENCODING 11981
SWIDTH 1000 0
DWIDTH 24 0
BBX 21 19 2 0
BITMAP
300000
1C0000
0C0000
000000
400000
700000
1C0000
080000
000000
000000
FC0000
0C0000
0C0000
0C0000
0C0000
1E0000
370000
E3FFF8
C07FF8
ENDCHAR
STARTCHAR 2ECF
ENCODING 11983
SWIDTH 1000 0
DWIDTH 24 0
BBX 11 19 8 -1
BITMAP
FFC0
C0C0
C180
C180
C300
C300
C600
C300
C180
C0C0
C0C0
C060
C060
C060
CFE0
CFC0
C000
C000
C000
ENDCHAR
STARTCHAR 2ED1
ENCODING 11985
SWIDTH 1000 0
DWIDTH 24 0
BBX 22 20 1 -2
BITMAP
0FFFE0
0C0000
0C0000
0C0000
0FFFC0
0C0000
0C0000
0FFFC0
0C0000
0C0000
FFFFF8
0C3020
0C3070
0C18C0
0C0F80
0C0600
0C3380
0FF1C0
7F807C
780018
ENDCHAR
STARTCHAR 2ED2
ENCODING 11986
SWIDTH 1000 0
DWIDTH 24 0
BBX 21 19 2 -1
BITMAP
0FFFE0
0C0000
0C0000
0FFF80
0C0000
0C0000
0C0000
0FFF80
0C0000
0C0000
FFFFF8
030000
030600
060300
060180
0C07C0
7FFFE0
7F8030
000020
ENDCHAR
STARTCHAR 2ED6
ENCODING 11990
SWIDTH 1000 0
DWIDTH 24 0
BBX 11 19 8 -1
BITMAP
FFC0
C0C0
C180
C180
C300
C300
C600
C300
C180
C0C0
C0C0
C060
C060
C060
CFE0
CFC0
C000
C000
C000
ENDCHAR
STARTCHAR 2ED8
ENCODING 11992
SWIDTH 1000 0
DWIDTH 24 0
BBX 22 22 1 -2
BITMAP
003000
003000
3FFFF0
003000
003000
1FFFE0
003000
003000
FFFFFC
000000
000000
0FFFC0
0C00C0
0C00C0
0FFFC0
0C00C0
0C00C0
0FFFC0
0C00C0
0C00C0
0C07C0
0C07C0
ENDCHAR
STARTCHAR 2EDE
ENCODING 11998
SWIDTH 1000 0
DWIDTH 24 0
BBX 12 22 6 -1
BITMAP
0600
0600
0F80
09C0
18E0
3FF0
6020
E000
FFC0
30C0
3FC0
30C0
30C0
3FC0
3000
3000
3FC0
3000
3000
3FE0
3000
3000
ENDCHAR
STARTCHAR 2EDF
ENCODING 11999
SWIDTH 1000 0
DWIDTH 24 0
BBX 11 21 6 -1
BITMAP
0600
0E00
0F00
19C0
3EE0
3660
6600
FFC0
B0C0
30C0
3FC0
30C0
30C0
3FC0
3000
3180
3180
30C0
3FC0
FC60
4040
ENDCHAR
STARTCHAR 2EE4
ENCODING 12004
SWIDTH 1000 0
DWIDTH 24 0
BBX 21 21 2 -2
BITMAP
00C000
00C000
018000
3FFFC0
3060C0
3060C0
3060C0
3FFFC0
3060C0
3060C0
3060C0
3FFFC0
033200
033200
0332C0
023660
063FE0
0C3418
183018
F03FF8
C01FF0
ENDCHAR
STARTCHAR 2EE8
ENCODING 12008
SWIDTH 1000 0
DWIDTH 24 0
BBX 21 21 2 -1
BITMAP
006000
006000
006000
7FFFE0
006000
006000
3FFFC0
006000
006000
FFFFF8
018000
030000
07FF80
0F0300
398600
E0FC00
007800
00FE00
0787E0
FE00F0
600000
ENDCHAR
STARTCHAR 2EE9
ENCODING 12009
SWIDTH 1000 0
DWIDTH 24 0
BBX 22 22 1 -3
BITMAP
018600
018600
018600
3FFFF0
018600
018600
FFFFFC
003000
003000
1FFFE0
183060
183060
183060
1FFFE0
183060
183060
183060
1FFFE0
018600
0783E0
3E0078
700018
ENDCHAR
STARTCHAR 2EEB
ENCODING 12011
SWIDTH 1000 0
DWIDTH 24 0
BBX 22 22 1 -2
BITMAP
003000
003000
003000
7FFFFC
060380
038700
01CE00
007800
00FE00
0F87F0
FE00FC
4600C0
07FFC0
0600C0
0600C0
0600C0
07FFC0
0C00C0
0C00C0
1800C0
3800C0
200000
ENDCHAR
STARTCHAR 2EED
ENCODING 12013
SWIDTH 1000 0
DWIDTH 24 0
BBX 22 22 1 -2
BITMAP
003000
003000
0C3FE0
0C3000
0C3000
0C3000
FFFFFC
000000
323130
333330
333230
313230
3FFFB0
307030
30FC30
31B630
333330
3631B0
3C3030
300030
3FFFF0
300030
ENDCHAR
STARTCHAR 2EEF
ENCODING 12015
SWIDTH 1000 0
DWIDTH 24 0
BBX 22 21 1 -1
BITMAP
003000
003000
003000
7FFFF8
060100
030300
030300
FFFFFC
000000
000000
1FFFE0
183060
183060
1FFFE0
183060
183060
1FFFE0
18300C
18300C
003FFC
001FF8
ENDCHAR
STARTCHAR 2EF2
ENCODING 12018
SWIDTH 1000 0
DWIDTH 24 0
BBX 22 22 1 -1
BITMAP
060000
07FE00
0C0C00
080C00
1FFFE0
382060
782060
DFFFE0
182060
1FFFE0
002000
3FFFF0
202030
202030
3FFFF0
202030
202030
3FFFF0
20200C
00300C
003FFC
003FF8
ENDCHAR
STARTCHAR 2F00
ENCODING 12032
SWIDTH 1000 0
DWIDTH 24 0
BBX 20 2 2 9
BITMAP
FFFFF0
FFFFF0
ENDCHAR
STARTCHAR 2F01
ENCODING 12033
SWIDTH 1000 0
DWIDTH 24 0
BBX 2 20 11 -1
BITMAP
C0
C0
C0
C0
C0
C0
C0
C0
C0
C0
C0
C0
C0
C0
C0
C0
C0
C0
C0
C0
ENDCHAR
STARTCHAR 2F02
ENCODING 12034
SWIDTH 1000 0
DWIDTH 24 0
BBX 11 10 6 4
BITMAP
E000
7000
3800
1C00
0E00
0700
0380
01C0
00E0
0060
ENDCHAR
STARTCHAR 2F03
ENCODING 12035
SWIDTH 1000 0
DWIDTH 24 0
BBX 8 21 6 -2
BITMAP
03
03
03
03
03
03
03
03
03
03
03
03
06
06
06
0C
1C
38
70
E0
40
ENDCHAR
STARTCHAR 2F04
ENCODING 12036
SWIDTH 1000 0
DWIDTH 24 0
BBX 19 17 3 0
BITMAP
7FFE00
001C00
003800
007000
00E000
01C000
030000
060000
0C0000
180000
300000
600060
600060
C00060
E000C0
FFFFC0
3FFF80
ENDCHAR
STARTCHAR 2F05
ENCODING 12037
SWIDTH 1000 0
DWIDTH 24 0
BBX 6 20 7 -1
BITMAP
0C
0C
0C
0C
0C
0C
0C
0C
0C
0C
0C
0C
0C
0C
0C
0C
0C
0C
FC
F8
ENDCHAR
STARTCHAR 2F06
ENCODING 12038
SWIDTH 1000 0
DWIDTH 24 0
BBX 20 15 2 1
BITMAP
3FFFC0
3FFFC0
000000
000000
000000
000000
000000
000000
000000
000000
000000
000000
000000
FFFFF0
FFFFF0
ENDCHAR
STARTCHAR 2F07
ENCODING 12039
SWIDTH 1000 0
DWIDTH 24 0
BBX 20 7 2 10
BITMAP
006000
006000
006000
006000
006000
FFFFF0
FFFFF0
ENDCHAR
STARTCHAR 2F08
ENCODING 12040
SWIDTH 1000 0
DWIDTH 24 0
BBX 20 20 2 -1
BITMAP
006000
006000
006000
006000
006000
006000
006000
00F000
00F000
00D000
009800
019800
018C00
030600
060700
0E0380
1C01C0
3800F0
F00070
C00000
ENDCHAR
STARTCHAR 2F09
ENCODING 12041
SWIDTH 1000 0
DWIDTH 24 0
BBX 21 19 2 -2
BITMAP
000C00
060C00
060C00
060C00
060C00
060C00
060C00
060C00
060C00
060C00
060C00
060C00
0C0C00
0C0C18
1C0C18
180C30
300DF0
E00FE0
C00000
ENDCHAR
STARTCHAR 2F0A
ENCODING 12042
SWIDTH 1000 0
DWIDTH 24 0
BBX 20 19 2 -1
BITMAP
0FE000
006000
006000
006000
006000
007000
007000
00F000
00D000
00D800
018800
018C00
030600
070700
0E0380
1C01C0
3800F0
F00070
E00000
ENDCHAR
STARTCHAR 2F0B
ENCODING 12043
SWIDTH 1000 0
DWIDTH 24 0
BBX 21 19 2 -1
BITMAP
03FC00
000C00
000C00
060C00
060400
060600
060600
060600
040300
0C0300
0C0300
0C0180
180180
1800C0
3000C0
300060
600070
E00038
C00010
ENDCHAR
STARTCHAR 2F0C
ENCODING 12044
SWIDTH 1000 0
DWIDTH 24 0
BBX 18 19 3 -1
BITMAP
FFFFC0
C000C0
C000C0
C000C0
C000C0
C000C0
C000C0
C000C0
C000C0
C000C0
C000C0
C000C0
C000C0
C000C0
C000C0
C000C0
C000C0
C00FC0
C00780
ENDCHAR
STARTCHAR 2F0D
ENCODING 12045
SWIDTH 1000 0
DWIDTH 24 0
BBX 20 5 2 7
BITMAP
FFFFF0
C00030
C00030
C00030
C00030
ENDCHAR
STARTCHAR 2F0E
ENCODING 12046
SWIDTH 1000 0
DWIDTH 24 0
BBX 11 19 7 -1
BITMAP
4000
E000
7000
3800
1C00
0800
0040
00E0
00C0
0180
0380
0700
0600
0C00
1800
3800
7000
E000
4000
ENDCHAR
STARTCHAR 2F0F
ENCODING 12047
SWIDTH 1000 0
DWIDTH 24 0
BBX 21 19 2 -1
BITMAP
0FFE00
0C0600
0C0600
0C0600
0C0600
0C0600
0C0600
0C0600
0C0600
0C0600
0C0600
180600
180618
180618
300618
700618
E007F0
C007F0
800000
ENDCHAR
STARTCHAR 2F10
ENCODING 12048
SWIDTH 1000 0
DWIDTH 24 0
BBX 18 18 3 -1
BITMAP
C000C0
C000C0
C000C0
C000C0
C000C0
C000C0
C000C0
C000C0
C000C0
C000C0
C000C0
C000C0
C000C0
C000C0
C000C0
FFFFC0
C000C0
C000C0
ENDCHAR
STARTCHAR 2F11
ENCODING 12049
SWIDTH 1000 0
DWIDTH 24 0
BBX 18 18 3 -1
BITMAP
FFFFC0
0180C0
0180C0
0180C0
0300C0
0300C0
0300C0
0300C0
0300C0
0300C0
0600C0
0600C0
0C0180
1C0180
380180
704180
E07F80
C03F00
ENDCHAR
STARTCHAR 2F12
ENCODING 12050
SWIDTH 1000 0
DWIDTH 24 0
BBX 19 20 2 -1
BITMAP
00C000
00C000
00C000
00C000
00C000
FFFFE0
00C060
00C060
00C060
00C060
018060
018060
018060
030060
0700C0
0600C0
1C00C0
3820C0
F03FC0
E01F80
ENDCHAR
STARTCHAR 2F13
ENCODING 12051
SWIDTH 1000 0
DWIDTH 24 0
BBX 19 21 2 -1
BITMAP
040000
060000
060000
0C0000
0FFFE0
180060
380060
300060
600060
E00060
400060
000060
000060
000060
000040
0000C0
0000C0
0000C0
0000C0
003FC0
001F80
ENDCHAR
STARTCHAR 2F14
ENCODING 12052
SWIDTH 1000 0
DWIDTH 24 0
BBX 17 18 5 0
BITMAP
C00000
C00000
C00000
C00400
C01E00
C0F800
C3E000
FF0000
F80000
C00000
C00000
C00000
C00180
C00180
C00300
C00300
EFFF00
7FFE00
ENDCHAR
STARTCHAR 2F15
ENCODING 12053
SWIDTH 1000 0
DWIDTH 24 0
BBX 19 19 3 -1
BITMAP
FFFFC0
C00000
C00000
C00000
C00000
C00000
C00000
C00000
C00000
C00000
C00000
C00000
C00000
C00000
C00000
C00000
FFFFE0
C00000
C00000
ENDCHAR
STARTCHAR 2F16
ENCODING 12054
SWIDTH 1000 0
DWIDTH 24 0
BBX 20 17 1 -1
BITMAP
FFFFF0
180000
180000
180000
180000
180000
180000
180000
180000
180000
180000
180000
180000
180000
180000
1FFFF0
0FFFF0
ENDCHAR
STARTCHAR 2F17
ENCODING 12055
SWIDTH 1000 0
DWIDTH 24 0
BBX 20 21 2 -2
BITMAP
006000
006000
006000
006000
006000
006000
006000
006000
FFFFF0
FFFFF0
006000
006000
006000
006000
006000
006000
006000
006000
006000
006000
006000
ENDCHAR
STARTCHAR 2F18
ENCODING 12056
SWIDTH 1000 0
DWIDTH 24 0
BBX 11 20 8 -1
BITMAP
C000
C000
C000
C000
C000
C000
C000
F000
FC00
CF00
C3C0
C1E0
C060
C020
C000
C000
C000
C000
C000
C000
ENDCHAR
STARTCHAR 2F19
ENCODING 12057
SWIDTH 1000 0
DWIDTH 24 0
BBX 11 19 7 -1
BITMAP
FFE0
C060
C060
C060
C060
C060
C060
C060
C060
C060
C060
C060
C7E0
C7E0
C000
C000
C000
C000
C000
ENDCHAR
STARTCHAR 2F1A
ENCODING 12058
SWIDTH 1000 0
DWIDTH 24 0
BBX 20 19 2 -2
BITMAP
3FFFF0
3FFFF0
300000
300000
300000
300000
300000
300000
300000
300000
300000
300000
300000
700000
600000
600000
600000
C00000
400000
ENDCHAR
STARTCHAR 2F1B
ENCODING 12059
SWIDTH 1000 0
DWIDTH 24 0
BBX 20 18 2 0
BITMAP
00C000
00C000
00C000
00C000
018000
018000
018000
030000
030200
020600
060300
060180
0C0180
0C00C0
180FC0
1FFE60
FFC060
600030
ENDCHAR
STARTCHAR 2F1C
ENCODING 12060
SWIDTH 1000 0
DWIDTH 24 0
BBX 21 19 1 -2
BITMAP
3FFFE0
0400C0
0600C0
0600C0
020180
030180
038300
018300
00C600
00EE00
006C00
003800
003C00
006E00
01C780
0783E0
1E00F8
FC0038
600008
ENDCHAR
STARTCHAR 2F1D
ENCODING 12061
SWIDTH 1000 0
DWIDTH 24 0
BBX 16 18 4 -1
BITMAP
FFFF
FFFF
C003
C003
C003
C003
C003
C003
C003
C003
C003
C003
C003
C003
C003
FFFF
C003
C003
ENDCHAR
STARTCHAR 2F1E
ENCODING 12062
SWIDTH 1000 0
DWIDTH 24 0
BBX 18 19 3 -2
BITMAP
FFFFC0
C000C0
C000C0
C000C0
C000C0
C000C0
C000C0
C000C0
C000C0
C000C0
C000C0
C000C0
C000C0
C000C0
C000C0
C000C0
C000C0
FFFFC0
C000C0
ENDCHAR
STARTCHAR 2F1F
ENCODING 12063
SWIDTH 1000 0
DWIDTH 24 0
BBX 20 19 2 1
BITMAP
006000
006000
006000
006000
006000
006000
7FFFE0
006000
006000
006000
006000
006000
006000
006000
006000
006000
006000
006000
FFFFF0
ENDCHAR
STARTCHAR 2F20
ENCODING 12064
SWIDTH 1000 0
DWIDTH 24 0
BBX 20 19 2 1
BITMAP
006000
006000
006000
006000
006000
006000
FFFFF0
006000
006000
006000
006000
006000
006000
006000
006000
006000
006000
006000
7FFFE0
ENDCHAR
STARTCHAR 2F21
ENCODING 12065
SWIDTH 1000 0
DWIDTH 24 0
BBX 20 20 2 -1
BITMAP
018000
018000
030000
03FF80
060180
060300
0F0300
1B0600
398600
718C00
60CC00
007800
007000
007800
00FC00
01CE00
070380
1E01F0
F80070
600000
ENDCHAR
STARTCHAR 2F22
ENCODING 12066
SWIDTH 1000 0
DWIDTH 24 0
BBX 21 19 2 0
BITMAP
008000
018000
09FF80
1B0180
0F0300
0E0300
0E0300
0F0600
1B0600
318C00
60D800
C07800
003000
00F800
01CE00
038780
0E01E0
7C00F8
700030
ENDCHAR
STARTCHAR 2F23
ENCODING 12067
SWIDTH 1000 0
DWIDTH 24 0
BBX 17 20 3 -1
BITMAP
010000
018000
038000
03FF80
060180
060180
0C0300
1C0300
3F0700
738600
E0CC00
C07C00
003800
003000
007000
00E000
038000
0F0000
3E0000
380000
ENDCHAR
STARTCHAR 2F24
ENCODING 12068
SWIDTH 1000 0
DWIDTH 24 0
BBX 20 20 2 -1
BITMAP
006000
006000
006000
006000
006000
006000
FFFFF0
007000
007000
00D000
00D800
00D800
018C00
018600
030700
060380
0E01C0
3C00F0
F00070
600000
ENDCHAR
STARTCHAR 2F25
ENCODING 12069
SWIDTH 1000 0
DWIDTH 24 0
BBX 20 20 2 -1
BITMAP
008000
00C000
00C000
018000
018000
018000
FFFFF0
030300
060300
060200
0C0600
0C0600
1F0C00
1BCC00
10F800
003C00
00EF00
03C3C0
3F00F0
F80060
ENDCHAR
STARTCHAR 2F26
ENCODING 12070
SWIDTH 1000 0
DWIDTH 24 0
BBX 21 18 1 0
BITMAP
1FFFE0
0001C0
000380
000E00
003800
003000
003000
003000
FFFFF8
003000
003000
003000
003000
003000
003000
003000
03F000
03F000
ENDCHAR
STARTCHAR 2F27
ENCODING 12071
SWIDTH 1000 0
DWIDTH 24 0
BBX 20 9 2 7
BITMAP
006000
006000
006000
006000
FFFFF0
C00030
C00030
C00030
C00030
ENDCHAR
STARTCHAR 2F28
ENCODING 12072
SWIDTH 1000 0
DWIDTH 24 0
BBX 20 21 2 -1
BITMAP
000600
000600
000600
000600
000600
FFFFF0
FFFFF0
000600
000600
080600
1C0600
0C0600
060600
070600
030600
010600
000600
000600
000600
00FE00
00FE00
ENDCHAR
STARTCHAR 2F29
ENCODING 12073
SWIDTH 1000 0
DWIDTH 24 0
BBX 20 20 2 -1
BITMAP
006000
006000
006000
006000
006000
0C6300
186180
186180
1860C0
3060C0
306060
706060
606070
E06030
C06030
006000
006000
006000
07E000
07C000
ENDCHAR
STARTCHAR 2F2A
ENCODING 12074
SWIDTH 1000 0
DWIDTH 24 0
BBX 20 20 2 -1
BITMAP
00C000
00C000
00C000
00C000
00C000
FFFFE0
00F000
00F000
00F000
00F000
01B000
01B000
03B000
033000
073030
0E3030
1C3030
383FF0
F03FE0
C00000
ENDCHAR
STARTCHAR 2F2B
ENCODING 12075
SWIDTH 1000 0
DWIDTH 24 0
BBX 19 19 2 -2
BITMAP
3FFFE0
300060
300060
300060
300060
300060
3FFFE0
300060
300000
300000
300000
300000
300000
300000
600000
600000
600000
C00000
C00000
ENDCHAR
STARTCHAR 2F2C
ENCODING 12076
SWIDTH 1000 0
DWIDTH 24 0
BBX 18 20 3 -2
BITMAP
00C000
00C000
00C000
C0C0C0
C0C0C0
C0C0C0
C0C0C0
C0C0C0
C0C0C0
C0C0C0
C0C0C0
FFFFC0
C0C0C0
C0C0C0
00C000
018000
038000
070000
1E0000
3C0000
ENDCHAR
STARTCHAR 2F2D
ENCODING 12077
SWIDTH 1000 0
DWIDTH 24 0
BBX 18 20 3 -1
BITMAP
00C000
00C000
00C000
00C000
C0C0C0
C0C0C0
C0C0C0
C0C0C0
C0C0C0
C0C0C0
C0C0C0
C0C0C0
C0C0C0
C0C0C0
C0C0C0
C0C0C0
C0C0C0
FFFFC0
C000C0
C000C0
ENDCHAR
STARTCHAR 2F2E
ENCODING 12078
SWIDTH 1000 0
DWIDTH 24 0
BBX 20 19 2 -1
BITMAP
0C3060
183060
1830C0
1860C0
306180
30C180
20C300
618300
618600
C18600
618300
60C180
30C180
3060C0
1860C0
183060
183060
0C1830
081000
ENDCHAR
STARTCHAR 2F2F
ENCODING 12079
SWIDTH 1000 0
DWIDTH 24 0
BBX 20 16 2 1
BITMAP
7FFFE0
7FFFE0
006000
006000
006000
006000
006000
006000
006000
006000
006000
006000
006000
006000
006000
FFFFF0
ENDCHAR
STARTCHAR 2F30
ENCODING 12080
SWIDTH 1000 0
DWIDTH 24 0
BBX 19 18 3 0
BITMAP
FFFF00
000300
000300
000300
000300
000300
000300
7FFF00
600300
600300
600000
600000
600060
600060
600060
6000E0
7FFFE0
3FFF80
ENDCHAR
STARTCHAR 2F31
ENCODING 12081
SWIDTH 1000 0
DWIDTH 24 0
BBX 18 20 3 -1
BITMAP
00C000
00C000
00C000
00C000
FFFFC0
C0C0C0
C0C0C0
C0C0C0
C0C0C0
C0C0C0
C0C0C0
C0C0C0
C0C0C0
C0C0C0
C0CFC0
C0C7C0
C0C000
00C000
00C000
00C000
ENDCHAR
STARTCHAR 2F32
ENCODING 12082
SWIDTH 1000 0
DWIDTH 24 0
BBX 20 19 2 -2
BITMAP
7FFFE0
006000
006000
006000
006000
006000
006000
006000
FFFFF0
006000
006000
006000
006000
006000
006000
006000
006000
006000
006000
ENDCHAR
STARTCHAR 2F33
ENCODING 12083
SWIDTH 1000 0
DWIDTH 24 0
BBX 20 19 2 -1
BITMAP
004000
006000
00C000
018000
038300
230700
360600
1C0C00
0E1800
073800
03B000
01E000
00C600
018300
030180
0600C0
0C3FC0
FFFF60
7C0030
ENDCHAR
STARTCHAR 2F34
ENCODING 12084
SWIDTH 1000 0
DWIDTH 24 0
BBX 20 20 2 0
BITMAP
003000
003000
003000
3FFFF0
300000
300000
300000
300000
300000
300000
300000
300000
300000
300000
700000
600000
600000
E00000
C00000
400000
ENDCHAR
STARTCHAR 2F35
ENCODING 12085
SWIDTH 1000 0
DWIDTH 24 0
BBX 21 19 2 -1
BITMAP
7F0000
030000
060000
0E0000
0C0000
180000
3F8000
318000
018000
318000
110000
1B0000
0F0000
060000
0F0000
1DE000
38FFF8
F01FF0
400000
ENDCHAR
STARTCHAR 2F36
ENCODING 12086
SWIDTH 1000 0
DWIDTH 24 0
BBX 21 20 1 -1
BITMAP
030300
030300
030300
030300
030300
030300
030300
030300
FFFFF8
030300
030300
030300
030300
060300
060300
0E0300
1C0300
380300
700300
600300
ENDCHAR
STARTCHAR 2F37
ENCODING 12087
SWIDTH 1000 0
DWIDTH 24 0
BBX 21 20 2 0
BITMAP
018400
018E00
018300
018180
008000
008000
07FFF0
FFFE00
00C000
00C000
006000
006000
006000
003000
003800
001C18
000E30
000730
0003F0
0000E0
ENDCHAR
STARTCHAR 2F38
ENCODING 12088
SWIDTH 1000 0
DWIDTH 24 0
BBX 17 19 3 -1
BITMAP
FFFF00
000300
000300
000300
000300
7FFF00
600300
600300
C00000
C00000
FFFF80
C00180
C00180
000180
000180
000300
010300
01FF00
00FE00
ENDCHAR
STARTCHAR 2F39
ENCODING 12089
SWIDTH 1000 0
DWIDTH 24 0
BBX 20 16 2 1
BITMAP
3FFE00
000200
000200
000200
000200
000200
000200
3FFE00
000200
000200
000200
000200
000200
000200
000200
FFFFF0
ENDCHAR
STARTCHAR 2F3A
ENCODING 12090
SWIDTH 1000 0
DWIDTH 24 0
BBX 18 20 3 -1
BITMAP
001C00
003800
007000
01E000
038000
1F0000
FC0600
E00C00
003800
007000
01E080
0F81C0
3E0380
100700
001C00
003800
00F000
07C000
7F0000
380000
ENDCHAR
STARTCHAR 2F3B
ENCODING 12091
SWIDTH 1000 0
DWIDTH 24 0
BBX 12 21 5 -1
BITMAP
0070
00E0
01C0
0700
0E10
7830
6070
00E0
01C0
0380
0780
0D80
3980
F180
4180
0180
0180
0180
0180
0180
0180
ENDCHAR
STARTCHAR 2F3C
ENCODING 12092
SWIDTH 1000 0
DWIDTH 24 0
BBX 21 20 2 0
BITMAP
018000
01E000
007800
001C00
030000
030000
030000
230180
3300C0
3300E0
330060
630070
630030
630130
C30198
C30190
830180
030380
03FF00
01FE00
ENDCHAR
STARTCHAR 2F3D
ENCODING 12093
SWIDTH 1000 0
DWIDTH 24 0
BBX 20 20 2 -1
BITMAP
018400
018700
018380
018100
018000
00BFF0
FFFFF0
00C000
00C180
00C180
006300
006600
006C00
003800
007800
00FC10
03CE30
0F0730
7C03F0
7000E0
ENDCHAR
STARTCHAR 2F3E
ENCODING 12094
SWIDTH 1000 0
DWIDTH 24 0
BBX 20 19 2 -2
BITMAP
FFFFF0
000000
000000
000000
3FFFC0
3000C0
3000C0
3000C0
3000C0
3000C0
3FFFC0
3000C0
3000C0
300000
600000
600000
600000
C00000
800000
ENDCHAR
STARTCHAR 2F3F
ENCODING 12095
SWIDTH 1000 0
DWIDTH 24 0
BBX 22 19 1 0
BITMAP
000FC0
1FFF00
3FB000
003000
003000
003000
3FFFF0
003000
003000
003000
003000
FFFFFC
003000
003000
003000
003000
003000
07F000
07E000
ENDCHAR
STARTCHAR 2F40
ENCODING 12096
SWIDTH 1000 0
DWIDTH 24 0
BBX 21 21 2 -2
BITMAP
006000
006000
006000
006000
FFFFF8
006000
006000
006000
006000
7FFFC0
0C0180
060300
030700
030600
019C00
00F800
007000
01DC00
078F80
FE01F0
F00030
ENDCHAR
STARTCHAR 2F41
ENCODING 12097
SWIDTH 1000 0
DWIDTH 24 0
BBX 20 21 3 -2
BITMAP
00C000
00C000
00C000
00C000
00FFC0
00C000
00C000
00C000
00C000
7FFF80
080380
0C0300
060600
030C00
039C00
01F000
00F000
03FC00
0F0FC0
FC03F0
E00020
ENDCHAR
STARTCHAR 2F42
ENCODING 12098
SWIDTH 1000 0
DWIDTH 24 0
BBX 20 20 2 0
BITMAP
006000
006000
006000
006000
FFFFF0
0C0300
0C0300
060600
060600
030C00
030C00
019800
00F800
007000
00F800
01DC00
070F80
3E03E0
F800F0
400000
ENDCHAR
STARTCHAR 2F43
ENCODING 12099
SWIDTH 1000 0
DWIDTH 24 0
BBX 20 21 2 -1
BITMAP
000600
060600
070600
03C600
00E600
006600
180600
1C0600
0F0600
038600
010600
000600
003FF0
7FFFC0
FF0600
000600
000600
000600
000600
000600
000600
ENDCHAR
STARTCHAR 2F44
ENCODING 12100
SWIDTH 1000 0
DWIDTH 24 0
BBX 20 19 2 -1
BITMAP
003F80
1FFF00
1C0000
180000
180000
180000
180000
1FFFF0
180C00
180C00
180C00
180C00
180C00
180C00
300C00
300C00
700C00
600C00
C00C00
ENDCHAR
STARTCHAR 2F45
ENCODING 12101
SWIDTH 1000 0
DWIDTH 24 0
BBX 21 22 2 -2
BITMAP
006000
006000
006000
006000
FFFFF8
018000
018000
018000
018000
018000
01FFC0
0180C0
0300C0
0300C0
0300C0
060080
060180
0C0180
180180
703F80
E03F00
400000
ENDCHAR
STARTCHAR 2F46
ENCODING 12102
SWIDTH 1000 0
DWIDTH 24 0
BBX 21 19 1 -2
BITMAP
3FFFE0
006000
006000
006000
006000
006000
FFFFF8
006000
006000
005800
00D800
00D800
019800
019818
031818
0E1818
1C1FF8
F00FF0
C00000
ENDCHAR
STARTCHAR 2F47
ENCODING 12103
SWIDTH 1000 0
DWIDTH 24 0
BBX 16 20 4 -2
BITMAP
FFFF
C003
C003
C003
C003
C003
C003
C003
FFFF
C003
C003
C003
C003
C003
C003
C003
C003
FFFF
C003
C003
ENDCHAR
STARTCHAR 2F48
ENCODING 12104
SWIDTH 1000 0
DWIDTH 24 0
BBX 16 19 4 -1
BITMAP
FFFF
C003
C003
C003
C003
C003
C003
C003
FFF3
C003
C003
C003
C003
C003
C003
C003
FFFF
C003
C003
ENDCHAR
STARTCHAR 2F49
ENCODING 12105
SWIDTH 1000 0
DWIDTH 24 0
BBX 16 20 3 -2
BITMAP
1FFF
1803
1803
1803
1803
1803
1FFF
1803
1803
1803
1803
1FFF
1803
1803
3803
3003
3003
607F
E07F
4000
ENDCHAR
STARTCHAR 2F4A
ENCODING 12106
SWIDTH 1000 0
DWIDTH 24 0
BBX 21 20 2 0
BITMAP
006000
006000
006000
006000
006000
FFFFF0
00F000
00F000
01F800
016C00
036600
066700
0C6380
1C61C0
3860E0
706078
C06010
006000
006000
006000
ENDCHAR
STARTCHAR 2F4B
ENCODING 12107
SWIDTH 1000 0
DWIDTH 24 0
BBX 20 20 2 0
BITMAP
060000
060000
060000
0C0000
0FFFF0
186060
1860E0
3060C0
706180
606380
40F100
00D000
00D800
018C00
018E00
030700
060380
1C01E0
7800F0
E00020
ENDCHAR
STARTCHAR 2F4C
ENCODING 12108
SWIDTH 1000 0
DWIDTH 24 0
BBX 22 19 1 0
BITMAP
001800
001800
001800
001800
001800
0C1800
0C1800
0C1FF0
0C1800
0C1800
0C1800
0C1800
0C1800
0C1800
0C1800
0C1800
0C1800
0C1800
FFFFFC
ENDCHAR
STARTCHAR 2F4D
ENCODING 12109
SWIDTH 1000 0
DWIDTH 24 0
BBX 19 19 3 -2
BITMAP
FFFFE0
010000
030000
030000
060000
07FF00
0C0300
180600
3C0600
670C00
C39C00
00D800
007000
006000
01C000
038000
0F0000
7C0000
700000
ENDCHAR
STARTCHAR 2F4E
ENCODING 12110
SWIDTH 1000 0
DWIDTH 24 0
BBX 21 19 1 -1
BITMAP
03FE00
020600
060600
060618
060618
0C0618
3C07F0
7003E0
000000
3FFFC0
060180
030700
018E00
00FC00
007800
01FE00
0F87E0
FE00F8
600000
ENDCHAR
STARTCHAR 2F4F
ENCODING 12111
SWIDTH 1000 0
DWIDTH 24 0
BBX 22 20 1 -2
BITMAP
0FFFE0
0C3060
083060
083060
083060
183060
183060
FFFFFC
183060
182060
182040
186040
106040
306040
3060C0
3FFFF8
3000C0
3000C0
000FC0
000F80
ENDCHAR
STARTCHAR 2F50
ENCODING 12112
SWIDTH 1000 0
DWIDTH 24 0
BBX 21 20 1 -1
BITMAP
181800
181800
181800
181800
181820
181870
1819C0
1FDF00
181C00
181800
181800
181800
181800
181818
181818
185818
1BD818
3F1FF8
F80FF0
400000
ENDCHAR
STARTCHAR 2F51
ENCODING 12113
SWIDTH 1000 0
DWIDTH 24 0
BBX 21 20 2 0
BITMAP
000380
003F80
0FF800
7FC000
00C000
00C000
00FFE0
7FFF80
78C000
00C000
00C000
00DFF0
FFFF80
FCC000
00C000
00C018
00C010
00C030
00FFF0
007FE0
ENDCHAR
STARTCHAR 2F52
ENCODING 12114
SWIDTH 1000 0
DWIDTH 24 0
BBX 21 19 2 -1
BITMAP
000180
001FC0
3FFE00
3FB000
303000
303000
303000
303000
3FFFF0
301000
301800
301800
300800
300C10
300618
30E610
3FE3B0
FF01F0
F00060
ENDCHAR
STARTCHAR 2F53
ENCODING 12115
SWIDTH 1000 0
DWIDTH 24 0
BBX 20 21 2 -1
BITMAP
080000
0C0000
1C0000
1FFFE0
300000
300000
6FFF00
C00000
000000
7FFF00
000300
000300
000300
000100
000180
000190
0001B0
0001B0
0000F0
0000F0
000060
ENDCHAR
STARTCHAR 2F54
ENCODING 12116
SWIDTH 1000 0
DWIDTH 24 0
BBX 22 21 1 -1
BITMAP
003000
003000
003000
003020
003070
7FB8E0
013980
033F00
033E00
033600
063600
063300
0C3180
0C31C0
1830E0
383070
70303C
E03008
403000
03F000
03E000
ENDCHAR
STARTCHAR 2F55
ENCODING 12117
SWIDTH 1000 0
DWIDTH 24 0
BBX 20 20 2 -1
BITMAP
006000
006000
006000
006000
086060
186060
1860C0
1860C0
307180
30F300
70F300
20D800
009800
018C00
038600
030700
060380
1C01E0
780070
E00030
ENDCHAR
STARTCHAR 2F56
ENCODING 12118
SWIDTH 1000 0
DWIDTH 24 0
BBX 21 21 2 -2
BITMAP
000040
003FE0
1FFF00
1E6100
186100
186100
186100
186180
186180
186180
186180
186080
1860C0
1860C0
3060C0
306060
306070
606030
E06038
C06010
006000
ENDCHAR
STARTCHAR 2F57
ENCODING 12119
SWIDTH 1000 0
DWIDTH 24 0
BBX 20 19 2 -1
BITMAP
060C00
060600
0C0300
0C0180
1800C0
3804E0
760670
E60C20
430C00
031C00
019800
00F000
007000
00F000
01DC00
038F00
0E03C0
7C01F0
F00030
ENDCHAR
STARTCHAR 2F58
ENCODING 12120
SWIDTH 1000 0
DWIDTH 24 0
BBX 20 21 2 -1
BITMAP
000100
1C0300
0F0600
01FC00
007800
00FE00
03C780
3F01E0
780070
0C0320
060600
030C00
018C00
01D800
00F000
00F800
01DE00
070780
3E03F0
F80070
400000
ENDCHAR
STARTCHAR 2F59
ENCODING 12121
SWIDTH 1000 0
DWIDTH 24 0
BBX 12 20 5 -1
BITMAP
0030
3030
3030
3030
3030
3030
3FF0
3030
0030
0030
FFF0
1830
1830
1830
1830
1830
3030
7030
E030
C030
ENDCHAR
STARTCHAR 2F5A
ENCODING 12122
SWIDTH 1000 0
DWIDTH 24 0
BBX 18 20 3 0
BITMAP
003000
303000
303000
303000
303000
303000
3FFFC0
300000
300000
300000
3FFC00
300C00
300C00
300C00
600C00
600C00
600C00
C00C00
C00C00
800C00
ENDCHAR
STARTCHAR 2F5B
ENCODING 12123
SWIDTH 1000 0
DWIDTH 24 0
BBX 21 20 1 -2
BITMAP
3FFFE0
000600
060600
060600
040600
0C0600
0C0600
0FFFF8
181E00
183600
006600
00E600
01C600
038600
0E0600
3C0600
F80600
600600
007E00
003C00
ENDCHAR
STARTCHAR 2F5C
ENCODING 12124
SWIDTH 1000 0
DWIDTH 24 0
BBX 21 21 1 -1
BITMAP
003000
003000
043000
0C3000
0C3000
0C3000
1FFFE0
183000
303000
603000
203000
003000
FFFFF8
003000
003000
003000
003000
003000
003000
003000
003000
ENDCHAR
STARTCHAR 2F5D
ENCODING 12125
SWIDTH 1000 0
DWIDTH 24 0
BBX 21 20 2 0
BITMAP
006000
006300
006180
0061C0
006080
006000
FFFFF8
007000
007000
00D000
00D800
00CC00
018E00
018600
030300
0601C0
0C00E0
380078
700030
400000
ENDCHAR
STARTCHAR 2F5E
ENCODING 12126
SWIDTH 1000 0
DWIDTH 24 0
BBX 20 21 2 -1
BITMAP
006000
006000
006000
006000
FFFFF0
00C000
00C000
018200
018300
3B0600
1E0E00
0E1C00
071800
03B000
01E300
00C180
0180C0
0301E0
FFFFF0
7FE030
000020
ENDCHAR
STARTCHAR 2F5F
ENCODING 12127
SWIDTH 1000 0
DWIDTH 24 0
BBX 20 17 2 0
BITMAP
7FFFE0
006000
006000
006000
006000
006000
006000
3FFFE0
006000
006000
006600
006300
006380
006180
006000
006000
FFFFF0
ENDCHAR
STARTCHAR 2F60
ENCODING 12128
SWIDTH 1000 0
DWIDTH 24 0
BBX 22 20 1 -1
BITMAP
0007F0
1FFFE0
1FF0C0
1830C0
1830C0
1830C0
1830C0
183040
183040
183060
183060
183060
183020
183330
303330
303198
31FF98
67F8CC
E000CC
400000
ENDCHAR
STARTCHAR 2F61
ENCODING 12129
SWIDTH 1000 0
DWIDTH 24 0
BBX 21 19 2 -1
BITMAP
FFFFE0
060000
060000
060000
060000
07FE00
0C0200
0C0200
0D8200
0CC200
0C6200
086200
183600
180618
180618
18FE18
3FE618
FE07F0
8003F0
ENDCHAR
STARTCHAR 2F62
ENCODING 12130
SWIDTH 1000 0
DWIDTH 24 0
BBX 20 21 2 -1
BITMAP
0C0300
0C0300
0C0300
0C0300
0C0300
FFFFF0
0C0300
0C0300
0C0300
0C0300
0C0300
0FFF00
0C0300
0C0300
0C0300
0C0300
0C0300
0C0300
0FFF00
0C0300
0C0300
ENDCHAR
STARTCHAR 2F63
ENCODING 12131
SWIDTH 1000 0
DWIDTH 24 0
BBX 20 20 2 0
BITMAP
006000
186000
186000
186000
306000
3FFFE0
606000
606000
C06000
806000
006000
3FFFC0
006000
006000
006000
006000
006000
006000
006000
FFFFF0
ENDCHAR
STARTCHAR 2F64
ENCODING 12132
SWIDTH 1000 0
DWIDTH 24 0
BBX 19 19 2 -1
BITMAP
3FFFE0
306060
306060
306060
306060
3FFFE0
306060
306060
306060
306060
3FFFE0
306060
306060
306060
306060
606060
6067E0
C003E0
400000
ENDCHAR
STARTCHAR 2F65
ENCODING 12133
SWIDTH 1000 0
DWIDTH 24 0
BBX 18 20 3 -2
BITMAP
FFFFC0
C0C0C0
C0C0C0
C0C0C0
C0C0C0
C0C0C0
C0C0C0
C0C0C0
FFFFC0
C0C0C0
C0C0C0
C0C0C0
C0C0C0
C0C0C0
C0C0C0
C0C0C0
C0C0C0
FFFFC0
C000C0
C00000
ENDCHAR
STARTCHAR 2F66
ENCODING 12134
SWIDTH 1000 0
DWIDTH 24 0
BBX 20 19 2 -2
BITMAP
7FFFF0
006060
006060
0060C0
0061C0
186000
186000
186000
187FE0
186000
186000
386000
3C6000
3C6000
266000
63E000
61F000
C0FFF0
C00FF0
ENDCHAR
STARTCHAR 2F67
ENCODING 12135
SWIDTH 1000 0
DWIDTH 24 0
BBX 22 21 1 -1
BITMAP
000C00
000C00
000C00
0FFFFC
0C0000
4C0000
6C0000
6C0000
2C0000
0C0000
0C0000
3C0000
FC0000
CC0000
0C0000
180000
180000
180000
300000
700000
200000
ENDCHAR
STARTCHAR 2F68
ENCODING 12136
SWIDTH 1000 0
DWIDTH 24 0
BBX 22 12 1 3
BITMAP
0FF000
0038C0
006D80
38CF08
1CC618
0F8370
0301E0
0700C0
0E0070
380038
F0001C
600000
ENDCHAR
STARTCHAR 2F69
ENCODING 12137
SWIDTH 1000 0
DWIDTH 24 0
BBX 16 21 4 -2
BITMAP
0100
0300
0300
0300
FFFF
C003
C003
C003
C003
C003
C003
FFFF
C003
C003
C003
C003
C003
C003
C003
FFFF
C003
ENDCHAR
STARTCHAR 2F6A
ENCODING 12138
SWIDTH 1000 0
DWIDTH 24 0
BBX 19 22 3 -2
BITMAP
006000
006000
006000
006000
3FFFE0
306060
3060C0
3060C0
306080
306000
3FFF80
320300
330300
318600
318C00
60D800
607800
607800
C1CF00
C787E0
9E00E0
080000
ENDCHAR
STARTCHAR 2F6B
ENCODING 12139
SWIDTH 1000 0
DWIDTH 24 0
BBX 22 17 1 0
BITMAP
1FFFE0
18CC60
18CC60
18CC60
18CC60
18CC60
18CC60
18CC60
18CC60
18CC60
18CC60
18CC60
18CC60
18CC60
18CC60
18CC60
FFFFFC
ENDCHAR
STARTCHAR 2F6C
ENCODING 12140
SWIDTH 1000 0
DWIDTH 24 0
BBX 16 20 4 -2
BITMAP
FFFF
C003
C003
C003
C003
FFFF
C003
C003
C003
C003
C003
FFFF
C003
C003
C003
C003
C003
FFFF
C003
C003
ENDCHAR
STARTCHAR 2F6D
ENCODING 12141
SWIDTH 1000 0
DWIDTH 24 0
BBX 21 21 2 -2
BITMAP
3FFFC0
000380
000700
031C00
01F800
00F000
007800
001800
FFFFF8
00F030
00F060
01B0C0
0331C0
073380
0E3100
3C3000
703000
E03000
003000
07F000
03E000
ENDCHAR
STARTCHAR 2F6E
ENCODING 12142
SWIDTH 1000 0
DWIDTH 24 0
BBX 20 20 2 -1
BITMAP
0C0000
0C0000
0C0000
1FFFC0
186000
306000
606000
206000
006000
FFFFF0
007000
00D000
00D800
018C00
018600
030700
0E03C0
1C00F0
F80070
600000
ENDCHAR
STARTCHAR 2F6F
ENCODING 12143
SWIDTH 1000 0
DWIDTH 24 0
BBX 21 20 2 -2
BITMAP
7FFFF8
00C000
018000
018000
018000
030000
070000
060000
0FFFE0
1E0060
3E0060
760060
E60060
C60060
060060
060060
060060
07FFE0
060060
060060
ENDCHAR
STARTCHAR 2F70
ENCODING 12144
SWIDTH 1000 0
DWIDTH 24 0
BBX 21 19 1 -1
BITMAP
1FFFE0
000000
000000
000000
000000
000000
FFFFF8
003000
003000
043180
0E31C0
0C30E0
183060
383030
703038
E03018
403000
03F000
03F000
ENDCHAR
STARTCHAR 2F71
ENCODING 12145
SWIDTH 1000 0
DWIDTH 24 0
BBX 18 21 3 0
BITMAP
00C000
008000
008000
018000
FFFFC0
C180C0
C100C0
C100C0
C310C0
C330C0
C218C0
C208C0
C60CC0
C7FCC0
DF84C0
C004C0
C000C0
C000C0
C00FC0
C00FC0
C00000
ENDCHAR
STARTCHAR 2F72
ENCODING 12146
SWIDTH 1000 0
DWIDTH 24 0
BBX 21 21 2 -1
BITMAP
000F80
03FF00
7FE000
006000
006000
006000
006000
FFFFF0
00F000
01F800
016C00
036C00
066600
0E6300
0C6180
3860E0
706070
E06038
C06010
006000
006000
ENDCHAR
STARTCHAR 2F73
ENCODING 12147
SWIDTH 1000 0
DWIDTH 24 0
BBX 19 20 3 -1
BITMAP
00C000
00C000
00C000
00C000
FFFFC0
C000C0
C000C0
C010C0
C618C0
061800
061800
060C00
0C0C00
0C0600
0C0600
180300
300380
7001C0
E000E0
C00040
ENDCHAR
STARTCHAR 2F74
ENCODING 12148
SWIDTH 1000 0
DWIDTH 24 0
BBX 22 19 1 0
BITMAP
003000
003000
003000
003000
7FFFF8
000000
040180
0C0180
060180
060180
060180
060300
030300
030300
030200
030600
018600
000600
FFFFFC
ENDCHAR
STARTCHAR 2F75
ENCODING 12149
SWIDTH 1000 0
DWIDTH 24 0
BBX 22 20 1 0
BITMAP
0C0600
180600
180600
380C00
3FEFFC
2618C0
6618C0
C630C0
C670C0
0600C0
0600C0
0600C0
0600C0
0600C0
0600C0
0600C0
0600C0
0600C0
060FC0
060780
ENDCHAR
STARTCHAR 2F76
ENCODING 12150
SWIDTH 1000 0
DWIDTH 24 0
BBX 22 22 1 -2
BITMAP
003000
003000
083060
183060
0C30C0
0C31C0
063180
043100
003000
7FFFF8
007800
00FC00
00F600
01B600
033300
0731C0
0E30E0
1C3070
38303C
F03018
403000
003000
ENDCHAR
STARTCHAR 2F77
ENCODING 12151
SWIDTH 1000 0
DWIDTH 24 0
BBX 21 21 2 -1
BITMAP
006000
00E000
01C300
118300
1F0600
0E0C00
071800
03B180
01E0C0
01C060
FFFFF0
7FF838
006010
046700
0C6380
1C61C0
3860E0
306070
606030
406000
006000
ENDCHAR
STARTCHAR 2F78
ENCODING 12152
SWIDTH 1000 0
DWIDTH 24 0
BBX 20 22 2 -2
BITMAP
060000
0C0000
0C0000
0FFFC0
186000
306000
306000
606000
006000
FFFFF0
006000
006000
3060C0
3060C0
3060C0
3060C0
3060C0
3060C0
3060C0
3FFFC0
3000C0
3000C0
ENDCHAR
STARTCHAR 2F79
ENCODING 12153
SWIDTH 1000 0
DWIDTH 24 0
BBX 18 20 3 -2
BITMAP
FFFFC0
C000C0
C000C0
C104C0
C10CC0
D34CC0
DB6CC0
CF38C0
C618C0
C21CC0
C71CC0
C596C0
CCB2C0
CC60C0
D860C0
F0C0C0
D000C0
C00FC0
C00FC0
C00000
ENDCHAR
STARTCHAR 2F7A
ENCODING 12154
SWIDTH 1000 0
DWIDTH 24 0
BBX 21 21 2 -1
BITMAP
0C0300
060600
030600
020C00
FFFFF0
006000
006000
006000
3FFFE0
006000
006000
006000
006000
006000
FFFFF8
006000
006000
006000
006000
006000
006000
ENDCHAR
STARTCHAR 2F7B
ENCODING 12155
SWIDTH 1000 0
DWIDTH 24 0
BBX 20 19 2 -1
BITMAP
FFDFF0
00C030
00C830
20CC30
30CE30
18C630
0CC330
08C030
00C0B0
06C1B0
0EC330
1CCE30
70DC30
E0D830
00C030
00C030
00C430
1FC3F0
0F83E0
ENDCHAR
STARTCHAR 2F7C
ENCODING 12156
SWIDTH 1000 0
DWIDTH 24 0
BBX 22 20 1 1
BITMAP
006000
006030
006070
1FFFE0
0061C0
006380
006300
006600
FFFFFC
003800
00E000
01C040
0783E0
1FBF00
79F000
E18018
018018
018030
01FFF0
00FFE0
ENDCHAR
STARTCHAR 2F7D
ENCODING 12157
SWIDTH 1000 0
DWIDTH 24 0
BBX 20 19 2 -1
BITMAP
FFFFF0
004000
00C000
00C000
008000
7FFFE0
631860
631860
631860
631860
631860
631860
631860
631860
631860
631860
631860
631BE0
6003C0
ENDCHAR
STARTCHAR 2F7E
ENCODING 12158
SWIDTH 1000 0
DWIDTH 24 0
BBX 21 22 2 -2
BITMAP
006000
006000
0061C0
7FFFE0
7FE000
006000
006000
3FFFC0
006000
006000
006000
FFFFF0
00F000
01F800
036C00
066700
0E6380
1C61E0
7060F0
E06038
C06010
006000
ENDCHAR
STARTCHAR 2F7F
ENCODING 12159
SWIDTH 1000 0
DWIDTH 24 0
BBX 20 19 2 -1
BITMAP
FFFFF0
0C0300
0C0300
0C0300
0FFF00
0C0300
0C0300
0C0300
0C0300
0FFF00
0C0300
0C0300
0C0300
0C1FF0
FFFF00
FC0300
000300
000300
000300
ENDCHAR
STARTCHAR 2F80
ENCODING 12160
SWIDTH 1000 0
DWIDTH 24 0
BBX 21 22 1 -2
BITMAP
003000
003000
003000
1FFFC0
0030C0
0030C0
FFFFF8
0030C0
0030C0
0030C0
1FFFC0
003000
003000
3FFFF0
003000
003000
003000
FFFFF8
003000
003000
003000
003000
ENDCHAR
STARTCHAR 2F81
ENCODING 12161
SWIDTH 1000 0
DWIDTH 24 0
BBX 18 21 3 -2
BITMAP
00C000
00C000
00C000
00C000
FFFFC0
C0C0C0
C1C0C0
C1E0C0
C338C0
C70CC0
DCC7C0
D8C2C0
C180C0
C1E0C0
C338C0
C61CC0
DC06C0
D802C0
C000C0
C00FC0
C00FC0
ENDCHAR
STARTCHAR 2F82
ENCODING 12162
SWIDTH 1000 0
DWIDTH 24 0
BBX 19 19 3 -2
BITMAP
FFFFC0
C0C000
C0C000
C0C000
C0C000
FFFF80
C00180
C00180
C00180
C00180
C00180
FFFF80
C0C180
C0C180
C0C000
C0C000
C0C000
FFFFE0
C00000
ENDCHAR
STARTCHAR 2F83
ENCODING 12163
SWIDTH 1000 0
DWIDTH 24 0
BBX 16 20 4 -1
BITMAP
0300
0300
0300
FFFF
C003
C003
C003
C003
FFFF
C003
C003
C003
C003
FFFF
C003
C003
C003
C003
FFFF
C003
ENDCHAR
STARTCHAR 2F84
ENCODING 12164
SWIDTH 1000 0
DWIDTH 24 0
BBX 21 19 2 -1
BITMAP
FFFFF0
018000
018000
030600
030300
060180
3FFFC0
7FFEE0
000060
006000
006000
006000
3FFFE0
006000
006000
006000
006000
006000
FFFFF8
ENDCHAR
STARTCHAR 2F85
ENCODING 12165
SWIDTH 1000 0
DWIDTH 24 0
BBX 18 20 3 -1
BITMAP
0F0000
F87FC0
C000C0
C000C0
C000C0
C000C0
C000C0
C000C0
C000C0
FF3FC0
C000C0
C000C0
C000C0
C000C0
C000C0
C000C0
C000C0
FFFFC0
C000C0
C000C0
ENDCHAR
STARTCHAR 2F86
ENCODING 12166
SWIDTH 1000 0
DWIDTH 24 0
BBX 22 21 1 -1
BITMAP
001FE0
3FFF00
3FB000
003000
003000
003000
FFFFFC
003000
003000
003000
003000
003000
1FFFE0
180060
180060
180060
180060
180060
1FFFE0
180060
180060
ENDCHAR
STARTCHAR 2F87
ENCODING 12167
SWIDTH 1000 0
DWIDTH 24 0
BBX 22 20 1 -1
BITMAP
0C00C0
0C00C0
0800C0
1FC0C0
18C0C0
18DFF8
3080C0
3098C0
3198C0
7D98C0
CF18C0
C718C0
031FFC
0630C0
0630C0
0C00C0
1800C0
3800C0
7000C0
6000C0
ENDCHAR
STARTCHAR 2F88
ENCODING 12168
SWIDTH 1000 0
DWIDTH 24 0
BBX 22 21 1 -1
BITMAP
003000
003000
006000
07FFC0
0640C0
0660C0
0630C0
0618C0
0618C0
0600C0
FFFFFC
0600C0
0630C0
0630C0
0630C0
0C30C0
0C30C0
1C30C0
1807C0
3807C0
100000
ENDCHAR
STARTCHAR 2F89
ENCODING 12169
SWIDTH 1000 0
DWIDTH 24 0
BBX 20 19 2 -2
BITMAP
1FFF80
180180
180180
180180
1FFF80
180180
180180
180180
1FFF80
186040
1820E0
1831C0
181380
181E00
180C00
186700
1FC3C0
FE00F0
600030
ENDCHAR
STARTCHAR 2F8A
ENCODING 12170
SWIDTH 1000 0
DWIDTH 24 0
BBX 20 20 2 0
BITMAP
030000
030000
07FC00
060400
0C0C00
1C0800
381800
7FFFC0
F830C0
9830C0
1830C0
1830C0
1FFFC0
1800C0
180000
180030
180030
180030
1FFFF0
0FFFE0
ENDCHAR
STARTCHAR 2F8B
ENCODING 12171
SWIDTH 1000 0
DWIDTH 24 0
BBX 20 21 2 -1
BITMAP
0C0300
0C0300
0C0300
CDB330
CDB330
CDB330
CDB330
CDB330
CDB330
CDB330
CDB330
FFBFF0
FFBFF0
CDB330
0C0300
1C0300
180300
380300
700300
E00300
400000
ENDCHAR
STARTCHAR 2F8C
ENCODING 12172
SWIDTH 1000 0
DWIDTH 24 0
BBX 20 20 2 -1
BITMAP
006000
006000
007FC0
006000
006000
006000
3FFFF0
300030
306060
306060
306000
306FE0
37FFE0
346000
306020
706030
606030
607FF0
C07FE0
400000
ENDCHAR
STARTCHAR 2F8D
ENCODING 12173
SWIDTH 1000 0
DWIDTH 24 0
BBX 20 20 2 -1
BITMAP
006000
006000
006000
006000
006000
3FFFC0
3060C0
3060C0
3060C0
3060C0
3060C0
3FFFC0
306000
306300
006380
006180
0060C0
007FE0
FFFF70
7C0030
ENDCHAR
STARTCHAR 2F8E
ENCODING 12174
SWIDTH 1000 0
DWIDTH 24 0
BBX 22 19 1 1
BITMAP
002000
002000
006000
006000
1FFFE0
18CC60
18CC60
18CC60
18CC60
18CC60
18CC60
18CC60
18CC60
18CC60
18CC60
18CC60
18CC60
18CC60
FFFFFC
ENDCHAR
STARTCHAR 2F8F
ENCODING 12175
SWIDTH 1000 0
DWIDTH 24 0
BBX 22 20 1 -1
BITMAP
060000
0E7FF8
0C0000
380000
720000
630000
060000
0EFFFC
0C00C0
1C00C0
3C00C0
EC00C0
4C00C0
0C00C0
0C00C0
0C00C0
0C00C0
0C00C0
0C0FC0
0C0F80
ENDCHAR
STARTCHAR 2F90
ENCODING 12176
SWIDTH 1000 0
DWIDTH 24 0
BBX 22 20 1 -1
BITMAP
003000
003000
003000
003000
7FFFF8
007800
00D800
01D830
018C70
030CC0
070780
1F0600
3B0300
F30380
430180
030CE0
033C70
03F038
3F801C
1C0008
ENDCHAR
STARTCHAR 2F91
ENCODING 12177
SWIDTH 1000 0
DWIDTH 24 0
BBX 20 17 2 -1
BITMAP
FFFFF0
031800
031800
031800
031800
7FFFE0
631860
631860
631860
631860
631860
631860
63F860
631860
600060
600060
600060
ENDCHAR
STARTCHAR 2F92
ENCODING 12178
SWIDTH 1000 0
DWIDTH 24 0
BBX 20 20 2 -1
BITMAP
1FFF80
180180
180180
180180
1FFF80
180180
180180
180180
1FFF80
180180
180180
1FFF80
011800
031800
031830
031830
061830
1C1FE0
F80FE0
400000
ENDCHAR
STARTCHAR 2F93
ENCODING 12179
SWIDTH 1000 0
DWIDTH 24 0
BBX 18 22 2 -2
BITMAP
020000
030000
07FC00
040C00
0C1800
183000
3FFFC0
F860C0
5860C0
1860C0
1FFFC0
1860C0
1860C0
1860C0
1FFFC0
1800C0
1800C0
3000C0
3000C0
600FC0
600FC0
400000
ENDCHAR
STARTCHAR 2F94
ENCODING 12180
SWIDTH 1000 0
DWIDTH 24 0
BBX 22 20 1 -2
BITMAP
0FFFC0
000000
000000
FFFFFC
000000
000000
000000
0FFFC0
000000
000000
0FFFC0
000000
000000
1FFFE0
180060
180060
180060
180060
1FFFE0
180060
ENDCHAR
STARTCHAR 2F95
ENCODING 12181
SWIDTH 1000 0
DWIDTH 24 0
BBX 22 21 1 -2
BITMAP
000200
030700
070180
0E00C0
1C3070
787830
20FC00
01CE00
038700
070380
0E00E0
3C0070
FFFFDC
4C00C0
0C00C0
0C00C0
0C00C0
0C00C0
0C00C0
0FFFC0
0C00C0
ENDCHAR
STARTCHAR 2F96
ENCODING 12182
SWIDTH 1000 0
DWIDTH 24 0
BBX 20 19 2 -1
BITMAP
7FFFE0
000000
000000
000000
1FFF80
180180
180180
180180
180180
180180
1FFF80
000400
060600
060600
030C00
030C00
030C00
001800
FFFFF0
ENDCHAR
STARTCHAR 2F97
ENCODING 12183
SWIDTH 1000 0
DWIDTH 24 0
BBX 21 20 2 -2
BITMAP
FFFFF0
00F000
01B000
031000
0F1840
3D98E0
F18980
C3CF00
064E00
0C6600
38E700
F1F300
C3B180
0730C0
0E30E0
383078
F03030
C03000
03F000
01E000
ENDCHAR
STARTCHAR 2F98
ENCODING 12184
SWIDTH 1000 0
DWIDTH 24 0
BBX 14 22 4 -2
BITMAP
0020
00F0
03C0
3E04
F8CC
0878
0C70
07C0
0780
1EC0
F8E0
C1B0
0710
1E30
7878
60D8
0398
0618
1C18
7018
01F8
00F0
ENDCHAR
STARTCHAR 2F99
ENCODING 12185
SWIDTH 1000 0
DWIDTH 24 0
BBX 20 21 2 -2
BITMAP
3FFFC0
3000C0
3000C0
3000C0
3000C0
3FFFC0
3000C0
3000C0
3000C0
3FFFC0
3000C0
3000C0
3000C0
3000C0
3FFFC0
020400
070F00
1E03C0
7800F0
E00030
800000
ENDCHAR
STARTCHAR 2F9A
ENCODING 12186
SWIDTH 1000 0
DWIDTH 24 0
BBX 20 20 2 -1
BITMAP
006000
006000
006000
3FFFC0
006000
006000
006000
FFFFF0
019800
019800
199B00
199980
3118C0
3318C0
631860
E31860
461820
0E1800
1CF800
38F800
ENDCHAR
STARTCHAR 2F9B
ENCODING 12187
SWIDTH 1000 0
DWIDTH 24 0
BBX 22 21 1 -1
BITMAP
003000
003000
003000
1FFFE0
003000
003000
003000
003000
7FFFF8
003000
003000
0C3000
0C3000
0C3FE0
1C3000
1C3000
3E3000
33B000
60FFFC
E03FF8
400000
ENDCHAR
STARTCHAR 2F9C
ENCODING 12188
SWIDTH 1000 0
DWIDTH 24 0
BBX 21 19 2 -2
BITMAP
3FFFC0
3000C0
3000C0
3000C0
3000C0
3000C0
3FFFC0
3060C0
006000
186000
186000
187FE0
386000
386000
3C6000
676000
E1FFF8
C07FF8
800000
ENDCHAR
STARTCHAR 2F9D
ENCODING 12189
SWIDTH 1000 0
DWIDTH 24 0
BBX 20 21 2 0
BITMAP
00C000
008000
1FFF00
180300
180300
180300
1FFF00
180330
180360
1FFFE0
1803C0
180380
1FFF00
FFCF00
001B00
007300
01C300
070300
3E0300
F03F00
403F00
ENDCHAR
STARTCHAR 2F9E
ENCODING 12190
SWIDTH 1000 0
DWIDTH 24 0
BBX 20 22 2 -3
BITMAP
006000
006000
006000
FFFFF0
006000
006000
3FFFC0
3060C0
3060C0
3FFFC0
3060C0
3060C0
3060C0
3FFFC0
006000
006000
006000
FFFFF0
006000
006000
006000
006000
ENDCHAR
STARTCHAR 2F9F
ENCODING 12191
SWIDTH 1000 0
DWIDTH 24 0
BBX 22 21 1 -1
BITMAP
003000
003000
003000
3FFFF0
060180
030300
030300
030300
018600
FFFFFC
003000
003000
003000
003000
7FFFF8
003000
003000
003000
003000
003000
003000
ENDCHAR
STARTCHAR 2FA0
ENCODING 12192
SWIDTH 1000 0
DWIDTH 24 0
BBX 20 19 2 -1
BITMAP
3FFFE0
300000
300000
300000
37FFC0
300000
300000
300000
3FFFF0
331800
3318E0
3319C0
330F80
630700
630700
630380
E3F9E0
CFE070
4C0010
ENDCHAR
STARTCHAR 2FA1
ENCODING 12193
SWIDTH 1000 0
DWIDTH 24 0
BBX 22 21 1 -2
BITMAP
000060
0003E0
007E00
3FE000
1003E0
003F00
1FF010
0C00F8
001FC0
1FFC00
3E3000
003000
0C3000
0C3FF0
083000
1C3000
1E3000
333000
71FFFC
E03FFC
400000
ENDCHAR
STARTCHAR 2FA2
ENCODING 12194
SWIDTH 1000 0
DWIDTH 24 0
BBX 20 19 3 -1
BITMAP
3FFF00
300300
300300
300300
3FFF00
000000
000000
FFFFC0
C0C0C0
C0C0C0
C0C0C0
FFFFC0
C00000
C00000
C00030
C00030
C00070
7FFFE0
1FFFC0
ENDCHAR
STARTCHAR 2FA3
ENCODING 12195
SWIDTH 1000 0
DWIDTH 24 0
BBX 20 19 2 -2
BITMAP
FFFFF0
019800
019800
019800
7FFFE0
619860
619860
631960
6319E0
661960
7C1F60
680060
600060
7FFFE0
600060
600060
600060
7FFFE0
600060
ENDCHAR
STARTCHAR 2FA4
ENCODING 12196
SWIDTH 1000 0
DWIDTH 24 0
BBX 21 21 2 -2
BITMAP
000180
00FFC0
7FFC00
406100
186180
186300
0C6300
0C6600
046200
FFFFF8
00F800
01F800
036C00
066600
0E6380
1C61C0
3860F0
F06078
C06010
006000
006000
ENDCHAR
STARTCHAR 2FA5
ENCODING 12197
SWIDTH 1000 0
DWIDTH 24 0
BBX 20 20 2 -1
BITMAP
3FFFC0
3060C0
3060C0
3060C0
3060C0
3FFFC0
3060C0
3060C0
3060C0
3060C0
3FFFC0
006000
006000
006000
7FFFE0
006000
006000
006000
006000
FFFFF0
ENDCHAR
STARTCHAR 2FA6
ENCODING 12198
SWIDTH 1000 0
DWIDTH 24 0
BBX 22 21 1 -1
BITMAP
007000
007800
00CC00
01CE00
038780
0701C0
0E00E0
3FFFF8
F0301C
603008
403000
003000
3FFFF0
003080
0C30C0
0C30C0
063180
063180
033180
003000
7FFFF8
ENDCHAR
STARTCHAR 2FA7
ENCODING 12199
SWIDTH 1000 0
DWIDTH 24 0
BBX 22 20 1 -2
BITMAP
0FFFE0
0C0000
0C0000
0C0000
0FFFC0
0C0000
0C0000
0FFFC0
0C0000
0C0000
FFFFF8
0C3020
0C3070
0C18C0
0C0F80
0C0600
0C3380
0FF1C0
7F807C
780018
ENDCHAR
STARTCHAR 2FA8
ENCODING 12200
SWIDTH 1000 0
DWIDTH 24 0
BBX 20 20 2 -1
BITMAP
FF9FF0
C19830
C19830
C19830
FF9FF0
C19830
C19830
FF9FF0
C19830
C00030
C00030
C00030
C00030
C00030
C00030
C00030
C00030
C00430
C003F0
C003E0
ENDCHAR
STARTCHAR 2FA9
ENCODING 12201
SWIDTH 1000 0
DWIDTH 24 0
BBX 21 22 1 -3
BITMAP
004000
006000
006000
1FFFC0
1800C0
1800C0
1FFFC0
180000
180000
1FFFE0
180060
180060
180060
1FFFE0
003000
003000
003000
FFFFF8
003000
003000
003000
003000
ENDCHAR
STARTCHAR 2FAA
ENCODING 12202
SWIDTH 1000 0
DWIDTH 24 0
BBX 21 22 1 -2
BITMAP
003000
003000
003000
1FFFC0
0030C0
0030C0
FFFFF8
0030C0
0030C0
0030C0
1FFFC0
003000
183860
0E38C0
063D80
00B700
03B300
0E3180
3C30E0
703070
01F030
01F000
ENDCHAR
STARTCHAR 2FAB
ENCODING 12203
SWIDTH 1000 0
DWIDTH 24 0
BBX 20 20 2 -1
BITMAP
060C00
0C1C00
0C1800
1C3800
1FFFF0
383000
783000
783000
DFFFC0
183000
183000
183000
183000
1FFFC0
183000
183000
183000
183000
1FFFF0
180000
ENDCHAR
STARTCHAR 2FAC
ENCODING 12204
SWIDTH 1000 0
DWIDTH 24 0
BBX 20 19 2 -1
BITMAP
FFFFF0
006000
006000
006000
7FFFE0
606060
606860
6C6C60
666660
636360
606060
6C6C60
666660
636360
616060
606060
6063E0
6063E0
600000
ENDCHAR
STARTCHAR 2FAD
ENCODING 12205
SWIDTH 1000 0
DWIDTH 24 0
BBX 22 22 1 -2
BITMAP
003000
003000
3FFFF0
003000
003000
1FFFE0
003000
003000
FFFFFC
000000
000000
0FFFC0
0C30C0
0C30C0
0C30C0
0C30C0
0FFFC0
0C00C0
0C00C0
0C00C0
0C0FC0
0C07C0
ENDCHAR
STARTCHAR 2FAE
ENCODING 12206
SWIDTH 1000 0
DWIDTH 24 0
BBX 21 22 1 -3
BITMAP
018C00
018C00
018C00
018C00
7F8FF8
018C00
018C00
018C00
018C00
7F8FF0
018C00
018C00
018C00
018C00
01EC00
7FCFF8
F30C00
030C00
060C00
0E0C00
1C0C00
300C00
ENDCHAR
STARTCHAR 2FAF
ENCODING 12207
SWIDTH 1000 0
DWIDTH 24 0
BBX 22 19 1 -2
BITMAP
FFFFFC
003000
002000
006000
3FFFF0
318630
318630
318630
318630
31FE30
318630
318630
318630
31FE30
318630
318630
318630
3FFFF0
300030
ENDCHAR
STARTCHAR 2FB0
ENCODING 12208
SWIDTH 1000 0
DWIDTH 24 0
BBX 22 22 1 -2
BITMAP
030300
030300
030300
7FFFF8
030300
030300
03FF00
003000
003000
1FFFE0
183060
183060
183060
1FFFE0
003000
003000
003000
FFFFFC
003000
003000
003000
003000
ENDCHAR
STARTCHAR 2FB1
ENCODING 12209
SWIDTH 1000 0
DWIDTH 24 0
BBX 22 21 1 -1
BITMAP
006000
004000
0FFF80
00C180
00C180
7FFFF8
000000
000000
0FFFC0
0C00C0
0C00C0
0FFFC0
001800
001800
0FFFE0
0C1800
0C1800
FFFFFC
001800
001800
001800
ENDCHAR
STARTCHAR 2FB2
ENCODING 12210
SWIDTH 1000 0
DWIDTH 24 0
BBX 22 20 1 0
BITMAP
00CC00
00CC00
00CC00
00CC00
7FCFF8
00CC00
00CC00
00CC00
00CC00
3FCFF0
00CC00
00CC00
00CC00
00CC00
3FCFF0
00CC00
00CC00
00CC00
00CC00
FFFFFC
ENDCHAR
STARTCHAR 2FB3
ENCODING 12211
SWIDTH 1000 0
DWIDTH 24 0
BBX 20 22 2 -3
BITMAP
006000
006000
006000
7FFFE0
060600
060600
020400
030C00
FFFFF0
000000
000000
1FFF80
180180
180180
180180
180180
1FFF80
180180
180180
180180
1FFF80
180180
ENDCHAR
STARTCHAR 2FB4
ENCODING 12212
SWIDTH 1000 0
DWIDTH 24 0
BBX 21 21 1 -2
BITMAP
7FFFF8
006000
006000
006000
1FFFE0
180060
180060
180060
1FFFE0
180060
180060
1FFFE0
180060
180060
180060
1FFFE0
010200
0707C0
3C00F8
F80038
400000
ENDCHAR
STARTCHAR 2FB5
ENCODING 12213
SWIDTH 1000 0
DWIDTH 24 0
BBX 23 21 1 -3
BITMAP
1FFFE0
180060
180060
181E60
1BFE60
1BB060
183060
183060
1BFE60
1B3660
1B3660
1B3660
1BFE60
1B3060
183434
303636
303336
31FFB4
67F19C
E0009C
40000C
ENDCHAR
STARTCHAR 2FB6
ENCODING 12214
SWIDTH 1000 0
DWIDTH 24 0
BBX 21 21 2 -2
BITMAP
7FFE00
000660
016340
0763C0
3E63E0
FC6330
0C6188
0C61D8
0C60F8
0C6070
FFFF00
0C6360
0C63C0
0C63C0
1C6370
186190
186188
3060C8
706078
E06030
406000
ENDCHAR
STARTCHAR 2FB7
ENCODING 12215
SWIDTH 1000 0
DWIDTH 24 0
BBX 21 20 1 -1
BITMAP
007800
00FC00
01CE00
038700
073380
0E31E0
3FFFF8
F60198
460180
07FF80
060180
060180
07FFA0
0630E0
0619C0
061F00
060E00
0673C0
1FE1F8
3E0038
ENDCHAR
STARTCHAR 2FB8
ENCODING 12216
SWIDTH 1000 0
DWIDTH 24 0
BBX 22 21 1 -2
BITMAP
020300
070300
030300
010600
FFFFFC
003000
006000
006000
1FFFE0
180060
180060
1FFFE0
180060
180060
180060
180060
1FFFE0
180060
180060
1FFFE0
180060
ENDCHAR
STARTCHAR 2FB9
ENCODING 12217
SWIDTH 1000 0
DWIDTH 24 0
BBX 22 22 1 -3
BITMAP
000080
03FFC0
1FF800
003000
003000
FFFFF8
00FC00
01B600
033300
0E31C0
183078
F0001C
4FFFC0
0C00C0
0C00C0
0C00C0
0FFFC0
0C00C0
0C00C0
0C00C0
0FFFC0
0C00C0
ENDCHAR
STARTCHAR 2FBA
ENCODING 12218
SWIDTH 1000 0
DWIDTH 24 0
BBX 20 21 2 -2
BITMAP
3FFFE0
302000
302000
302000
3FFFC0
302000
302000
3FFFC0
302000
302000
302000
3FFFF0
000030
002630
666630
666330
663320
C23020
C32060
8007E0
0007C0
ENDCHAR
STARTCHAR 2FBB
ENCODING 12219
SWIDTH 1000 0
DWIDTH 24 0
BBX 20 21 2 -3
BITMAP
1FFF80
180180
180180
187F80
186180
186180
186180
FFFFF0
C00030
C00030
DFFFB0
180180
180180
1FFF80
180180
180180
1FFF80
180180
180180
180F80
180F00
ENDCHAR
STARTCHAR 2FBC
ENCODING 12220
SWIDTH 1000 0
DWIDTH 24 0
BBX 20 22 2 -3
BITMAP
006000
006000
006000
FFFFF0
000000
0FFF00
080100
080100
080100
0FFF00
000000
7FFFE0
600060
600060
67FE60
660660
660660
660660
67FE60
660060
6003E0
6003E0
ENDCHAR
STARTCHAR 2FBD
ENCODING 12221
SWIDTH 1000 0
DWIDTH 24 0
BBX 21 20 1 -2
BITMAP
000020
3FE070
3000E0
3001C0
3FE380
300F10
300C30
3FE030
300060
3000C0
300180
FFF708
180618
198018
10C030
30C060
33E0C0
3F3380
F82700
000E00
ENDCHAR
STARTCHAR 2FBE
ENCODING 12222
SWIDTH 1000 0
DWIDTH 24 0
BBX 20 20 2 -2
BITMAP
C00030
DF9FB0
C60630
C60630
DF9FB0
C60630
C60630
DFBFB0
C00030
C00030
C00030
C00030
C00030
C00030
C00030
C00030
C00030
C00030
C003F0
C001E0
ENDCHAR
STARTCHAR 2FBF
ENCODING 12223
SWIDTH 1000 0
DWIDTH 24 0
BBX 19 20 3 0
BITMAP
C184C0
D8CCC0
CE18C0
D330C0
D9EEC0
CDF2C0
C338C0
CE8EC0
F8E6C0
C020C0
FFFFC0
000000
600000
603F00
7FF800
7C0000
600060
6000E0
7FFFC0
3FFFC0
ENDCHAR
STARTCHAR 2FC0
ENCODING 12224
SWIDTH 1000 0
DWIDTH 24 0
BBX 20 20 2 -2
BITMAP
FFFFF0
000000
000000
1FFF80
180180
180180
1FFF80
000000
000000
7FFFE0
631860
6318E0
6618E0
6E0F60
780060
67FF60
606060
606060
6063E0
6063E0
ENDCHAR
STARTCHAR 2FC1
ENCODING 12225
SWIDTH 1000 0
DWIDTH 24 0
BBX 21 21 2 -2
BITMAP
00C000
00C000
018000
3FFFC0
3060C0
3060C0
3060C0
3FFFC0
3060C0
3060C0
3060C0
3FFFC0
033200
033200
0332C0
023660
063FE0
0C3418
183018
F03FF8
C01FF0
ENDCHAR
STARTCHAR 2FC2
ENCODING 12226
SWIDTH 1000 0
DWIDTH 24 0
BBX 20 21 2 -2
BITMAP
020000
030000
07FC00
0C1C00
0C1800
183000
3FFFC0
F860C0
5860C0
1860C0
1FFFC0
1860C0
1860C0
1860C0
1FFFC0
000000
1911C0
3918E0
310860
618C30
E18C30
ENDCHAR
STARTCHAR 2FC3
ENCODING 12227
SWIDTH 1000 0
DWIDTH 24 0
BBX 22 21 1 -1
BITMAP
006000
00C000
1FFFC0
1800C0
1FFFC0
1800C0
1800C0
1FFFC0
180000
180000
1FFFFC
180000
1FFFF0
000210
326610
323330
2331B0
633130
631830
C303F0
0003E0
ENDCHAR
STARTCHAR 2FC4
ENCODING 12228
SWIDTH 1000 0
DWIDTH 24 0
BBX 18 22 3 -3
BITMAP
00C000
00C000
00FF80
00C000
00C000
FFFFC0
C004C0
C184C0
D8CCC0
CE58C0
C730C0
D1B4C0
D8E6C0
CCE6C0
C9B2C0
C318C0
CECCC0
DC46C0
D064C0
C000C0
FFFFC0
C000C0
ENDCHAR
STARTCHAR 2FC5
ENCODING 12229
SWIDTH 1000 0
DWIDTH 24 0
BBX 22 22 1 -2
BITMAP
003000
003000
003000
3FFFF8
30CC00
30CC00
3FFFF0
30CC30
30CC30
30CC30
3FFFF0
300000
330600
330610
330670
33F7F0
330700
63060C
63160C
6FF7F8
CF07F8
400000
ENDCHAR
STARTCHAR 2FC6
ENCODING 12230
SWIDTH 1000 0
DWIDTH 24 0
BBX 22 21 1 0
BITMAP
003000
003000
7FFFF8
003080
0630C0
0C3180
0C7BC0
1BFF70
71B630
233300
0641C0
1CE070
79FFBC
E30308
07C600
1CFC00
003C00
007780
03C1E0
3F0070
180020
ENDCHAR
STARTCHAR 2FC7
ENCODING 12231
SWIDTH 1000 0
DWIDTH 24 0
BBX 22 22 1 -1
BITMAP
001800
001800
001800
3FFFF8
300000
318180
318180
318180
318180
3FF7F8
318180
3383C0
33E3C0
33F3E0
37BFA0
3595B0
358D98
6D8D8C
699988
618980
C18180
418180
ENDCHAR
STARTCHAR 2FC8
ENCODING 12232
SWIDTH 1000 0
DWIDTH 24 0
BBX 22 22 1 -2
BITMAP
018600
018600
7FFFF8
018600
018600
01FE00
000000
FFFFFC
003000
003000
1FFFE0
183060
183060
1FFFE0
183060
183060
183060
1FFFE0
010200
0787C0
7C0078
700018
ENDCHAR
STARTCHAR 2FC9
ENCODING 12233
SWIDTH 1000 0
DWIDTH 24 0
BBX 22 21 1 -2
BITMAP
0001C0
3FFFE0
1FF000
003000
7FFFF8
00FC00
03B300
0731C0
3C7878
F0FC1C
41C700
0733C0
1E30F0
7A31BC
673180
02BF00
03B780
0F31E0
3C3070
31F010
01F000
ENDCHAR
STARTCHAR 2FCA
ENCODING 12234
SWIDTH 1000 0
DWIDTH 24 0
BBX 22 21 1 -3
BITMAP
1FFFE0
183060
183060
183060
1FFFE0
183060
183060
1FFFE0
003000
003000
7FFFF0
003000
003000
003000
FFFFFC
000020
198C60
318C30
30C618
60C61C
60C400
ENDCHAR
STARTCHAR 2FCB
ENCODING 12235
SWIDTH 1000 0
DWIDTH 24 0
BBX 22 22 1 -1
BITMAP
00CC00
0CCCC0
0CCCC0
06CD80
04CD80
FFFFF8
023200
073780
1C30F0
78303C
7FFFE8
183060
193660
193660
193660
193660
193660
193660
1B3660
1B3060
1833E0
1803E0
ENDCHAR
ENDFONT
